%TF.GenerationSoftware,KiCad,Pcbnew,(6.0.7)*%
%TF.CreationDate,2023-03-01T00:53:14+09:00*%
%TF.ProjectId,joystick,6a6f7973-7469-4636-9b2e-6b696361645f,rev?*%
%TF.SameCoordinates,Original*%
%TF.FileFunction,Copper,L1,Top*%
%TF.FilePolarity,Positive*%
%FSLAX46Y46*%
G04 Gerber Fmt 4.6, Leading zero omitted, Abs format (unit mm)*
G04 Created by KiCad (PCBNEW (6.0.7)) date 2023-03-01 00:53:14*
%MOMM*%
%LPD*%
G01*
G04 APERTURE LIST*
G04 Aperture macros list*
%AMRoundRect*
0 Rectangle with rounded corners*
0 $1 Rounding radius*
0 $2 $3 $4 $5 $6 $7 $8 $9 X,Y pos of 4 corners*
0 Add a 4 corners polygon primitive as box body*
4,1,4,$2,$3,$4,$5,$6,$7,$8,$9,$2,$3,0*
0 Add four circle primitives for the rounded corners*
1,1,$1+$1,$2,$3*
1,1,$1+$1,$4,$5*
1,1,$1+$1,$6,$7*
1,1,$1+$1,$8,$9*
0 Add four rect primitives between the rounded corners*
20,1,$1+$1,$2,$3,$4,$5,0*
20,1,$1+$1,$4,$5,$6,$7,0*
20,1,$1+$1,$6,$7,$8,$9,0*
20,1,$1+$1,$8,$9,$2,$3,0*%
G04 Aperture macros list end*
%TA.AperFunction,ComponentPad*%
%ADD10C,1.524000*%
%TD*%
%TA.AperFunction,ComponentPad*%
%ADD11O,1.950000X1.700000*%
%TD*%
%TA.AperFunction,ComponentPad*%
%ADD12RoundRect,0.250000X0.725000X-0.600000X0.725000X0.600000X-0.725000X0.600000X-0.725000X-0.600000X0*%
%TD*%
%TA.AperFunction,SMDPad,CuDef*%
%ADD13O,2.748280X1.998980*%
%TD*%
%TA.AperFunction,SMDPad,CuDef*%
%ADD14O,1.016000X2.032000*%
%TD*%
%TA.AperFunction,SMDPad,CuDef*%
%ADD15C,1.143000*%
%TD*%
%TA.AperFunction,ComponentPad*%
%ADD16RoundRect,0.250000X-0.725000X0.600000X-0.725000X-0.600000X0.725000X-0.600000X0.725000X0.600000X0*%
%TD*%
%TA.AperFunction,ViaPad*%
%ADD17C,0.800000*%
%TD*%
%TA.AperFunction,Conductor*%
%ADD18C,0.250000*%
%TD*%
G04 APERTURE END LIST*
D10*
%TO.P,OFFSET1,1,1*%
%TO.N,+3.3V*%
X116840000Y-94615000D03*
%TO.P,OFFSET1,2,2*%
%TO.N,Net-(OFFSET1-Pad2)*%
X114300000Y-94615000D03*
%TO.P,OFFSET1,3,3*%
%TO.N,GND*%
X114300000Y-97155000D03*
%TD*%
D11*
%TO.P,J1,5,Pin_5*%
%TO.N,/EN*%
X151490000Y-90885000D03*
%TO.P,J1,4,Pin_4*%
%TO.N,/IRXT*%
X151490000Y-93385000D03*
%TO.P,J1,3,Pin_3*%
%TO.N,/ITXR*%
X151490000Y-95885000D03*
%TO.P,J1,2,Pin_2*%
%TO.N,+5V*%
X151490000Y-98385000D03*
D12*
%TO.P,J1,1,Pin_1*%
%TO.N,GND*%
X151490000Y-100885000D03*
%TD*%
D13*
%TO.P,U1,1,PA02_A0_D0*%
%TO.N,/X*%
X121758720Y-88885480D03*
%TO.P,U1,2,PA4_A1_D1*%
%TO.N,/Y*%
X121758720Y-91425480D03*
%TO.P,U1,3,PA10_A2_D2*%
%TO.N,Net-(OFFSET1-Pad2)*%
X121758720Y-93965480D03*
%TO.P,U1,4,PA11_A3_D3*%
%TO.N,/EN*%
X121758720Y-96505480D03*
%TO.P,U1,5,PA8_A4_D4_SDA*%
%TO.N,unconnected-(U1-Pad5)*%
X121758720Y-99045480D03*
%TO.P,U1,6,PA9_A5_D5_SCL*%
%TO.N,unconnected-(U1-Pad6)*%
X121758720Y-101585480D03*
%TO.P,U1,7,PB08_A6_D6_TX*%
%TO.N,/IRXT*%
X121758720Y-104125480D03*
%TO.P,U1,8,PB09_A7_D7_RX*%
%TO.N,/ITXR*%
X137923280Y-104125480D03*
%TO.P,U1,9,PA7_A8_D8_SCK*%
%TO.N,unconnected-(U1-Pad9)*%
X137923280Y-101585480D03*
%TO.P,U1,10,PA5_A9_D9_MISO*%
%TO.N,unconnected-(U1-Pad10)*%
X137923280Y-99045480D03*
%TO.P,U1,11,PA6_A10_D10_MOSI*%
%TO.N,unconnected-(U1-Pad11)*%
X137923280Y-96505480D03*
%TO.P,U1,12,3V3*%
%TO.N,+3.3V*%
X137923280Y-93965480D03*
%TO.P,U1,13,GND*%
%TO.N,GND*%
X137923280Y-91425480D03*
%TO.P,U1,14,5V*%
%TO.N,+5V*%
X137923280Y-88885480D03*
D14*
%TO.P,U1,15,5V*%
%TO.N,unconnected-(U1-Pad15)*%
X128625600Y-105203300D03*
%TO.P,U1,16,GND*%
%TO.N,unconnected-(U1-Pad16)*%
X131175600Y-105203300D03*
D15*
%TO.P,U1,17,PA31_SWDIO*%
%TO.N,unconnected-(U1-Pad17)*%
X128624403Y-88199113D03*
%TO.P,U1,18,PA30_SWCLK*%
%TO.N,unconnected-(U1-Pad18)*%
X131164403Y-88199113D03*
%TO.P,U1,19,RESET*%
%TO.N,unconnected-(U1-Pad19)*%
X128624403Y-90739113D03*
%TO.P,U1,20,GND*%
%TO.N,unconnected-(U1-Pad20)*%
X131164403Y-90739113D03*
%TD*%
D16*
%TO.P,J2,1,Pin_1*%
%TO.N,GND*%
X101600000Y-92075000D03*
D11*
%TO.P,J2,2,Pin_2*%
%TO.N,+3.3V*%
X101600000Y-94575000D03*
%TO.P,J2,3,Pin_3*%
%TO.N,/X*%
X101600000Y-97075000D03*
%TO.P,J2,4,Pin_4*%
%TO.N,/Y*%
X101600000Y-99575000D03*
%TD*%
D17*
%TO.N,/EN*%
X118745000Y-96505500D03*
%TO.N,/IRXT*%
X118745000Y-102870000D03*
%TO.N,/ITXR*%
X139534200Y-104140000D03*
%TD*%
D18*
%TO.N,GND*%
X112085200Y-92075000D02*
X101600000Y-92075000D01*
X116612700Y-87547500D02*
X112085200Y-92075000D01*
X135593600Y-89095800D02*
X127502700Y-89095800D01*
X138415500Y-91425500D02*
X137923300Y-91425500D01*
X147875000Y-100885000D02*
X138415500Y-91425500D01*
X137923300Y-91425500D02*
X135593600Y-89095800D01*
X151490000Y-100885000D02*
X147875000Y-100885000D01*
X127502700Y-89095800D02*
X125954400Y-87547500D01*
X125954400Y-87547500D02*
X116612700Y-87547500D01*
%TO.N,+5V*%
X151490000Y-98385000D02*
X147422800Y-98385000D01*
X147422800Y-98385000D02*
X137923300Y-88885500D01*
%TO.N,/EN*%
X121758700Y-96505500D02*
X118745000Y-96505500D01*
%TO.N,/ITXR*%
X139534200Y-104140000D02*
X139519700Y-104125500D01*
X139519700Y-104125500D02*
X137923300Y-104125500D01*
%TO.N,/IRXT*%
X121744200Y-104140000D02*
X121758700Y-104125500D01*
X118745000Y-103505000D02*
X119380000Y-104140000D01*
X119380000Y-104140000D02*
X121744200Y-104140000D01*
X118745000Y-102870000D02*
X118745000Y-103505000D01*
%TO.N,+3.3V*%
X126410000Y-105478800D02*
X137923300Y-93965500D01*
X117543800Y-105478800D02*
X126410000Y-105478800D01*
X116840000Y-104775000D02*
X117543800Y-105478800D01*
X116840000Y-94615000D02*
X116840000Y-104775000D01*
%TO.N,Net-(OFFSET1-Pad2)*%
X115389300Y-93525700D02*
X114300000Y-94615000D01*
X119619600Y-93525700D02*
X115389300Y-93525700D01*
X120059400Y-93965500D02*
X119619600Y-93525700D01*
X121758700Y-93965500D02*
X120059400Y-93965500D01*
%TO.N,/Y*%
X115896800Y-91425500D02*
X121758700Y-91425500D01*
X107747300Y-99575000D02*
X115896800Y-91425500D01*
X101600000Y-99575000D02*
X107747300Y-99575000D01*
%TO.N,/X*%
X117384300Y-88885500D02*
X121758700Y-88885500D01*
X109194800Y-97075000D02*
X117384300Y-88885500D01*
X101600000Y-97075000D02*
X109194800Y-97075000D01*
%TD*%
%TA.AperFunction,NonConductor*%
G36*
X120003416Y-89539002D02*
G01*
X120049489Y-89591749D01*
X120066475Y-89628175D01*
X120066478Y-89628181D01*
X120068615Y-89632763D01*
X120071457Y-89636944D01*
X120071457Y-89636945D01*
X120202167Y-89829279D01*
X120202170Y-89829283D01*
X120205013Y-89833466D01*
X120371745Y-90009781D01*
X120430783Y-90054919D01*
X120472749Y-90112181D01*
X120477094Y-90183045D01*
X120437577Y-90249527D01*
X120299581Y-90371186D01*
X120299578Y-90371189D01*
X120295784Y-90374534D01*
X120141757Y-90562050D01*
X120139217Y-90566415D01*
X120139213Y-90566420D01*
X120044367Y-90729381D01*
X119992814Y-90778194D01*
X119935469Y-90792000D01*
X116677895Y-90792000D01*
X116609774Y-90771998D01*
X116563281Y-90718342D01*
X116553177Y-90648068D01*
X116582671Y-90583488D01*
X116588800Y-90576905D01*
X117609800Y-89555905D01*
X117672112Y-89521879D01*
X117698895Y-89519000D01*
X119935295Y-89519000D01*
X120003416Y-89539002D01*
G37*
%TD.AperFunction*%
%TA.AperFunction,NonConductor*%
G36*
X120003416Y-92079002D02*
G01*
X120049489Y-92131749D01*
X120066475Y-92168175D01*
X120066478Y-92168181D01*
X120068615Y-92172763D01*
X120071457Y-92176944D01*
X120071457Y-92176945D01*
X120202167Y-92369279D01*
X120202170Y-92369283D01*
X120205013Y-92373466D01*
X120371745Y-92549781D01*
X120430783Y-92594919D01*
X120472749Y-92652181D01*
X120477094Y-92723045D01*
X120437577Y-92789527D01*
X120299581Y-92911186D01*
X120299578Y-92911189D01*
X120295784Y-92914534D01*
X120292575Y-92918441D01*
X120292566Y-92918450D01*
X120206375Y-93023381D01*
X120147681Y-93063324D01*
X120076709Y-93065194D01*
X120022758Y-93035255D01*
X120008304Y-93021681D01*
X119994921Y-93009114D01*
X119987975Y-93005295D01*
X119987972Y-93005293D01*
X119977166Y-92999352D01*
X119960647Y-92988501D01*
X119960183Y-92988141D01*
X119944641Y-92976086D01*
X119937372Y-92972941D01*
X119937368Y-92972938D01*
X119904063Y-92958526D01*
X119893413Y-92953309D01*
X119854660Y-92932005D01*
X119835037Y-92926967D01*
X119816334Y-92920563D01*
X119805020Y-92915667D01*
X119805019Y-92915667D01*
X119797745Y-92912519D01*
X119789922Y-92911280D01*
X119789912Y-92911277D01*
X119754076Y-92905601D01*
X119742456Y-92903195D01*
X119707311Y-92894172D01*
X119707310Y-92894172D01*
X119699630Y-92892200D01*
X119679376Y-92892200D01*
X119659665Y-92890649D01*
X119647486Y-92888720D01*
X119639657Y-92887480D01*
X119631765Y-92888226D01*
X119595639Y-92891641D01*
X119583781Y-92892200D01*
X115630194Y-92892200D01*
X115562073Y-92872198D01*
X115515580Y-92818542D01*
X115505476Y-92748268D01*
X115534970Y-92683688D01*
X115541099Y-92677105D01*
X116122299Y-92095905D01*
X116184611Y-92061879D01*
X116211394Y-92059000D01*
X119935295Y-92059000D01*
X120003416Y-92079002D01*
G37*
%TD.AperFunction*%
%TA.AperFunction,NonConductor*%
G36*
X112525086Y-92644758D02*
G01*
X112567794Y-92701473D01*
X112573060Y-92772274D01*
X112538959Y-92834936D01*
X108969300Y-96404595D01*
X108906988Y-96438621D01*
X108880205Y-96441500D01*
X103000596Y-96441500D01*
X102932475Y-96421498D01*
X102892877Y-96380866D01*
X102875519Y-96352260D01*
X102826623Y-96271683D01*
X102748731Y-96181920D01*
X102679023Y-96101588D01*
X102679021Y-96101586D01*
X102675523Y-96097555D01*
X102612436Y-96045827D01*
X102501373Y-95954760D01*
X102501367Y-95954756D01*
X102497245Y-95951376D01*
X102465750Y-95933448D01*
X102416445Y-95882368D01*
X102402583Y-95812738D01*
X102428566Y-95746667D01*
X102457716Y-95719427D01*
X102493642Y-95695240D01*
X102579319Y-95637559D01*
X102620398Y-95598372D01*
X102658859Y-95561681D01*
X102746135Y-95478424D01*
X102883754Y-95293458D01*
X102891218Y-95278779D01*
X102940818Y-95181221D01*
X102988240Y-95087949D01*
X102993851Y-95069881D01*
X103055024Y-94872871D01*
X103056607Y-94867773D01*
X103071058Y-94758738D01*
X103086198Y-94644511D01*
X103086198Y-94644506D01*
X103086898Y-94639226D01*
X103086592Y-94631061D01*
X103079710Y-94447755D01*
X103078249Y-94408842D01*
X103030907Y-94183209D01*
X103021761Y-94160050D01*
X102948185Y-93973744D01*
X102948184Y-93973742D01*
X102946224Y-93968779D01*
X102826623Y-93771683D01*
X102749556Y-93682871D01*
X102679023Y-93601588D01*
X102679021Y-93601586D01*
X102675523Y-93597555D01*
X102639880Y-93568330D01*
X102599886Y-93509671D01*
X102597954Y-93438701D01*
X102634698Y-93377952D01*
X102653468Y-93363752D01*
X102793120Y-93277332D01*
X102799348Y-93273478D01*
X102924305Y-93148303D01*
X102928146Y-93142072D01*
X103013275Y-93003968D01*
X103013276Y-93003966D01*
X103017115Y-92997738D01*
X103052851Y-92889998D01*
X103070632Y-92836389D01*
X103070632Y-92836387D01*
X103072797Y-92829861D01*
X103073498Y-92823020D01*
X103073499Y-92823015D01*
X103073639Y-92821651D01*
X103073960Y-92820864D01*
X103074941Y-92816290D01*
X103075757Y-92816465D01*
X103100483Y-92755925D01*
X103158600Y-92715146D01*
X103198982Y-92708500D01*
X112006433Y-92708500D01*
X112017616Y-92709027D01*
X112025109Y-92710702D01*
X112033035Y-92710453D01*
X112033036Y-92710453D01*
X112093186Y-92708562D01*
X112097145Y-92708500D01*
X112125056Y-92708500D01*
X112128991Y-92708003D01*
X112129056Y-92707995D01*
X112140893Y-92707062D01*
X112173151Y-92706048D01*
X112177170Y-92705922D01*
X112185089Y-92705673D01*
X112204543Y-92700021D01*
X112223900Y-92696013D01*
X112236130Y-92694468D01*
X112236131Y-92694468D01*
X112243997Y-92693474D01*
X112251368Y-92690555D01*
X112251370Y-92690555D01*
X112285112Y-92677196D01*
X112296342Y-92673351D01*
X112331183Y-92663229D01*
X112331184Y-92663229D01*
X112338793Y-92661018D01*
X112345612Y-92656985D01*
X112345617Y-92656983D01*
X112356228Y-92650707D01*
X112373976Y-92642012D01*
X112392817Y-92634552D01*
X112392842Y-92634615D01*
X112458495Y-92620137D01*
X112525086Y-92644758D01*
G37*
%TD.AperFunction*%
%TA.AperFunction,NonConductor*%
G36*
X108481826Y-97728502D02*
G01*
X108528319Y-97782158D01*
X108538423Y-97852432D01*
X108508929Y-97917012D01*
X108502800Y-97923595D01*
X107521800Y-98904595D01*
X107459488Y-98938621D01*
X107432705Y-98941500D01*
X103000596Y-98941500D01*
X102932475Y-98921498D01*
X102892877Y-98880866D01*
X102877706Y-98855864D01*
X102826623Y-98771683D01*
X102749556Y-98682871D01*
X102679023Y-98601588D01*
X102679021Y-98601586D01*
X102675523Y-98597555D01*
X102578654Y-98518127D01*
X102501373Y-98454760D01*
X102501367Y-98454756D01*
X102497245Y-98451376D01*
X102465750Y-98433448D01*
X102416445Y-98382368D01*
X102402583Y-98312738D01*
X102428566Y-98246667D01*
X102457716Y-98219427D01*
X102519033Y-98178146D01*
X102579319Y-98137559D01*
X102585171Y-98131977D01*
X102672769Y-98048412D01*
X102746135Y-97978424D01*
X102883754Y-97793458D01*
X102886170Y-97788706D01*
X102886175Y-97788698D01*
X102891922Y-97777394D01*
X102940625Y-97725737D01*
X103004238Y-97708500D01*
X108413705Y-97708500D01*
X108481826Y-97728502D01*
G37*
%TD.AperFunction*%
%TA.AperFunction,NonConductor*%
G36*
X147199077Y-98981606D02*
G01*
X147207361Y-98983733D01*
X147226067Y-98990137D01*
X147244655Y-98998181D01*
X147252478Y-98999420D01*
X147252488Y-98999423D01*
X147288324Y-99005099D01*
X147299944Y-99007505D01*
X147335089Y-99016528D01*
X147342770Y-99018500D01*
X147363024Y-99018500D01*
X147382734Y-99020051D01*
X147402743Y-99023220D01*
X147410635Y-99022474D01*
X147446761Y-99019059D01*
X147458619Y-99018500D01*
X150089404Y-99018500D01*
X150157525Y-99038502D01*
X150197122Y-99079133D01*
X150263377Y-99188317D01*
X150266874Y-99192347D01*
X150390057Y-99334303D01*
X150414477Y-99362445D01*
X150450120Y-99391670D01*
X150490114Y-99450329D01*
X150492046Y-99521299D01*
X150455302Y-99582048D01*
X150436532Y-99596248D01*
X150305579Y-99677285D01*
X150290652Y-99686522D01*
X150165695Y-99811697D01*
X150161855Y-99817927D01*
X150161854Y-99817928D01*
X150108466Y-99904540D01*
X150072885Y-99962262D01*
X150063924Y-99989279D01*
X150027275Y-100099774D01*
X150017203Y-100130139D01*
X150016502Y-100136980D01*
X150016501Y-100136985D01*
X150016361Y-100138349D01*
X150016040Y-100139136D01*
X150015059Y-100143710D01*
X150014243Y-100143535D01*
X149989517Y-100204075D01*
X149931400Y-100244854D01*
X149891018Y-100251500D01*
X148189595Y-100251500D01*
X148121474Y-100231498D01*
X148100500Y-100214595D01*
X147078647Y-99192742D01*
X147044621Y-99130430D01*
X147049686Y-99059615D01*
X147092233Y-99002779D01*
X147158753Y-98977968D01*
X147199077Y-98981606D01*
G37*
%TD.AperFunction*%
%TA.AperFunction,NonConductor*%
G36*
X119373126Y-94179202D02*
G01*
X119394100Y-94196104D01*
X119475124Y-94277129D01*
X119555754Y-94357759D01*
X119563287Y-94366037D01*
X119567400Y-94372518D01*
X119573179Y-94377945D01*
X119573181Y-94377947D01*
X119617035Y-94419127D01*
X119619879Y-94421883D01*
X119639630Y-94441635D01*
X119642827Y-94444115D01*
X119651847Y-94451818D01*
X119684079Y-94482086D01*
X119691025Y-94485905D01*
X119691028Y-94485907D01*
X119701834Y-94491848D01*
X119718353Y-94502699D01*
X119734359Y-94515114D01*
X119741628Y-94518259D01*
X119741632Y-94518262D01*
X119774937Y-94532674D01*
X119785587Y-94537891D01*
X119824340Y-94559195D01*
X119832015Y-94561166D01*
X119832016Y-94561166D01*
X119843962Y-94564233D01*
X119862667Y-94570637D01*
X119881255Y-94578681D01*
X119889078Y-94579920D01*
X119889088Y-94579923D01*
X119924924Y-94585599D01*
X119936545Y-94588005D01*
X119962800Y-94594746D01*
X120023807Y-94631061D01*
X120045661Y-94663538D01*
X120059105Y-94692368D01*
X120068615Y-94712763D01*
X120071457Y-94716944D01*
X120071457Y-94716945D01*
X120202167Y-94909279D01*
X120202170Y-94909283D01*
X120205013Y-94913466D01*
X120371745Y-95089781D01*
X120430783Y-95134919D01*
X120472749Y-95192181D01*
X120477094Y-95263045D01*
X120437577Y-95329527D01*
X120299581Y-95451186D01*
X120299578Y-95451189D01*
X120295784Y-95454534D01*
X120292574Y-95458442D01*
X120292573Y-95458443D01*
X120276161Y-95478424D01*
X120141757Y-95642050D01*
X120139217Y-95646415D01*
X120139213Y-95646420D01*
X120044367Y-95809381D01*
X119992814Y-95858194D01*
X119935469Y-95872000D01*
X119453200Y-95872000D01*
X119385079Y-95851998D01*
X119365853Y-95835657D01*
X119365580Y-95835960D01*
X119360668Y-95831537D01*
X119356253Y-95826634D01*
X119273227Y-95766312D01*
X119207094Y-95718263D01*
X119207093Y-95718262D01*
X119201752Y-95714382D01*
X119195724Y-95711698D01*
X119195722Y-95711697D01*
X119033319Y-95639391D01*
X119033318Y-95639391D01*
X119027288Y-95636706D01*
X118933888Y-95616853D01*
X118846944Y-95598372D01*
X118846939Y-95598372D01*
X118840487Y-95597000D01*
X118649513Y-95597000D01*
X118643061Y-95598372D01*
X118643056Y-95598372D01*
X118556113Y-95616853D01*
X118462712Y-95636706D01*
X118456682Y-95639391D01*
X118456681Y-95639391D01*
X118294278Y-95711697D01*
X118294276Y-95711698D01*
X118288248Y-95714382D01*
X118282907Y-95718262D01*
X118282906Y-95718263D01*
X118278539Y-95721436D01*
X118133747Y-95826634D01*
X118129326Y-95831544D01*
X118129325Y-95831545D01*
X118037570Y-95933450D01*
X118005960Y-95968556D01*
X117910473Y-96133944D01*
X117851458Y-96315572D01*
X117850768Y-96322133D01*
X117850768Y-96322135D01*
X117849393Y-96335219D01*
X117831496Y-96505500D01*
X117832186Y-96512065D01*
X117850711Y-96688317D01*
X117851458Y-96695428D01*
X117910473Y-96877056D01*
X118005960Y-97042444D01*
X118010378Y-97047351D01*
X118010379Y-97047352D01*
X118090228Y-97136033D01*
X118133747Y-97184366D01*
X118288248Y-97296618D01*
X118294276Y-97299302D01*
X118294278Y-97299303D01*
X118456681Y-97371609D01*
X118462712Y-97374294D01*
X118556112Y-97394147D01*
X118643056Y-97412628D01*
X118643061Y-97412628D01*
X118649513Y-97414000D01*
X118840487Y-97414000D01*
X118846939Y-97412628D01*
X118846944Y-97412628D01*
X118933888Y-97394147D01*
X119027288Y-97374294D01*
X119033319Y-97371609D01*
X119195722Y-97299303D01*
X119195724Y-97299302D01*
X119201752Y-97296618D01*
X119356253Y-97184366D01*
X119360668Y-97179463D01*
X119365580Y-97175040D01*
X119366705Y-97176289D01*
X119420014Y-97143449D01*
X119453200Y-97139000D01*
X119935295Y-97139000D01*
X120003416Y-97159002D01*
X120049489Y-97211749D01*
X120066475Y-97248175D01*
X120066478Y-97248181D01*
X120068615Y-97252763D01*
X120071457Y-97256944D01*
X120071457Y-97256945D01*
X120202167Y-97449279D01*
X120202170Y-97449283D01*
X120205013Y-97453466D01*
X120371745Y-97629781D01*
X120430783Y-97674919D01*
X120472749Y-97732181D01*
X120477094Y-97803045D01*
X120437577Y-97869527D01*
X120299581Y-97991186D01*
X120299578Y-97991189D01*
X120295784Y-97994534D01*
X120141757Y-98182050D01*
X120019691Y-98391779D01*
X120017877Y-98396505D01*
X120017875Y-98396509D01*
X119939153Y-98601588D01*
X119932728Y-98618327D01*
X119883104Y-98855864D01*
X119882875Y-98860913D01*
X119882874Y-98860919D01*
X119879528Y-98934614D01*
X119872096Y-99098279D01*
X119872677Y-99103299D01*
X119872677Y-99103303D01*
X119875816Y-99130430D01*
X119899987Y-99339336D01*
X119901366Y-99344210D01*
X119901367Y-99344214D01*
X119956054Y-99537474D01*
X119966060Y-99572833D01*
X119968194Y-99577408D01*
X119968196Y-99577415D01*
X120066478Y-99788181D01*
X120068615Y-99792763D01*
X120071457Y-99796944D01*
X120071457Y-99796945D01*
X120202167Y-99989279D01*
X120202170Y-99989283D01*
X120205013Y-99993466D01*
X120371745Y-100169781D01*
X120430783Y-100214919D01*
X120472749Y-100272181D01*
X120477094Y-100343045D01*
X120437577Y-100409527D01*
X120299581Y-100531186D01*
X120299578Y-100531189D01*
X120295784Y-100534534D01*
X120292574Y-100538442D01*
X120292573Y-100538443D01*
X120281072Y-100552445D01*
X120141757Y-100722050D01*
X120019691Y-100931779D01*
X120017877Y-100936505D01*
X120017875Y-100936509D01*
X119971191Y-101058127D01*
X119932728Y-101158327D01*
X119883104Y-101395864D01*
X119882875Y-101400913D01*
X119882874Y-101400919D01*
X119882401Y-101411346D01*
X119872096Y-101638279D01*
X119872677Y-101643299D01*
X119872677Y-101643303D01*
X119885156Y-101751158D01*
X119899987Y-101879336D01*
X119901366Y-101884210D01*
X119901367Y-101884214D01*
X119964682Y-102107964D01*
X119966060Y-102112833D01*
X119968194Y-102117408D01*
X119968196Y-102117415D01*
X120066463Y-102328148D01*
X120068615Y-102332763D01*
X120071457Y-102336944D01*
X120071457Y-102336945D01*
X120202167Y-102529279D01*
X120202170Y-102529283D01*
X120205013Y-102533466D01*
X120371745Y-102709781D01*
X120430783Y-102754919D01*
X120472749Y-102812181D01*
X120477094Y-102883045D01*
X120437577Y-102949527D01*
X120299581Y-103071186D01*
X120299578Y-103071189D01*
X120295784Y-103074534D01*
X120141757Y-103262050D01*
X120076591Y-103374015D01*
X120035928Y-103443881D01*
X119984375Y-103492694D01*
X119927030Y-103506500D01*
X119694594Y-103506500D01*
X119626473Y-103486498D01*
X119605499Y-103469595D01*
X119573931Y-103438027D01*
X119539905Y-103375715D01*
X119544970Y-103304900D01*
X119553906Y-103285933D01*
X119562408Y-103271206D01*
X119579527Y-103241556D01*
X119638542Y-103059928D01*
X119650146Y-102949527D01*
X119657814Y-102876565D01*
X119658504Y-102870000D01*
X119646408Y-102754916D01*
X119639232Y-102686635D01*
X119639232Y-102686633D01*
X119638542Y-102680072D01*
X119579527Y-102498444D01*
X119553183Y-102452814D01*
X119542314Y-102433990D01*
X119484040Y-102333056D01*
X119393767Y-102232797D01*
X119360675Y-102196045D01*
X119360674Y-102196044D01*
X119356253Y-102191134D01*
X119214503Y-102088146D01*
X119207094Y-102082763D01*
X119207093Y-102082762D01*
X119201752Y-102078882D01*
X119195724Y-102076198D01*
X119195722Y-102076197D01*
X119033319Y-102003891D01*
X119033318Y-102003891D01*
X119027288Y-102001206D01*
X118933887Y-101981353D01*
X118846944Y-101962872D01*
X118846939Y-101962872D01*
X118840487Y-101961500D01*
X118649513Y-101961500D01*
X118643061Y-101962872D01*
X118643056Y-101962872D01*
X118556112Y-101981353D01*
X118462712Y-102001206D01*
X118456682Y-102003891D01*
X118456681Y-102003891D01*
X118294278Y-102076197D01*
X118294276Y-102076198D01*
X118288248Y-102078882D01*
X118282907Y-102082762D01*
X118282906Y-102082763D01*
X118275497Y-102088146D01*
X118133747Y-102191134D01*
X118129326Y-102196044D01*
X118129325Y-102196045D01*
X118096234Y-102232797D01*
X118005960Y-102333056D01*
X117947686Y-102433990D01*
X117936818Y-102452814D01*
X117910473Y-102498444D01*
X117851458Y-102680072D01*
X117850768Y-102686633D01*
X117850768Y-102686635D01*
X117843592Y-102754916D01*
X117831496Y-102870000D01*
X117832186Y-102876565D01*
X117839855Y-102949527D01*
X117851458Y-103059928D01*
X117910473Y-103241556D01*
X118005960Y-103406944D01*
X118064338Y-103471779D01*
X118080947Y-103490225D01*
X118111664Y-103554233D01*
X118113248Y-103570575D01*
X118114327Y-103604889D01*
X118119978Y-103624339D01*
X118123987Y-103643700D01*
X118126526Y-103663797D01*
X118129445Y-103671168D01*
X118129445Y-103671170D01*
X118142804Y-103704912D01*
X118146649Y-103716142D01*
X118158982Y-103758593D01*
X118163015Y-103765412D01*
X118163017Y-103765417D01*
X118169293Y-103776028D01*
X118177988Y-103793776D01*
X118185448Y-103812617D01*
X118190110Y-103819033D01*
X118190110Y-103819034D01*
X118211436Y-103848387D01*
X118217952Y-103858307D01*
X118240458Y-103896362D01*
X118254779Y-103910683D01*
X118267619Y-103925716D01*
X118279528Y-103942107D01*
X118313540Y-103970244D01*
X118313605Y-103970298D01*
X118322384Y-103978288D01*
X118876343Y-104532247D01*
X118883887Y-104540537D01*
X118888000Y-104547018D01*
X118893777Y-104552443D01*
X118937667Y-104593658D01*
X118940509Y-104596413D01*
X118960231Y-104616135D01*
X118963355Y-104618558D01*
X118963359Y-104618562D01*
X118963424Y-104618612D01*
X118972463Y-104626334D01*
X118973668Y-104627466D01*
X119009622Y-104688686D01*
X119006771Y-104759625D01*
X118966019Y-104817762D01*
X118900306Y-104844637D01*
X118887398Y-104845300D01*
X117858395Y-104845300D01*
X117790274Y-104825298D01*
X117769299Y-104808395D01*
X117510404Y-104549499D01*
X117476379Y-104487187D01*
X117473500Y-104460404D01*
X117473500Y-95788004D01*
X117493502Y-95719883D01*
X117527229Y-95684791D01*
X117655270Y-95595136D01*
X117655273Y-95595134D01*
X117659781Y-95591977D01*
X117816977Y-95434781D01*
X117854510Y-95381179D01*
X117941331Y-95257185D01*
X117941334Y-95257180D01*
X117944488Y-95252676D01*
X117946811Y-95247694D01*
X117946814Y-95247689D01*
X118036117Y-95056178D01*
X118036118Y-95056177D01*
X118038440Y-95051196D01*
X118095978Y-94836463D01*
X118115353Y-94615000D01*
X118095978Y-94393537D01*
X118075687Y-94317811D01*
X118077377Y-94246835D01*
X118117171Y-94188039D01*
X118182435Y-94160091D01*
X118197394Y-94159200D01*
X119305005Y-94159200D01*
X119373126Y-94179202D01*
G37*
%TD.AperFunction*%
%TA.AperFunction,NonConductor*%
G36*
X125707927Y-88201002D02*
G01*
X125728901Y-88217905D01*
X126434696Y-88923701D01*
X126999048Y-89488053D01*
X127006588Y-89496339D01*
X127010700Y-89502818D01*
X127016477Y-89508243D01*
X127060351Y-89549443D01*
X127063193Y-89552198D01*
X127082930Y-89571935D01*
X127086127Y-89574415D01*
X127095147Y-89582118D01*
X127127379Y-89612386D01*
X127134325Y-89616205D01*
X127134328Y-89616207D01*
X127145134Y-89622148D01*
X127161653Y-89632999D01*
X127177659Y-89645414D01*
X127184928Y-89648559D01*
X127184932Y-89648562D01*
X127218237Y-89662974D01*
X127228887Y-89668191D01*
X127267640Y-89689495D01*
X127275315Y-89691466D01*
X127275316Y-89691466D01*
X127287262Y-89694533D01*
X127305967Y-89700937D01*
X127324555Y-89708981D01*
X127332378Y-89710220D01*
X127332388Y-89710223D01*
X127368224Y-89715899D01*
X127379844Y-89718305D01*
X127414989Y-89727328D01*
X127422670Y-89729300D01*
X127442924Y-89729300D01*
X127462634Y-89730851D01*
X127482643Y-89734020D01*
X127490535Y-89733274D01*
X127516167Y-89730851D01*
X127526662Y-89729859D01*
X127538519Y-89729300D01*
X127802995Y-89729300D01*
X127871116Y-89749302D01*
X127917609Y-89802958D01*
X127927713Y-89873232D01*
X127898219Y-89937812D01*
X127886073Y-89950032D01*
X127837642Y-89992505D01*
X127834067Y-89997040D01*
X127834066Y-89997041D01*
X127824023Y-90009781D01*
X127714758Y-90148383D01*
X127712069Y-90153494D01*
X127712067Y-90153497D01*
X127696521Y-90183045D01*
X127622338Y-90324044D01*
X127563478Y-90513606D01*
X127540148Y-90710721D01*
X127553130Y-90908786D01*
X127601989Y-91101169D01*
X127685088Y-91281426D01*
X127688421Y-91286142D01*
X127749581Y-91372681D01*
X127799646Y-91443522D01*
X127803788Y-91447557D01*
X127843514Y-91486256D01*
X127941825Y-91582026D01*
X128106864Y-91692302D01*
X128112167Y-91694580D01*
X128112170Y-91694582D01*
X128187972Y-91727149D01*
X128289235Y-91770655D01*
X128348857Y-91784146D01*
X128477194Y-91813186D01*
X128477199Y-91813187D01*
X128482831Y-91814461D01*
X128488602Y-91814688D01*
X128488604Y-91814688D01*
X128547665Y-91817008D01*
X128681168Y-91822254D01*
X128779386Y-91808013D01*
X128871890Y-91794601D01*
X128871895Y-91794600D01*
X128877604Y-91793772D01*
X128905962Y-91784146D01*
X129060093Y-91731825D01*
X129065561Y-91729969D01*
X129238742Y-91632983D01*
X129391350Y-91506060D01*
X129518273Y-91353452D01*
X129615259Y-91180271D01*
X129647161Y-91086292D01*
X129677206Y-90997782D01*
X129677206Y-90997781D01*
X129679062Y-90992314D01*
X129679890Y-90986605D01*
X129679891Y-90986600D01*
X129703934Y-90820774D01*
X129707544Y-90795878D01*
X129709030Y-90739113D01*
X129690868Y-90541455D01*
X129636990Y-90350417D01*
X129549200Y-90172397D01*
X129430438Y-90013356D01*
X129359547Y-89947825D01*
X129323102Y-89886896D01*
X129325383Y-89815936D01*
X129365665Y-89757474D01*
X129431160Y-89730071D01*
X129445076Y-89729300D01*
X130342995Y-89729300D01*
X130411116Y-89749302D01*
X130457609Y-89802958D01*
X130467713Y-89873232D01*
X130438219Y-89937812D01*
X130426073Y-89950032D01*
X130377642Y-89992505D01*
X130374067Y-89997040D01*
X130374066Y-89997041D01*
X130364023Y-90009781D01*
X130254758Y-90148383D01*
X130252069Y-90153494D01*
X130252067Y-90153497D01*
X130236521Y-90183045D01*
X130162338Y-90324044D01*
X130103478Y-90513606D01*
X130080148Y-90710721D01*
X130093130Y-90908786D01*
X130141989Y-91101169D01*
X130225088Y-91281426D01*
X130228421Y-91286142D01*
X130289581Y-91372681D01*
X130339646Y-91443522D01*
X130343788Y-91447557D01*
X130383514Y-91486256D01*
X130481825Y-91582026D01*
X130646864Y-91692302D01*
X130652167Y-91694580D01*
X130652170Y-91694582D01*
X130727972Y-91727149D01*
X130829235Y-91770655D01*
X130888857Y-91784146D01*
X131017194Y-91813186D01*
X131017199Y-91813187D01*
X131022831Y-91814461D01*
X131028602Y-91814688D01*
X131028604Y-91814688D01*
X131087665Y-91817008D01*
X131221168Y-91822254D01*
X131319386Y-91808013D01*
X131411890Y-91794601D01*
X131411895Y-91794600D01*
X131417604Y-91793772D01*
X131445962Y-91784146D01*
X131600093Y-91731825D01*
X131605561Y-91729969D01*
X131778742Y-91632983D01*
X131931350Y-91506060D01*
X132058273Y-91353452D01*
X132155259Y-91180271D01*
X132187161Y-91086292D01*
X132217206Y-90997782D01*
X132217206Y-90997781D01*
X132219062Y-90992314D01*
X132219890Y-90986605D01*
X132219891Y-90986600D01*
X132243934Y-90820774D01*
X132247544Y-90795878D01*
X132249030Y-90739113D01*
X132230868Y-90541455D01*
X132176990Y-90350417D01*
X132089200Y-90172397D01*
X131970438Y-90013356D01*
X131899547Y-89947825D01*
X131863102Y-89886896D01*
X131865383Y-89815936D01*
X131905665Y-89757474D01*
X131971160Y-89730071D01*
X131985076Y-89729300D01*
X135279006Y-89729300D01*
X135347127Y-89749302D01*
X135368101Y-89766205D01*
X136185326Y-90583430D01*
X136219352Y-90645742D01*
X136214287Y-90716557D01*
X136205129Y-90735906D01*
X136201107Y-90742817D01*
X136184251Y-90771779D01*
X136182438Y-90776502D01*
X136101790Y-90986600D01*
X136097288Y-90998327D01*
X136047664Y-91235864D01*
X136047435Y-91240913D01*
X136047434Y-91240919D01*
X136043457Y-91328499D01*
X136036656Y-91478279D01*
X136064547Y-91719336D01*
X136065926Y-91724210D01*
X136065927Y-91724214D01*
X136129242Y-91947964D01*
X136130620Y-91952833D01*
X136132754Y-91957408D01*
X136132756Y-91957415D01*
X136231038Y-92168181D01*
X136233175Y-92172763D01*
X136236017Y-92176944D01*
X136236017Y-92176945D01*
X136366727Y-92369279D01*
X136366730Y-92369283D01*
X136369573Y-92373466D01*
X136536305Y-92549781D01*
X136595343Y-92594919D01*
X136637309Y-92652181D01*
X136641654Y-92723045D01*
X136602137Y-92789527D01*
X136464141Y-92911186D01*
X136464138Y-92911189D01*
X136460344Y-92914534D01*
X136306317Y-93102050D01*
X136184251Y-93311779D01*
X136182437Y-93316505D01*
X136182435Y-93316509D01*
X136099103Y-93533598D01*
X136097288Y-93538327D01*
X136047664Y-93775864D01*
X136047435Y-93780913D01*
X136047434Y-93780919D01*
X136042411Y-93891538D01*
X136036656Y-94018279D01*
X136037237Y-94023299D01*
X136037237Y-94023303D01*
X136042310Y-94067148D01*
X136064547Y-94259336D01*
X136065926Y-94264210D01*
X136065927Y-94264214D01*
X136115340Y-94438834D01*
X136130620Y-94492833D01*
X136132754Y-94497408D01*
X136132756Y-94497415D01*
X136171231Y-94579923D01*
X136202632Y-94647262D01*
X136210823Y-94664828D01*
X136221484Y-94735019D01*
X136192504Y-94799832D01*
X136185723Y-94807173D01*
X131182243Y-99810652D01*
X126184500Y-104808395D01*
X126122188Y-104842421D01*
X126095405Y-104845300D01*
X123655699Y-104845300D01*
X123587578Y-104825298D01*
X123541085Y-104771642D01*
X123530981Y-104701368D01*
X123538068Y-104674146D01*
X123582897Y-104557363D01*
X123582899Y-104557356D01*
X123584712Y-104552633D01*
X123634336Y-104315096D01*
X123635066Y-104299036D01*
X123642585Y-104133435D01*
X123645344Y-104072681D01*
X123634423Y-103978288D01*
X123626600Y-103910683D01*
X123617453Y-103831624D01*
X123613891Y-103819034D01*
X123552758Y-103602996D01*
X123552757Y-103602994D01*
X123551380Y-103598127D01*
X123549246Y-103593552D01*
X123549244Y-103593545D01*
X123450962Y-103382779D01*
X123450960Y-103382775D01*
X123448825Y-103378197D01*
X123431540Y-103352763D01*
X123315273Y-103181681D01*
X123315270Y-103181677D01*
X123312427Y-103177494D01*
X123145695Y-103001179D01*
X123086657Y-102956041D01*
X123044691Y-102898779D01*
X123040346Y-102827915D01*
X123079863Y-102761433D01*
X123217859Y-102639774D01*
X123217862Y-102639771D01*
X123221656Y-102636426D01*
X123375683Y-102448910D01*
X123497749Y-102239181D01*
X123499931Y-102233498D01*
X123582897Y-102017362D01*
X123582898Y-102017359D01*
X123584712Y-102012633D01*
X123634336Y-101775096D01*
X123645344Y-101532681D01*
X123644250Y-101523220D01*
X123626203Y-101367249D01*
X123617453Y-101291624D01*
X123581138Y-101163287D01*
X123552758Y-101062996D01*
X123552757Y-101062994D01*
X123551380Y-101058127D01*
X123549246Y-101053552D01*
X123549244Y-101053545D01*
X123450962Y-100842779D01*
X123450960Y-100842775D01*
X123448825Y-100838197D01*
X123445983Y-100834015D01*
X123315273Y-100641681D01*
X123315270Y-100641677D01*
X123312427Y-100637494D01*
X123145695Y-100461179D01*
X123086657Y-100416041D01*
X123044691Y-100358779D01*
X123040346Y-100287915D01*
X123079863Y-100221433D01*
X123217859Y-100099774D01*
X123217862Y-100099771D01*
X123221656Y-100096426D01*
X123375683Y-99908910D01*
X123497749Y-99699181D01*
X123502609Y-99686522D01*
X123582897Y-99477362D01*
X123582898Y-99477359D01*
X123584712Y-99472633D01*
X123634336Y-99235096D01*
X123636260Y-99192742D01*
X123640321Y-99103303D01*
X123645344Y-98992681D01*
X123638626Y-98934614D01*
X123628941Y-98850910D01*
X123617453Y-98751624D01*
X123596556Y-98677773D01*
X123552758Y-98522996D01*
X123552757Y-98522994D01*
X123551380Y-98518127D01*
X123549246Y-98513552D01*
X123549244Y-98513545D01*
X123450962Y-98302779D01*
X123450960Y-98302775D01*
X123448825Y-98298197D01*
X123395293Y-98219427D01*
X123315273Y-98101681D01*
X123315270Y-98101677D01*
X123312427Y-98097494D01*
X123145695Y-97921179D01*
X123086657Y-97876041D01*
X123044691Y-97818779D01*
X123040346Y-97747915D01*
X123079863Y-97681433D01*
X123217859Y-97559774D01*
X123217862Y-97559771D01*
X123221656Y-97556426D01*
X123375683Y-97368910D01*
X123497749Y-97159181D01*
X123502325Y-97147262D01*
X123582897Y-96937362D01*
X123582898Y-96937359D01*
X123584712Y-96932633D01*
X123634336Y-96695096D01*
X123645344Y-96452681D01*
X123644051Y-96441500D01*
X123624993Y-96276791D01*
X123617453Y-96211624D01*
X123606378Y-96172484D01*
X123552758Y-95982996D01*
X123552757Y-95982994D01*
X123551380Y-95978127D01*
X123549246Y-95973552D01*
X123549244Y-95973545D01*
X123450962Y-95762779D01*
X123450960Y-95762775D01*
X123448825Y-95758197D01*
X123419048Y-95714382D01*
X123315273Y-95561681D01*
X123315270Y-95561677D01*
X123312427Y-95557494D01*
X123145695Y-95381179D01*
X123086657Y-95336041D01*
X123044691Y-95278779D01*
X123040346Y-95207915D01*
X123079863Y-95141433D01*
X123217859Y-95019774D01*
X123217862Y-95019771D01*
X123221656Y-95016426D01*
X123375683Y-94828910D01*
X123497749Y-94619181D01*
X123505101Y-94600030D01*
X123582897Y-94397362D01*
X123582898Y-94397359D01*
X123584712Y-94392633D01*
X123634336Y-94155096D01*
X123636487Y-94107740D01*
X123641570Y-93995783D01*
X123645344Y-93912681D01*
X123643640Y-93897949D01*
X123618035Y-93676657D01*
X123617453Y-93671624D01*
X123584842Y-93556377D01*
X123552758Y-93442996D01*
X123552757Y-93442994D01*
X123551380Y-93438127D01*
X123549246Y-93433552D01*
X123549244Y-93433545D01*
X123450962Y-93222779D01*
X123450960Y-93222775D01*
X123448825Y-93218197D01*
X123405551Y-93154521D01*
X123315273Y-93021681D01*
X123315270Y-93021677D01*
X123312427Y-93017494D01*
X123145695Y-92841179D01*
X123086657Y-92796041D01*
X123044691Y-92738779D01*
X123040346Y-92667915D01*
X123079863Y-92601433D01*
X123217859Y-92479774D01*
X123217862Y-92479771D01*
X123221656Y-92476426D01*
X123375683Y-92288910D01*
X123497749Y-92079181D01*
X123506392Y-92056667D01*
X123582897Y-91857362D01*
X123582898Y-91857359D01*
X123584712Y-91852633D01*
X123634336Y-91615096D01*
X123634865Y-91603458D01*
X123642341Y-91438802D01*
X123645344Y-91372681D01*
X123638510Y-91313611D01*
X123623382Y-91182871D01*
X123617453Y-91131624D01*
X123607251Y-91095569D01*
X123552758Y-90902996D01*
X123552757Y-90902994D01*
X123551380Y-90898127D01*
X123549246Y-90893552D01*
X123549244Y-90893545D01*
X123450962Y-90682779D01*
X123450960Y-90682775D01*
X123448825Y-90678197D01*
X123384461Y-90583488D01*
X123315273Y-90481681D01*
X123315270Y-90481677D01*
X123312427Y-90477494D01*
X123145695Y-90301179D01*
X123086657Y-90256041D01*
X123044691Y-90198779D01*
X123040346Y-90127915D01*
X123079863Y-90061433D01*
X123217859Y-89939774D01*
X123217862Y-89939771D01*
X123221656Y-89936426D01*
X123375683Y-89748910D01*
X123497749Y-89539181D01*
X123501897Y-89528377D01*
X123582897Y-89317362D01*
X123582898Y-89317359D01*
X123584712Y-89312633D01*
X123634336Y-89075096D01*
X123636319Y-89031443D01*
X123639589Y-88959422D01*
X123645344Y-88832681D01*
X123640776Y-88793196D01*
X123625383Y-88660162D01*
X123617453Y-88591624D01*
X123616073Y-88586746D01*
X123552759Y-88362999D01*
X123552757Y-88362995D01*
X123551380Y-88358127D01*
X123549242Y-88353541D01*
X123548266Y-88350918D01*
X123543269Y-88280098D01*
X123577355Y-88217818D01*
X123639700Y-88183854D01*
X123666364Y-88181000D01*
X125639806Y-88181000D01*
X125707927Y-88201002D01*
G37*
%TD.AperFunction*%
%TA.AperFunction,NonConductor*%
G36*
X162763621Y-83713502D02*
G01*
X162810114Y-83767158D01*
X162821500Y-83819500D01*
X162821500Y-107550500D01*
X162801498Y-107618621D01*
X162747842Y-107665114D01*
X162695500Y-107676500D01*
X90634500Y-107676500D01*
X90566379Y-107656498D01*
X90519886Y-107602842D01*
X90508500Y-107550500D01*
X90508500Y-104272703D01*
X105840743Y-104272703D01*
X105841302Y-104276947D01*
X105841302Y-104276951D01*
X105845912Y-104311967D01*
X105878268Y-104557734D01*
X105879401Y-104561874D01*
X105879401Y-104561876D01*
X105888849Y-104596413D01*
X105954129Y-104835036D01*
X105955813Y-104838984D01*
X106064811Y-105094524D01*
X106066923Y-105099476D01*
X106214561Y-105346161D01*
X106394313Y-105570528D01*
X106445730Y-105619321D01*
X106592263Y-105758375D01*
X106602851Y-105768423D01*
X106836317Y-105936186D01*
X106840112Y-105938195D01*
X106840113Y-105938196D01*
X106860388Y-105948931D01*
X107090392Y-106070712D01*
X107360373Y-106169511D01*
X107641264Y-106230755D01*
X107669841Y-106233004D01*
X107864282Y-106248307D01*
X107864291Y-106248307D01*
X107866739Y-106248500D01*
X108022271Y-106248500D01*
X108024407Y-106248354D01*
X108024418Y-106248354D01*
X108232548Y-106234165D01*
X108232554Y-106234164D01*
X108236825Y-106233873D01*
X108241020Y-106233004D01*
X108241022Y-106233004D01*
X108377583Y-106204724D01*
X108518342Y-106175574D01*
X108789343Y-106079607D01*
X109011164Y-105965117D01*
X109041005Y-105949715D01*
X109041006Y-105949715D01*
X109044812Y-105947750D01*
X109048313Y-105945289D01*
X109048317Y-105945287D01*
X109162418Y-105865095D01*
X109280023Y-105782441D01*
X109440335Y-105633470D01*
X109487479Y-105589661D01*
X109487481Y-105589658D01*
X109490622Y-105586740D01*
X109672713Y-105364268D01*
X109822927Y-105119142D01*
X109836144Y-105089034D01*
X109936757Y-104859830D01*
X109938483Y-104855898D01*
X109960337Y-104779181D01*
X109988061Y-104681852D01*
X110017244Y-104579406D01*
X110057751Y-104294784D01*
X110057790Y-104287526D01*
X110059235Y-104011583D01*
X110059235Y-104011576D01*
X110059257Y-104007297D01*
X110054564Y-103971645D01*
X110036937Y-103837760D01*
X110021732Y-103722266D01*
X110016985Y-103704912D01*
X109989120Y-103603056D01*
X109945871Y-103444964D01*
X109916334Y-103375715D01*
X109834763Y-103184476D01*
X109834761Y-103184472D01*
X109833077Y-103180524D01*
X109723903Y-102998107D01*
X109687643Y-102937521D01*
X109687640Y-102937517D01*
X109685439Y-102933839D01*
X109505687Y-102709472D01*
X109297149Y-102511577D01*
X109063683Y-102343814D01*
X109041843Y-102332250D01*
X108874336Y-102243560D01*
X108809608Y-102209288D01*
X108674617Y-102159888D01*
X108543658Y-102111964D01*
X108543656Y-102111963D01*
X108539627Y-102110489D01*
X108258736Y-102049245D01*
X108227685Y-102046801D01*
X108035718Y-102031693D01*
X108035709Y-102031693D01*
X108033261Y-102031500D01*
X107877729Y-102031500D01*
X107875593Y-102031646D01*
X107875582Y-102031646D01*
X107667452Y-102045835D01*
X107667446Y-102045836D01*
X107663175Y-102046127D01*
X107658980Y-102046996D01*
X107658978Y-102046996D01*
X107522416Y-102075277D01*
X107381658Y-102104426D01*
X107110657Y-102200393D01*
X107106848Y-102202359D01*
X106863072Y-102328181D01*
X106855188Y-102332250D01*
X106851687Y-102334711D01*
X106851683Y-102334713D01*
X106845905Y-102338774D01*
X106619977Y-102497559D01*
X106604892Y-102511577D01*
X106466936Y-102639774D01*
X106409378Y-102693260D01*
X106227287Y-102915732D01*
X106077073Y-103160858D01*
X106075347Y-103164791D01*
X106075346Y-103164792D01*
X105971559Y-103401226D01*
X105961517Y-103424102D01*
X105882756Y-103700594D01*
X105842249Y-103985216D01*
X105842227Y-103989505D01*
X105842226Y-103989512D01*
X105841211Y-104183303D01*
X105840743Y-104272703D01*
X90508500Y-104272703D01*
X90508500Y-99510774D01*
X100113102Y-99510774D01*
X100113302Y-99516103D01*
X100113302Y-99516105D01*
X100116311Y-99596248D01*
X100121751Y-99741158D01*
X100169093Y-99966791D01*
X100171051Y-99971750D01*
X100171052Y-99971752D01*
X100246671Y-100163229D01*
X100253776Y-100181221D01*
X100256543Y-100185780D01*
X100256544Y-100185783D01*
X100296422Y-100251500D01*
X100373377Y-100378317D01*
X100376874Y-100382347D01*
X100512327Y-100538443D01*
X100524477Y-100552445D01*
X100528608Y-100555832D01*
X100698627Y-100695240D01*
X100698633Y-100695244D01*
X100702755Y-100698624D01*
X100707391Y-100701263D01*
X100707394Y-100701265D01*
X100816422Y-100763327D01*
X100903114Y-100812675D01*
X101119825Y-100891337D01*
X101125074Y-100892286D01*
X101125077Y-100892287D01*
X101342608Y-100931623D01*
X101342615Y-100931624D01*
X101346692Y-100932361D01*
X101364414Y-100933197D01*
X101369356Y-100933430D01*
X101369363Y-100933430D01*
X101370844Y-100933500D01*
X101782890Y-100933500D01*
X101849809Y-100927822D01*
X101949409Y-100919371D01*
X101949413Y-100919370D01*
X101954720Y-100918920D01*
X101959875Y-100917582D01*
X101959881Y-100917581D01*
X102172703Y-100862343D01*
X102172707Y-100862342D01*
X102177872Y-100861001D01*
X102182738Y-100858809D01*
X102182741Y-100858808D01*
X102383202Y-100768507D01*
X102388075Y-100766312D01*
X102579319Y-100637559D01*
X102746135Y-100478424D01*
X102883754Y-100293458D01*
X102886170Y-100288706D01*
X102886175Y-100288698D01*
X102891922Y-100277394D01*
X102940625Y-100225737D01*
X103004238Y-100208500D01*
X107668533Y-100208500D01*
X107679716Y-100209027D01*
X107687209Y-100210702D01*
X107695135Y-100210453D01*
X107695136Y-100210453D01*
X107755286Y-100208562D01*
X107759245Y-100208500D01*
X107787156Y-100208500D01*
X107791091Y-100208003D01*
X107791156Y-100207995D01*
X107802993Y-100207062D01*
X107835251Y-100206048D01*
X107839270Y-100205922D01*
X107847189Y-100205673D01*
X107866643Y-100200021D01*
X107886000Y-100196013D01*
X107898230Y-100194468D01*
X107898231Y-100194468D01*
X107906097Y-100193474D01*
X107913468Y-100190555D01*
X107913470Y-100190555D01*
X107947212Y-100177196D01*
X107958442Y-100173351D01*
X107993283Y-100163229D01*
X107993284Y-100163229D01*
X108000893Y-100161018D01*
X108007712Y-100156985D01*
X108007717Y-100156983D01*
X108018328Y-100150707D01*
X108036076Y-100142012D01*
X108054917Y-100134552D01*
X108090687Y-100108564D01*
X108100607Y-100102048D01*
X108131835Y-100083580D01*
X108131838Y-100083578D01*
X108138662Y-100079542D01*
X108152983Y-100065221D01*
X108168017Y-100052380D01*
X108177994Y-100045131D01*
X108184407Y-100040472D01*
X108212598Y-100006395D01*
X108220588Y-99997616D01*
X112995572Y-95222632D01*
X113057884Y-95188606D01*
X113128699Y-95193671D01*
X113185535Y-95236218D01*
X113193393Y-95248133D01*
X113195512Y-95252676D01*
X113198662Y-95257174D01*
X113198665Y-95257180D01*
X113286308Y-95382347D01*
X113323023Y-95434781D01*
X113480219Y-95591977D01*
X113484727Y-95595134D01*
X113484730Y-95595136D01*
X113551730Y-95642050D01*
X113662323Y-95719488D01*
X113667305Y-95721811D01*
X113667310Y-95721814D01*
X113772373Y-95770805D01*
X113825658Y-95817722D01*
X113845119Y-95885999D01*
X113824577Y-95953959D01*
X113772373Y-95999195D01*
X113667311Y-96048186D01*
X113667306Y-96048189D01*
X113662324Y-96050512D01*
X113657817Y-96053668D01*
X113657815Y-96053669D01*
X113484730Y-96174864D01*
X113484727Y-96174866D01*
X113480219Y-96178023D01*
X113323023Y-96335219D01*
X113319866Y-96339727D01*
X113319864Y-96339730D01*
X113217266Y-96486256D01*
X113195512Y-96517324D01*
X113193189Y-96522306D01*
X113193186Y-96522311D01*
X113157564Y-96598703D01*
X113101560Y-96718804D01*
X113044022Y-96933537D01*
X113024647Y-97155000D01*
X113044022Y-97376463D01*
X113101560Y-97591196D01*
X113103882Y-97596177D01*
X113103883Y-97596178D01*
X113193186Y-97787689D01*
X113193189Y-97787694D01*
X113195512Y-97792676D01*
X113198668Y-97797183D01*
X113198669Y-97797185D01*
X113285491Y-97921179D01*
X113323023Y-97974781D01*
X113480219Y-98131977D01*
X113484727Y-98135134D01*
X113484730Y-98135136D01*
X113546155Y-98178146D01*
X113662323Y-98259488D01*
X113667305Y-98261811D01*
X113667310Y-98261814D01*
X113805029Y-98326033D01*
X113863804Y-98353440D01*
X113869112Y-98354862D01*
X113869114Y-98354863D01*
X113934949Y-98372503D01*
X114078537Y-98410978D01*
X114300000Y-98430353D01*
X114521463Y-98410978D01*
X114665051Y-98372503D01*
X114730886Y-98354863D01*
X114730888Y-98354862D01*
X114736196Y-98353440D01*
X114794971Y-98326033D01*
X114932690Y-98261814D01*
X114932695Y-98261811D01*
X114937677Y-98259488D01*
X115053845Y-98178146D01*
X115115270Y-98135136D01*
X115115273Y-98135134D01*
X115119781Y-98131977D01*
X115276977Y-97974781D01*
X115314510Y-97921179D01*
X115401331Y-97797185D01*
X115401332Y-97797183D01*
X115404488Y-97792676D01*
X115406811Y-97787694D01*
X115406814Y-97787689D01*
X115496117Y-97596178D01*
X115496118Y-97596177D01*
X115498440Y-97591196D01*
X115555978Y-97376463D01*
X115575353Y-97155000D01*
X115555978Y-96933537D01*
X115498440Y-96718804D01*
X115442436Y-96598703D01*
X115406814Y-96522311D01*
X115406811Y-96522306D01*
X115404488Y-96517324D01*
X115382734Y-96486256D01*
X115280136Y-96339730D01*
X115280134Y-96339727D01*
X115276977Y-96335219D01*
X115119781Y-96178023D01*
X115115273Y-96174866D01*
X115115270Y-96174864D01*
X115000024Y-96094168D01*
X114937677Y-96050512D01*
X114932695Y-96048189D01*
X114932690Y-96048186D01*
X114827627Y-95999195D01*
X114774342Y-95952278D01*
X114754881Y-95884001D01*
X114775423Y-95816041D01*
X114827627Y-95770805D01*
X114932690Y-95721814D01*
X114932695Y-95721811D01*
X114937677Y-95719488D01*
X115048270Y-95642050D01*
X115115270Y-95595136D01*
X115115273Y-95595134D01*
X115119781Y-95591977D01*
X115276977Y-95434781D01*
X115314510Y-95381179D01*
X115401331Y-95257185D01*
X115401334Y-95257180D01*
X115404488Y-95252676D01*
X115406811Y-95247694D01*
X115406814Y-95247689D01*
X115455805Y-95142627D01*
X115502723Y-95089342D01*
X115571000Y-95069881D01*
X115638960Y-95090423D01*
X115684195Y-95142627D01*
X115733186Y-95247689D01*
X115733189Y-95247694D01*
X115735512Y-95252676D01*
X115738666Y-95257180D01*
X115738669Y-95257185D01*
X115825491Y-95381179D01*
X115863023Y-95434781D01*
X116020219Y-95591977D01*
X116024727Y-95595134D01*
X116024730Y-95595136D01*
X116152771Y-95684791D01*
X116197099Y-95740248D01*
X116206500Y-95788004D01*
X116206500Y-104696233D01*
X116205973Y-104707416D01*
X116204298Y-104714909D01*
X116204547Y-104722835D01*
X116204547Y-104722836D01*
X116206438Y-104782986D01*
X116206500Y-104786945D01*
X116206500Y-104814856D01*
X116206997Y-104818790D01*
X116206997Y-104818791D01*
X116207005Y-104818856D01*
X116207938Y-104830693D01*
X116209327Y-104874889D01*
X116214978Y-104894339D01*
X116218987Y-104913700D01*
X116221526Y-104933797D01*
X116224445Y-104941168D01*
X116224445Y-104941170D01*
X116237804Y-104974912D01*
X116241649Y-104986142D01*
X116251771Y-105020983D01*
X116253982Y-105028593D01*
X116258015Y-105035412D01*
X116258017Y-105035417D01*
X116264293Y-105046028D01*
X116272988Y-105063776D01*
X116280448Y-105082617D01*
X116285110Y-105089033D01*
X116285110Y-105089034D01*
X116306436Y-105118387D01*
X116312952Y-105128307D01*
X116335458Y-105166362D01*
X116349779Y-105180683D01*
X116362619Y-105195716D01*
X116374528Y-105212107D01*
X116380634Y-105217158D01*
X116408605Y-105240298D01*
X116417384Y-105248288D01*
X117040143Y-105871047D01*
X117047687Y-105879337D01*
X117051800Y-105885818D01*
X117057577Y-105891243D01*
X117101467Y-105932458D01*
X117104309Y-105935213D01*
X117124031Y-105954935D01*
X117127155Y-105957358D01*
X117127159Y-105957362D01*
X117127224Y-105957412D01*
X117136245Y-105965117D01*
X117168479Y-105995386D01*
X117175427Y-105999205D01*
X117175429Y-105999207D01*
X117186232Y-106005146D01*
X117202759Y-106016002D01*
X117212498Y-106023557D01*
X117212500Y-106023558D01*
X117218760Y-106028414D01*
X117259340Y-106045974D01*
X117269988Y-106051191D01*
X117294776Y-106064818D01*
X117308740Y-106072495D01*
X117316416Y-106074466D01*
X117316419Y-106074467D01*
X117328362Y-106077533D01*
X117347067Y-106083937D01*
X117365655Y-106091981D01*
X117373478Y-106093220D01*
X117373488Y-106093223D01*
X117409324Y-106098899D01*
X117420944Y-106101305D01*
X117452759Y-106109473D01*
X117463770Y-106112300D01*
X117484024Y-106112300D01*
X117503734Y-106113851D01*
X117523743Y-106117020D01*
X117531635Y-106116274D01*
X117550380Y-106114502D01*
X117567762Y-106112859D01*
X117579619Y-106112300D01*
X126331233Y-106112300D01*
X126342416Y-106112827D01*
X126349909Y-106114502D01*
X126357835Y-106114253D01*
X126357836Y-106114253D01*
X126417986Y-106112362D01*
X126421945Y-106112300D01*
X126449856Y-106112300D01*
X126453791Y-106111803D01*
X126453856Y-106111795D01*
X126465693Y-106110862D01*
X126497951Y-106109848D01*
X126501970Y-106109722D01*
X126509889Y-106109473D01*
X126529343Y-106103821D01*
X126548700Y-106099813D01*
X126560930Y-106098268D01*
X126560931Y-106098268D01*
X126568797Y-106097274D01*
X126576168Y-106094355D01*
X126576170Y-106094355D01*
X126609912Y-106080996D01*
X126621142Y-106077151D01*
X126655983Y-106067029D01*
X126655984Y-106067029D01*
X126663593Y-106064818D01*
X126670412Y-106060785D01*
X126670417Y-106060783D01*
X126681028Y-106054507D01*
X126698776Y-106045812D01*
X126717617Y-106038352D01*
X126753387Y-106012364D01*
X126763307Y-106005848D01*
X126794535Y-105987380D01*
X126794538Y-105987378D01*
X126801362Y-105983342D01*
X126815683Y-105969021D01*
X126830717Y-105956180D01*
X126832431Y-105954935D01*
X126847107Y-105944272D01*
X126875298Y-105910195D01*
X126883288Y-105901416D01*
X127394005Y-105390699D01*
X127456317Y-105356673D01*
X127527132Y-105361738D01*
X127583968Y-105404285D01*
X127608779Y-105470805D01*
X127609100Y-105479794D01*
X127609100Y-105761457D01*
X127609400Y-105764513D01*
X127609400Y-105764520D01*
X127611399Y-105784904D01*
X127623635Y-105909694D01*
X127625416Y-105915593D01*
X127625417Y-105915598D01*
X127664729Y-106045806D01*
X127681252Y-106100532D01*
X127728045Y-106188538D01*
X127759928Y-106248500D01*
X127774839Y-106276544D01*
X127778729Y-106281314D01*
X127778732Y-106281318D01*
X127896937Y-106426251D01*
X127896940Y-106426254D01*
X127900832Y-106431026D01*
X128054430Y-106558094D01*
X128229785Y-106652908D01*
X128420215Y-106711856D01*
X128426340Y-106712500D01*
X128426341Y-106712500D01*
X128612340Y-106732049D01*
X128612342Y-106732049D01*
X128618469Y-106732693D01*
X128741348Y-106721510D01*
X128810854Y-106715185D01*
X128810855Y-106715185D01*
X128816995Y-106714626D01*
X128822909Y-106712885D01*
X128822911Y-106712885D01*
X129002311Y-106660084D01*
X129002310Y-106660084D01*
X129008230Y-106658342D01*
X129184891Y-106565986D01*
X129191063Y-106561024D01*
X129335449Y-106444934D01*
X129340249Y-106441075D01*
X129468386Y-106288367D01*
X129564421Y-106113679D01*
X129567548Y-106103822D01*
X129622834Y-105929542D01*
X129622835Y-105929539D01*
X129624698Y-105923665D01*
X129642100Y-105768516D01*
X129642100Y-105761457D01*
X130159100Y-105761457D01*
X130159400Y-105764513D01*
X130159400Y-105764520D01*
X130161399Y-105784904D01*
X130173635Y-105909694D01*
X130175416Y-105915593D01*
X130175417Y-105915598D01*
X130214729Y-106045806D01*
X130231252Y-106100532D01*
X130278045Y-106188538D01*
X130309928Y-106248500D01*
X130324839Y-106276544D01*
X130328729Y-106281314D01*
X130328732Y-106281318D01*
X130446937Y-106426251D01*
X130446940Y-106426254D01*
X130450832Y-106431026D01*
X130604430Y-106558094D01*
X130779785Y-106652908D01*
X130970215Y-106711856D01*
X130976340Y-106712500D01*
X130976341Y-106712500D01*
X131162340Y-106732049D01*
X131162342Y-106732049D01*
X131168469Y-106732693D01*
X131291348Y-106721510D01*
X131360854Y-106715185D01*
X131360855Y-106715185D01*
X131366995Y-106714626D01*
X131372909Y-106712885D01*
X131372911Y-106712885D01*
X131552311Y-106660084D01*
X131552310Y-106660084D01*
X131558230Y-106658342D01*
X131734891Y-106565986D01*
X131741063Y-106561024D01*
X131885449Y-106444934D01*
X131890249Y-106441075D01*
X132018386Y-106288367D01*
X132114421Y-106113679D01*
X132117548Y-106103822D01*
X132172834Y-105929542D01*
X132172835Y-105929539D01*
X132174698Y-105923665D01*
X132192100Y-105768516D01*
X132192100Y-104645143D01*
X132191754Y-104641609D01*
X132183029Y-104552633D01*
X132177565Y-104496906D01*
X132175784Y-104491007D01*
X132175783Y-104491002D01*
X132121729Y-104311967D01*
X132119948Y-104306068D01*
X132052002Y-104178279D01*
X132029255Y-104135498D01*
X132029253Y-104135495D01*
X132026361Y-104130056D01*
X132022471Y-104125286D01*
X132022468Y-104125282D01*
X131904263Y-103980349D01*
X131904260Y-103980346D01*
X131900368Y-103975574D01*
X131893991Y-103970298D01*
X131751519Y-103852435D01*
X131746770Y-103848506D01*
X131571415Y-103753692D01*
X131380985Y-103694744D01*
X131374860Y-103694100D01*
X131374859Y-103694100D01*
X131188860Y-103674551D01*
X131188858Y-103674551D01*
X131182731Y-103673907D01*
X131059852Y-103685090D01*
X130990346Y-103691415D01*
X130990345Y-103691415D01*
X130984205Y-103691974D01*
X130978291Y-103693715D01*
X130978289Y-103693715D01*
X130895257Y-103718153D01*
X130792970Y-103748258D01*
X130616309Y-103840614D01*
X130611509Y-103844474D01*
X130611508Y-103844474D01*
X130606641Y-103848387D01*
X130460951Y-103965525D01*
X130332814Y-104118233D01*
X130236779Y-104292921D01*
X130234918Y-104298788D01*
X130234917Y-104298790D01*
X130195130Y-104424214D01*
X130176502Y-104482935D01*
X130159100Y-104638084D01*
X130159100Y-105761457D01*
X129642100Y-105761457D01*
X129642100Y-104645143D01*
X129641754Y-104641609D01*
X129633029Y-104552633D01*
X129627565Y-104496906D01*
X129625784Y-104491007D01*
X129625783Y-104491002D01*
X129571729Y-104311967D01*
X129569948Y-104306068D01*
X129502002Y-104178279D01*
X129479255Y-104135498D01*
X129479253Y-104135495D01*
X129476361Y-104130056D01*
X129472471Y-104125286D01*
X129472468Y-104125282D01*
X129354263Y-103980349D01*
X129354260Y-103980346D01*
X129350368Y-103975574D01*
X129343991Y-103970298D01*
X129201519Y-103852435D01*
X129196770Y-103848506D01*
X129176341Y-103837460D01*
X129125932Y-103787465D01*
X129110555Y-103718153D01*
X129135091Y-103651531D01*
X129147175Y-103637529D01*
X135895225Y-96889480D01*
X135957537Y-96855454D01*
X136028352Y-96860519D01*
X136085188Y-96903066D01*
X136105557Y-96944262D01*
X136130620Y-97032833D01*
X136132754Y-97037408D01*
X136132756Y-97037415D01*
X136231038Y-97248181D01*
X136233175Y-97252763D01*
X136236017Y-97256944D01*
X136236017Y-97256945D01*
X136366727Y-97449279D01*
X136366730Y-97449283D01*
X136369573Y-97453466D01*
X136536305Y-97629781D01*
X136595343Y-97674919D01*
X136637309Y-97732181D01*
X136641654Y-97803045D01*
X136602137Y-97869527D01*
X136464141Y-97991186D01*
X136464138Y-97991189D01*
X136460344Y-97994534D01*
X136306317Y-98182050D01*
X136184251Y-98391779D01*
X136182437Y-98396505D01*
X136182435Y-98396509D01*
X136103713Y-98601588D01*
X136097288Y-98618327D01*
X136047664Y-98855864D01*
X136047435Y-98860913D01*
X136047434Y-98860919D01*
X136044088Y-98934614D01*
X136036656Y-99098279D01*
X136037237Y-99103299D01*
X136037237Y-99103303D01*
X136040376Y-99130430D01*
X136064547Y-99339336D01*
X136065926Y-99344210D01*
X136065927Y-99344214D01*
X136120614Y-99537474D01*
X136130620Y-99572833D01*
X136132754Y-99577408D01*
X136132756Y-99577415D01*
X136231038Y-99788181D01*
X136233175Y-99792763D01*
X136236017Y-99796944D01*
X136236017Y-99796945D01*
X136366727Y-99989279D01*
X136366730Y-99989283D01*
X136369573Y-99993466D01*
X136536305Y-100169781D01*
X136595343Y-100214919D01*
X136637309Y-100272181D01*
X136641654Y-100343045D01*
X136602137Y-100409527D01*
X136464141Y-100531186D01*
X136464138Y-100531189D01*
X136460344Y-100534534D01*
X136457134Y-100538442D01*
X136457133Y-100538443D01*
X136445632Y-100552445D01*
X136306317Y-100722050D01*
X136184251Y-100931779D01*
X136182437Y-100936505D01*
X136182435Y-100936509D01*
X136135751Y-101058127D01*
X136097288Y-101158327D01*
X136047664Y-101395864D01*
X136047435Y-101400913D01*
X136047434Y-101400919D01*
X136046961Y-101411346D01*
X136036656Y-101638279D01*
X136037237Y-101643299D01*
X136037237Y-101643303D01*
X136049716Y-101751158D01*
X136064547Y-101879336D01*
X136065926Y-101884210D01*
X136065927Y-101884214D01*
X136129242Y-102107964D01*
X136130620Y-102112833D01*
X136132754Y-102117408D01*
X136132756Y-102117415D01*
X136231023Y-102328148D01*
X136233175Y-102332763D01*
X136236017Y-102336944D01*
X136236017Y-102336945D01*
X136366727Y-102529279D01*
X136366730Y-102529283D01*
X136369573Y-102533466D01*
X136536305Y-102709781D01*
X136595343Y-102754919D01*
X136637309Y-102812181D01*
X136641654Y-102883045D01*
X136602137Y-102949527D01*
X136464141Y-103071186D01*
X136464138Y-103071189D01*
X136460344Y-103074534D01*
X136306317Y-103262050D01*
X136184251Y-103471779D01*
X136182437Y-103476505D01*
X136182435Y-103476509D01*
X136099103Y-103693598D01*
X136097288Y-103698327D01*
X136047664Y-103935864D01*
X136047435Y-103940913D01*
X136047434Y-103940919D01*
X136042411Y-104051538D01*
X136036656Y-104178279D01*
X136064547Y-104419336D01*
X136065926Y-104424210D01*
X136065927Y-104424214D01*
X136123442Y-104627466D01*
X136130620Y-104652833D01*
X136132754Y-104657408D01*
X136132756Y-104657415D01*
X136231038Y-104868181D01*
X136233175Y-104872763D01*
X136236017Y-104876944D01*
X136236017Y-104876945D01*
X136366727Y-105069279D01*
X136366730Y-105069283D01*
X136369573Y-105073466D01*
X136536305Y-105249781D01*
X136540331Y-105252859D01*
X136540332Y-105252860D01*
X136725062Y-105394097D01*
X136725066Y-105394100D01*
X136729082Y-105397170D01*
X136942944Y-105511842D01*
X137172388Y-105590846D01*
X137411512Y-105632150D01*
X137415471Y-105632330D01*
X137415473Y-105632330D01*
X137439163Y-105633406D01*
X137439184Y-105633406D01*
X137440583Y-105633470D01*
X138358907Y-105633470D01*
X138361415Y-105633268D01*
X138361420Y-105633268D01*
X138534773Y-105619321D01*
X138534778Y-105619320D01*
X138539814Y-105618915D01*
X138544722Y-105617710D01*
X138544725Y-105617709D01*
X138770560Y-105562238D01*
X138775474Y-105561031D01*
X138780126Y-105559056D01*
X138780130Y-105559055D01*
X138916246Y-105501277D01*
X138998849Y-105466214D01*
X139097190Y-105404285D01*
X139199911Y-105339598D01*
X139199914Y-105339596D01*
X139204190Y-105336903D01*
X139247865Y-105298399D01*
X139382419Y-105179774D01*
X139382422Y-105179771D01*
X139386216Y-105176426D01*
X139389425Y-105172520D01*
X139389434Y-105172510D01*
X139453492Y-105094524D01*
X139512186Y-105054581D01*
X139550856Y-105048500D01*
X139629687Y-105048500D01*
X139636139Y-105047128D01*
X139636144Y-105047128D01*
X139723342Y-105028593D01*
X139816488Y-105008794D01*
X139822519Y-105006109D01*
X139984922Y-104933803D01*
X139984924Y-104933802D01*
X139990952Y-104931118D01*
X140145453Y-104818866D01*
X140175984Y-104784958D01*
X140268821Y-104681852D01*
X140268822Y-104681851D01*
X140273240Y-104676944D01*
X140348253Y-104547018D01*
X140365423Y-104517279D01*
X140365424Y-104517278D01*
X140368727Y-104511556D01*
X140427742Y-104329928D01*
X140433757Y-104272703D01*
X142035743Y-104272703D01*
X142036302Y-104276947D01*
X142036302Y-104276951D01*
X142040912Y-104311967D01*
X142073268Y-104557734D01*
X142074401Y-104561874D01*
X142074401Y-104561876D01*
X142083849Y-104596413D01*
X142149129Y-104835036D01*
X142150813Y-104838984D01*
X142259811Y-105094524D01*
X142261923Y-105099476D01*
X142409561Y-105346161D01*
X142589313Y-105570528D01*
X142640730Y-105619321D01*
X142787263Y-105758375D01*
X142797851Y-105768423D01*
X143031317Y-105936186D01*
X143035112Y-105938195D01*
X143035113Y-105938196D01*
X143055388Y-105948931D01*
X143285392Y-106070712D01*
X143555373Y-106169511D01*
X143836264Y-106230755D01*
X143864841Y-106233004D01*
X144059282Y-106248307D01*
X144059291Y-106248307D01*
X144061739Y-106248500D01*
X144217271Y-106248500D01*
X144219407Y-106248354D01*
X144219418Y-106248354D01*
X144427548Y-106234165D01*
X144427554Y-106234164D01*
X144431825Y-106233873D01*
X144436020Y-106233004D01*
X144436022Y-106233004D01*
X144572583Y-106204724D01*
X144713342Y-106175574D01*
X144984343Y-106079607D01*
X145206164Y-105965117D01*
X145236005Y-105949715D01*
X145236006Y-105949715D01*
X145239812Y-105947750D01*
X145243313Y-105945289D01*
X145243317Y-105945287D01*
X145357417Y-105865096D01*
X145475023Y-105782441D01*
X145635335Y-105633470D01*
X145682479Y-105589661D01*
X145682481Y-105589658D01*
X145685622Y-105586740D01*
X145867713Y-105364268D01*
X146017927Y-105119142D01*
X146031144Y-105089034D01*
X146131757Y-104859830D01*
X146133483Y-104855898D01*
X146155337Y-104779181D01*
X146183061Y-104681852D01*
X146212244Y-104579406D01*
X146252751Y-104294784D01*
X146252790Y-104287526D01*
X146254235Y-104011583D01*
X146254235Y-104011576D01*
X146254257Y-104007297D01*
X146249564Y-103971645D01*
X146231937Y-103837760D01*
X146216732Y-103722266D01*
X146211985Y-103704912D01*
X146184120Y-103603056D01*
X146140871Y-103444964D01*
X146111334Y-103375715D01*
X146029763Y-103184476D01*
X146029761Y-103184472D01*
X146028077Y-103180524D01*
X145918903Y-102998107D01*
X145882643Y-102937521D01*
X145882640Y-102937517D01*
X145880439Y-102933839D01*
X145700687Y-102709472D01*
X145492149Y-102511577D01*
X145258683Y-102343814D01*
X145236843Y-102332250D01*
X145069336Y-102243560D01*
X145004608Y-102209288D01*
X144869617Y-102159888D01*
X144738658Y-102111964D01*
X144738656Y-102111963D01*
X144734627Y-102110489D01*
X144453736Y-102049245D01*
X144422685Y-102046801D01*
X144230718Y-102031693D01*
X144230709Y-102031693D01*
X144228261Y-102031500D01*
X144072729Y-102031500D01*
X144070593Y-102031646D01*
X144070582Y-102031646D01*
X143862452Y-102045835D01*
X143862446Y-102045836D01*
X143858175Y-102046127D01*
X143853980Y-102046996D01*
X143853978Y-102046996D01*
X143717416Y-102075277D01*
X143576658Y-102104426D01*
X143305657Y-102200393D01*
X143301848Y-102202359D01*
X143058072Y-102328181D01*
X143050188Y-102332250D01*
X143046687Y-102334711D01*
X143046683Y-102334713D01*
X143040905Y-102338774D01*
X142814977Y-102497559D01*
X142799892Y-102511577D01*
X142661936Y-102639774D01*
X142604378Y-102693260D01*
X142422287Y-102915732D01*
X142272073Y-103160858D01*
X142270347Y-103164791D01*
X142270346Y-103164792D01*
X142166559Y-103401226D01*
X142156517Y-103424102D01*
X142077756Y-103700594D01*
X142037249Y-103985216D01*
X142037227Y-103989505D01*
X142037226Y-103989512D01*
X142036211Y-104183303D01*
X142035743Y-104272703D01*
X140433757Y-104272703D01*
X140447704Y-104140000D01*
X140430708Y-103978288D01*
X140428432Y-103956635D01*
X140428432Y-103956633D01*
X140427742Y-103950072D01*
X140368727Y-103768444D01*
X140362155Y-103757060D01*
X140285528Y-103624339D01*
X140273240Y-103603056D01*
X140145453Y-103461134D01*
X140037607Y-103382779D01*
X139996294Y-103352763D01*
X139996293Y-103352762D01*
X139990952Y-103348882D01*
X139984924Y-103346198D01*
X139984922Y-103346197D01*
X139822519Y-103273891D01*
X139822518Y-103273891D01*
X139816488Y-103271206D01*
X139703907Y-103247276D01*
X139636144Y-103232872D01*
X139636139Y-103232872D01*
X139629687Y-103231500D01*
X139580258Y-103231500D01*
X139512137Y-103211498D01*
X139482062Y-103184453D01*
X139479828Y-103181675D01*
X139476987Y-103177494D01*
X139464976Y-103164792D01*
X139313735Y-103004859D01*
X139310255Y-103001179D01*
X139251217Y-102956041D01*
X139209251Y-102898779D01*
X139204906Y-102827915D01*
X139244423Y-102761433D01*
X139382419Y-102639774D01*
X139382422Y-102639771D01*
X139386216Y-102636426D01*
X139540243Y-102448910D01*
X139662309Y-102239181D01*
X139664491Y-102233498D01*
X139747457Y-102017362D01*
X139747458Y-102017359D01*
X139749272Y-102012633D01*
X139798896Y-101775096D01*
X139809904Y-101532681D01*
X139808810Y-101523220D01*
X139790763Y-101367249D01*
X139782013Y-101291624D01*
X139745698Y-101163287D01*
X139717318Y-101062996D01*
X139717317Y-101062994D01*
X139715940Y-101058127D01*
X139713806Y-101053552D01*
X139713804Y-101053545D01*
X139615522Y-100842779D01*
X139615520Y-100842775D01*
X139613385Y-100838197D01*
X139610543Y-100834015D01*
X139479833Y-100641681D01*
X139479830Y-100641677D01*
X139476987Y-100637494D01*
X139310255Y-100461179D01*
X139251217Y-100416041D01*
X139209251Y-100358779D01*
X139204906Y-100287915D01*
X139244423Y-100221433D01*
X139382419Y-100099774D01*
X139382422Y-100099771D01*
X139386216Y-100096426D01*
X139540243Y-99908910D01*
X139662309Y-99699181D01*
X139667169Y-99686522D01*
X139747457Y-99477362D01*
X139747458Y-99477359D01*
X139749272Y-99472633D01*
X139798896Y-99235096D01*
X139800820Y-99192742D01*
X139804881Y-99103303D01*
X139809904Y-98992681D01*
X139803186Y-98934614D01*
X139793501Y-98850910D01*
X139782013Y-98751624D01*
X139761116Y-98677773D01*
X139717318Y-98522996D01*
X139717317Y-98522994D01*
X139715940Y-98518127D01*
X139713806Y-98513552D01*
X139713804Y-98513545D01*
X139615522Y-98302779D01*
X139615520Y-98302775D01*
X139613385Y-98298197D01*
X139559853Y-98219427D01*
X139479833Y-98101681D01*
X139479830Y-98101677D01*
X139476987Y-98097494D01*
X139310255Y-97921179D01*
X139251217Y-97876041D01*
X139209251Y-97818779D01*
X139204906Y-97747915D01*
X139244423Y-97681433D01*
X139382419Y-97559774D01*
X139382422Y-97559771D01*
X139386216Y-97556426D01*
X139540243Y-97368910D01*
X139662309Y-97159181D01*
X139666885Y-97147262D01*
X139747457Y-96937362D01*
X139747458Y-96937359D01*
X139749272Y-96932633D01*
X139798896Y-96695096D01*
X139809904Y-96452681D01*
X139808611Y-96441500D01*
X139789553Y-96276791D01*
X139782013Y-96211624D01*
X139770938Y-96172484D01*
X139717318Y-95982996D01*
X139717317Y-95982994D01*
X139715940Y-95978127D01*
X139713806Y-95973552D01*
X139713804Y-95973545D01*
X139615522Y-95762779D01*
X139615520Y-95762775D01*
X139613385Y-95758197D01*
X139583608Y-95714382D01*
X139479833Y-95561681D01*
X139479830Y-95561677D01*
X139476987Y-95557494D01*
X139310255Y-95381179D01*
X139251217Y-95336041D01*
X139209251Y-95278779D01*
X139204906Y-95207915D01*
X139244423Y-95141433D01*
X139382419Y-95019774D01*
X139382422Y-95019771D01*
X139386216Y-95016426D01*
X139540243Y-94828910D01*
X139662309Y-94619181D01*
X139669661Y-94600030D01*
X139747457Y-94397362D01*
X139747458Y-94397359D01*
X139749272Y-94392633D01*
X139798896Y-94155096D01*
X139801047Y-94107740D01*
X139803337Y-94057296D01*
X139805496Y-94009744D01*
X139828567Y-93942601D01*
X139884276Y-93898590D01*
X139954936Y-93891684D01*
X140020461Y-93926365D01*
X147371343Y-101277247D01*
X147378887Y-101285537D01*
X147383000Y-101292018D01*
X147388777Y-101297443D01*
X147432667Y-101338658D01*
X147435509Y-101341413D01*
X147455230Y-101361134D01*
X147458425Y-101363612D01*
X147467447Y-101371318D01*
X147499679Y-101401586D01*
X147506628Y-101405406D01*
X147517432Y-101411346D01*
X147533956Y-101422199D01*
X147549959Y-101434613D01*
X147590543Y-101452176D01*
X147601173Y-101457383D01*
X147639940Y-101478695D01*
X147647617Y-101480666D01*
X147647622Y-101480668D01*
X147659558Y-101483732D01*
X147678266Y-101490137D01*
X147696855Y-101498181D01*
X147704683Y-101499421D01*
X147704690Y-101499423D01*
X147740524Y-101505099D01*
X147752144Y-101507505D01*
X147787289Y-101516528D01*
X147794970Y-101518500D01*
X147815224Y-101518500D01*
X147834934Y-101520051D01*
X147854943Y-101523220D01*
X147862835Y-101522474D01*
X147898961Y-101519059D01*
X147910819Y-101518500D01*
X149891144Y-101518500D01*
X149959265Y-101538502D01*
X150005758Y-101592158D01*
X150016471Y-101631496D01*
X150017474Y-101641166D01*
X150073450Y-101808946D01*
X150166522Y-101959348D01*
X150291697Y-102084305D01*
X150297927Y-102088145D01*
X150297928Y-102088146D01*
X150435090Y-102172694D01*
X150442262Y-102177115D01*
X150499335Y-102196045D01*
X150603611Y-102230632D01*
X150603613Y-102230632D01*
X150610139Y-102232797D01*
X150616975Y-102233497D01*
X150616978Y-102233498D01*
X150660031Y-102237909D01*
X150714600Y-102243500D01*
X152265400Y-102243500D01*
X152268646Y-102243163D01*
X152268650Y-102243163D01*
X152364308Y-102233238D01*
X152364312Y-102233237D01*
X152371166Y-102232526D01*
X152377702Y-102230345D01*
X152377704Y-102230345D01*
X152509806Y-102186272D01*
X152538946Y-102176550D01*
X152689348Y-102083478D01*
X152814305Y-101958303D01*
X152818146Y-101952072D01*
X152903275Y-101813968D01*
X152903276Y-101813966D01*
X152907115Y-101807738D01*
X152962797Y-101639861D01*
X152973500Y-101535400D01*
X152973500Y-100234600D01*
X152973163Y-100231350D01*
X152963238Y-100135692D01*
X152963237Y-100135688D01*
X152962526Y-100128834D01*
X152955764Y-100108564D01*
X152908868Y-99968002D01*
X152906550Y-99961054D01*
X152813478Y-99810652D01*
X152688303Y-99685695D01*
X152542660Y-99595919D01*
X152495168Y-99543148D01*
X152483744Y-99473076D01*
X152512018Y-99407952D01*
X152521805Y-99397490D01*
X152582766Y-99339336D01*
X152636135Y-99288424D01*
X152773754Y-99103458D01*
X152776388Y-99098279D01*
X152826648Y-98999423D01*
X152878240Y-98897949D01*
X152883545Y-98880866D01*
X152945024Y-98682871D01*
X152946607Y-98677773D01*
X152947916Y-98667897D01*
X152976198Y-98454511D01*
X152976198Y-98454506D01*
X152976898Y-98449226D01*
X152976190Y-98430353D01*
X152969656Y-98256331D01*
X152968249Y-98218842D01*
X152920907Y-97993209D01*
X152916521Y-97982103D01*
X152838185Y-97783744D01*
X152838184Y-97783742D01*
X152836224Y-97778779D01*
X152774012Y-97676256D01*
X152719390Y-97586243D01*
X152716623Y-97581683D01*
X152629755Y-97481576D01*
X152569023Y-97411588D01*
X152569021Y-97411586D01*
X152565523Y-97407555D01*
X152521684Y-97371609D01*
X152391373Y-97264760D01*
X152391367Y-97264756D01*
X152387245Y-97261376D01*
X152355750Y-97243448D01*
X152306445Y-97192368D01*
X152292583Y-97122738D01*
X152318566Y-97056667D01*
X152347716Y-97029427D01*
X152383642Y-97005240D01*
X152469319Y-96947559D01*
X152478275Y-96939016D01*
X152632278Y-96792103D01*
X152636135Y-96788424D01*
X152773754Y-96603458D01*
X152794807Y-96562051D01*
X152852967Y-96447657D01*
X152878240Y-96397949D01*
X152883545Y-96380866D01*
X152945024Y-96182871D01*
X152946607Y-96177773D01*
X152952416Y-96133944D01*
X152976198Y-95954511D01*
X152976198Y-95954506D01*
X152976898Y-95949226D01*
X152968249Y-95718842D01*
X152920907Y-95493209D01*
X152907177Y-95458443D01*
X152838185Y-95283744D01*
X152838184Y-95283742D01*
X152836224Y-95278779D01*
X152826677Y-95263045D01*
X152723311Y-95092704D01*
X152716623Y-95081683D01*
X152629755Y-94981576D01*
X152569023Y-94911588D01*
X152569021Y-94911586D01*
X152565523Y-94907555D01*
X152469609Y-94828910D01*
X152391373Y-94764760D01*
X152391367Y-94764756D01*
X152387245Y-94761376D01*
X152355750Y-94743448D01*
X152306445Y-94692368D01*
X152292583Y-94622738D01*
X152318566Y-94556667D01*
X152347716Y-94529427D01*
X152409303Y-94487964D01*
X152469319Y-94447559D01*
X152499124Y-94419127D01*
X152563453Y-94357759D01*
X152636135Y-94288424D01*
X152773754Y-94103458D01*
X152794807Y-94062051D01*
X152855538Y-93942601D01*
X152878240Y-93897949D01*
X152880186Y-93891684D01*
X152945024Y-93682871D01*
X152946607Y-93677773D01*
X152947916Y-93667897D01*
X152976198Y-93454511D01*
X152976198Y-93454506D01*
X152976898Y-93449226D01*
X152973702Y-93364080D01*
X152968449Y-93224173D01*
X152968249Y-93218842D01*
X152920907Y-92993209D01*
X152918948Y-92988248D01*
X152838185Y-92783744D01*
X152838184Y-92783742D01*
X152836224Y-92778779D01*
X152821223Y-92754057D01*
X152743955Y-92626724D01*
X152716623Y-92581683D01*
X152628191Y-92479774D01*
X152569023Y-92411588D01*
X152569021Y-92411586D01*
X152565523Y-92407555D01*
X152518842Y-92369279D01*
X152391373Y-92264760D01*
X152391367Y-92264756D01*
X152387245Y-92261376D01*
X152355750Y-92243448D01*
X152306445Y-92192368D01*
X152292583Y-92122738D01*
X152318566Y-92056667D01*
X152347716Y-92029427D01*
X152461485Y-91952833D01*
X152469319Y-91947559D01*
X152636135Y-91788424D01*
X152773754Y-91603458D01*
X152878240Y-91397949D01*
X152900679Y-91325686D01*
X152945024Y-91182871D01*
X152946607Y-91177773D01*
X152952056Y-91136657D01*
X152976198Y-90954511D01*
X152976198Y-90954506D01*
X152976898Y-90949226D01*
X152975163Y-90902996D01*
X152970414Y-90776502D01*
X152968249Y-90718842D01*
X152920907Y-90493209D01*
X152918948Y-90488248D01*
X152838185Y-90283744D01*
X152838184Y-90283742D01*
X152836224Y-90278779D01*
X152818474Y-90249527D01*
X152719390Y-90086243D01*
X152716623Y-90081683D01*
X152629755Y-89981576D01*
X152569023Y-89911588D01*
X152569021Y-89911586D01*
X152565523Y-89907555D01*
X152509515Y-89861631D01*
X152391373Y-89764760D01*
X152391367Y-89764756D01*
X152387245Y-89761376D01*
X152382609Y-89758737D01*
X152382606Y-89758735D01*
X152191529Y-89649968D01*
X152186886Y-89647325D01*
X151970175Y-89568663D01*
X151964926Y-89567714D01*
X151964923Y-89567713D01*
X151747392Y-89528377D01*
X151747385Y-89528376D01*
X151743308Y-89527639D01*
X151725586Y-89526803D01*
X151720644Y-89526570D01*
X151720637Y-89526570D01*
X151719156Y-89526500D01*
X151307110Y-89526500D01*
X151240191Y-89532178D01*
X151140591Y-89540629D01*
X151140587Y-89540630D01*
X151135280Y-89541080D01*
X151130125Y-89542418D01*
X151130119Y-89542419D01*
X150917297Y-89597657D01*
X150917293Y-89597658D01*
X150912128Y-89598999D01*
X150907262Y-89601191D01*
X150907259Y-89601192D01*
X150798980Y-89649968D01*
X150701925Y-89693688D01*
X150510681Y-89822441D01*
X150343865Y-89981576D01*
X150340682Y-89985854D01*
X150322880Y-90009781D01*
X150206246Y-90166542D01*
X150101760Y-90372051D01*
X150100178Y-90377145D01*
X150100177Y-90377148D01*
X150042763Y-90562050D01*
X150033393Y-90592227D01*
X150032692Y-90597516D01*
X150005915Y-90799551D01*
X150003102Y-90820774D01*
X150011751Y-91051158D01*
X150059093Y-91276791D01*
X150061051Y-91281750D01*
X150061052Y-91281752D01*
X150124939Y-91443522D01*
X150143776Y-91491221D01*
X150146543Y-91495780D01*
X150146544Y-91495783D01*
X150155020Y-91509751D01*
X150263377Y-91688317D01*
X150266874Y-91692347D01*
X150405963Y-91852633D01*
X150414477Y-91862445D01*
X150418608Y-91865832D01*
X150588627Y-92005240D01*
X150588633Y-92005244D01*
X150592755Y-92008624D01*
X150624250Y-92026552D01*
X150673555Y-92077632D01*
X150687417Y-92147262D01*
X150661434Y-92213333D01*
X150632284Y-92240573D01*
X150510681Y-92322441D01*
X150343865Y-92481576D01*
X150206246Y-92666542D01*
X150203830Y-92671293D01*
X150203828Y-92671297D01*
X150177518Y-92723045D01*
X150101760Y-92872051D01*
X150100178Y-92877145D01*
X150100177Y-92877148D01*
X150062358Y-92998946D01*
X150033393Y-93092227D01*
X150032692Y-93097516D01*
X150004875Y-93307400D01*
X150003102Y-93320774D01*
X150003302Y-93326103D01*
X150003302Y-93326105D01*
X150006709Y-93416852D01*
X150011751Y-93551158D01*
X150059093Y-93776791D01*
X150061051Y-93781750D01*
X150061052Y-93781752D01*
X150133112Y-93964217D01*
X150143776Y-93991221D01*
X150146543Y-93995780D01*
X150146544Y-93995783D01*
X150157128Y-94013225D01*
X150263377Y-94188317D01*
X150266874Y-94192347D01*
X150410411Y-94357759D01*
X150414477Y-94362445D01*
X150418608Y-94365832D01*
X150588627Y-94505240D01*
X150588633Y-94505244D01*
X150592755Y-94508624D01*
X150624250Y-94526552D01*
X150673555Y-94577632D01*
X150687417Y-94647262D01*
X150661434Y-94713333D01*
X150632284Y-94740573D01*
X150510681Y-94822441D01*
X150506824Y-94826120D01*
X150506822Y-94826122D01*
X150499807Y-94832814D01*
X150343865Y-94981576D01*
X150206246Y-95166542D01*
X150203830Y-95171293D01*
X150203828Y-95171297D01*
X150164989Y-95247689D01*
X150101760Y-95372051D01*
X150100178Y-95377145D01*
X150100177Y-95377148D01*
X150046998Y-95548412D01*
X150033393Y-95592227D01*
X150032692Y-95597516D01*
X150009725Y-95770805D01*
X150003102Y-95820774D01*
X150011751Y-96051158D01*
X150059093Y-96276791D01*
X150061051Y-96281750D01*
X150061052Y-96281752D01*
X150130552Y-96457735D01*
X150143776Y-96491221D01*
X150146543Y-96495780D01*
X150146544Y-96495783D01*
X150162642Y-96522311D01*
X150263377Y-96688317D01*
X150266874Y-96692347D01*
X150408411Y-96855454D01*
X150414477Y-96862445D01*
X150439276Y-96882779D01*
X150588627Y-97005240D01*
X150588633Y-97005244D01*
X150592755Y-97008624D01*
X150624250Y-97026552D01*
X150673555Y-97077632D01*
X150687417Y-97147262D01*
X150661434Y-97213333D01*
X150632284Y-97240573D01*
X150616602Y-97251130D01*
X150510681Y-97322441D01*
X150506824Y-97326120D01*
X150506822Y-97326122D01*
X150448482Y-97381776D01*
X150343865Y-97481576D01*
X150206246Y-97666542D01*
X150203830Y-97671294D01*
X150203825Y-97671302D01*
X150198078Y-97682606D01*
X150149375Y-97734263D01*
X150085762Y-97751500D01*
X147737394Y-97751500D01*
X147669273Y-97731498D01*
X147648299Y-97714595D01*
X139661234Y-89727529D01*
X139627208Y-89665217D01*
X139632273Y-89594402D01*
X139641426Y-89575061D01*
X139662309Y-89539181D01*
X139666457Y-89528377D01*
X139747457Y-89317362D01*
X139747458Y-89317359D01*
X139749272Y-89312633D01*
X139798896Y-89075096D01*
X139800879Y-89031443D01*
X139804149Y-88959422D01*
X139809904Y-88832681D01*
X139805336Y-88793196D01*
X139789943Y-88660162D01*
X139782013Y-88591624D01*
X139778502Y-88579214D01*
X139717318Y-88362996D01*
X139717317Y-88362994D01*
X139715940Y-88358127D01*
X139713806Y-88353552D01*
X139713804Y-88353545D01*
X139615522Y-88142779D01*
X139615520Y-88142775D01*
X139613385Y-88138197D01*
X139571029Y-88075872D01*
X139479833Y-87941681D01*
X139479830Y-87941677D01*
X139476987Y-87937494D01*
X139310255Y-87761179D01*
X139217204Y-87690036D01*
X139121498Y-87616863D01*
X139121494Y-87616860D01*
X139117478Y-87613790D01*
X138903616Y-87499118D01*
X138674172Y-87420114D01*
X138435048Y-87378810D01*
X138431089Y-87378630D01*
X138431087Y-87378630D01*
X138407397Y-87377554D01*
X138407376Y-87377554D01*
X138405977Y-87377490D01*
X137487653Y-87377490D01*
X137485145Y-87377692D01*
X137485140Y-87377692D01*
X137311787Y-87391639D01*
X137311782Y-87391640D01*
X137306746Y-87392045D01*
X137301838Y-87393250D01*
X137301835Y-87393251D01*
X137134284Y-87434406D01*
X137071086Y-87449929D01*
X137066434Y-87451904D01*
X137066430Y-87451905D01*
X136959084Y-87497471D01*
X136847711Y-87544746D01*
X136843427Y-87547444D01*
X136646649Y-87671362D01*
X136646646Y-87671364D01*
X136642370Y-87674057D01*
X136638576Y-87677402D01*
X136464141Y-87831186D01*
X136464138Y-87831189D01*
X136460344Y-87834534D01*
X136306317Y-88022050D01*
X136184251Y-88231779D01*
X136182437Y-88236505D01*
X136182435Y-88236509D01*
X136111161Y-88422186D01*
X136097288Y-88458327D01*
X136096252Y-88463285D01*
X136094825Y-88468135D01*
X136092685Y-88467505D01*
X136063604Y-88521870D01*
X136001587Y-88556430D01*
X135930731Y-88551974D01*
X135918898Y-88546385D01*
X135918641Y-88546186D01*
X135916668Y-88545332D01*
X135916657Y-88545327D01*
X135878063Y-88528626D01*
X135867413Y-88523409D01*
X135828660Y-88502105D01*
X135809037Y-88497067D01*
X135790334Y-88490663D01*
X135779020Y-88485767D01*
X135779019Y-88485767D01*
X135771745Y-88482619D01*
X135763922Y-88481380D01*
X135763912Y-88481377D01*
X135728076Y-88475701D01*
X135716456Y-88473295D01*
X135681311Y-88464272D01*
X135681310Y-88464272D01*
X135673630Y-88462300D01*
X135653376Y-88462300D01*
X135633665Y-88460749D01*
X135621486Y-88458820D01*
X135613657Y-88457580D01*
X135605765Y-88458326D01*
X135569639Y-88461741D01*
X135557781Y-88462300D01*
X132363201Y-88462300D01*
X132295080Y-88442298D01*
X132248587Y-88388642D01*
X132238505Y-88318220D01*
X132244032Y-88280098D01*
X132247544Y-88255878D01*
X132249030Y-88199113D01*
X132230868Y-88001455D01*
X132222056Y-87970208D01*
X132184894Y-87838443D01*
X132176990Y-87810417D01*
X132089200Y-87632397D01*
X131991462Y-87501510D01*
X131973891Y-87477980D01*
X131973891Y-87477979D01*
X131970438Y-87473356D01*
X131966202Y-87469440D01*
X131828923Y-87342541D01*
X131828921Y-87342539D01*
X131824682Y-87338621D01*
X131656813Y-87232703D01*
X131651453Y-87230565D01*
X131651450Y-87230563D01*
X131564634Y-87195927D01*
X131472454Y-87159151D01*
X131466797Y-87158026D01*
X131466791Y-87158024D01*
X131314353Y-87127703D01*
X142035743Y-87127703D01*
X142036302Y-87131947D01*
X142036302Y-87131951D01*
X142039132Y-87153445D01*
X142073268Y-87412734D01*
X142149129Y-87690036D01*
X142150813Y-87693984D01*
X142254680Y-87937494D01*
X142261923Y-87954476D01*
X142293485Y-88007212D01*
X142387911Y-88164986D01*
X142409561Y-88201161D01*
X142589313Y-88425528D01*
X142674030Y-88505921D01*
X142787442Y-88613545D01*
X142797851Y-88623423D01*
X143031317Y-88791186D01*
X143035112Y-88793195D01*
X143035113Y-88793196D01*
X143056869Y-88804715D01*
X143285392Y-88925712D01*
X143555373Y-89024511D01*
X143836264Y-89085755D01*
X143864841Y-89088004D01*
X144059282Y-89103307D01*
X144059291Y-89103307D01*
X144061739Y-89103500D01*
X144217271Y-89103500D01*
X144219407Y-89103354D01*
X144219418Y-89103354D01*
X144427548Y-89089165D01*
X144427554Y-89089164D01*
X144431825Y-89088873D01*
X144436020Y-89088004D01*
X144436022Y-89088004D01*
X144572584Y-89059723D01*
X144713342Y-89030574D01*
X144984343Y-88934607D01*
X145181822Y-88832681D01*
X145236005Y-88804715D01*
X145236006Y-88804715D01*
X145239812Y-88802750D01*
X145243313Y-88800289D01*
X145243317Y-88800287D01*
X145442694Y-88660162D01*
X145475023Y-88637441D01*
X145632975Y-88490663D01*
X145682479Y-88444661D01*
X145682481Y-88444658D01*
X145685622Y-88441740D01*
X145867713Y-88219268D01*
X146017927Y-87974142D01*
X146035629Y-87933817D01*
X146131757Y-87714830D01*
X146133483Y-87710898D01*
X146143978Y-87674057D01*
X146211068Y-87438534D01*
X146212244Y-87434406D01*
X146252751Y-87149784D01*
X146252829Y-87135057D01*
X146254235Y-86866583D01*
X146254235Y-86866576D01*
X146254257Y-86862297D01*
X146216732Y-86577266D01*
X146140871Y-86299964D01*
X146028077Y-86035524D01*
X145880439Y-85788839D01*
X145700687Y-85564472D01*
X145492149Y-85366577D01*
X145258683Y-85198814D01*
X145236843Y-85187250D01*
X145213654Y-85174972D01*
X145004608Y-85064288D01*
X144734627Y-84965489D01*
X144453736Y-84904245D01*
X144422685Y-84901801D01*
X144230718Y-84886693D01*
X144230709Y-84886693D01*
X144228261Y-84886500D01*
X144072729Y-84886500D01*
X144070593Y-84886646D01*
X144070582Y-84886646D01*
X143862452Y-84900835D01*
X143862446Y-84900836D01*
X143858175Y-84901127D01*
X143853980Y-84901996D01*
X143853978Y-84901996D01*
X143717416Y-84930277D01*
X143576658Y-84959426D01*
X143305657Y-85055393D01*
X143050188Y-85187250D01*
X143046687Y-85189711D01*
X143046683Y-85189713D01*
X143036594Y-85196804D01*
X142814977Y-85352559D01*
X142604378Y-85548260D01*
X142422287Y-85770732D01*
X142272073Y-86015858D01*
X142156517Y-86279102D01*
X142077756Y-86555594D01*
X142037249Y-86840216D01*
X142037227Y-86844505D01*
X142037226Y-86844512D01*
X142035775Y-87121555D01*
X142035743Y-87127703D01*
X131314353Y-87127703D01*
X131283444Y-87121555D01*
X131283442Y-87121555D01*
X131277777Y-87120428D01*
X131272002Y-87120352D01*
X131271998Y-87120352D01*
X131173041Y-87119057D01*
X131079304Y-87117830D01*
X131073607Y-87118809D01*
X131073606Y-87118809D01*
X130889378Y-87150465D01*
X130883681Y-87151444D01*
X130697459Y-87220145D01*
X130526875Y-87321631D01*
X130377642Y-87452505D01*
X130374067Y-87457040D01*
X130374066Y-87457041D01*
X130361204Y-87473356D01*
X130254758Y-87608383D01*
X130252069Y-87613494D01*
X130252067Y-87613497D01*
X130221623Y-87671362D01*
X130162338Y-87784044D01*
X130103478Y-87973606D01*
X130080148Y-88170721D01*
X130090323Y-88325948D01*
X130090461Y-88328059D01*
X130074958Y-88397342D01*
X130024458Y-88447245D01*
X129964731Y-88462300D01*
X129823201Y-88462300D01*
X129755080Y-88442298D01*
X129708587Y-88388642D01*
X129698505Y-88318220D01*
X129704032Y-88280098D01*
X129707544Y-88255878D01*
X129709030Y-88199113D01*
X129690868Y-88001455D01*
X129682056Y-87970208D01*
X129644894Y-87838443D01*
X129636990Y-87810417D01*
X129549200Y-87632397D01*
X129451462Y-87501510D01*
X129433891Y-87477980D01*
X129433891Y-87477979D01*
X129430438Y-87473356D01*
X129426202Y-87469440D01*
X129288923Y-87342541D01*
X129288921Y-87342539D01*
X129284682Y-87338621D01*
X129116813Y-87232703D01*
X129111453Y-87230565D01*
X129111450Y-87230563D01*
X129024634Y-87195927D01*
X128932454Y-87159151D01*
X128926797Y-87158026D01*
X128926791Y-87158024D01*
X128743444Y-87121555D01*
X128743442Y-87121555D01*
X128737777Y-87120428D01*
X128732002Y-87120352D01*
X128731998Y-87120352D01*
X128633041Y-87119057D01*
X128539304Y-87117830D01*
X128533607Y-87118809D01*
X128533606Y-87118809D01*
X128349378Y-87150465D01*
X128343681Y-87151444D01*
X128157459Y-87220145D01*
X127986875Y-87321631D01*
X127837642Y-87452505D01*
X127834067Y-87457040D01*
X127834066Y-87457041D01*
X127821204Y-87473356D01*
X127714758Y-87608383D01*
X127712069Y-87613494D01*
X127712067Y-87613497D01*
X127681623Y-87671362D01*
X127622338Y-87784044D01*
X127563478Y-87973606D01*
X127562800Y-87979334D01*
X127561849Y-87983808D01*
X127528120Y-88046281D01*
X127465970Y-88080601D01*
X127395131Y-88075872D01*
X127349510Y-88046706D01*
X126458041Y-87155236D01*
X126450512Y-87146962D01*
X126446400Y-87140482D01*
X126428228Y-87123417D01*
X126396749Y-87093857D01*
X126393907Y-87091102D01*
X126374170Y-87071365D01*
X126370973Y-87068885D01*
X126361951Y-87061180D01*
X126348522Y-87048569D01*
X126329721Y-87030914D01*
X126322775Y-87027095D01*
X126322772Y-87027093D01*
X126311966Y-87021152D01*
X126295447Y-87010301D01*
X126294983Y-87009941D01*
X126279441Y-86997886D01*
X126272172Y-86994741D01*
X126272168Y-86994738D01*
X126238863Y-86980326D01*
X126228213Y-86975109D01*
X126189460Y-86953805D01*
X126169837Y-86948767D01*
X126151134Y-86942363D01*
X126139820Y-86937467D01*
X126139819Y-86937467D01*
X126132545Y-86934319D01*
X126124722Y-86933080D01*
X126124712Y-86933077D01*
X126088876Y-86927401D01*
X126077256Y-86924995D01*
X126042111Y-86915972D01*
X126042110Y-86915972D01*
X126034430Y-86914000D01*
X126014176Y-86914000D01*
X125994465Y-86912449D01*
X125982286Y-86910520D01*
X125974457Y-86909280D01*
X125945186Y-86912047D01*
X125930439Y-86913441D01*
X125918581Y-86914000D01*
X116691467Y-86914000D01*
X116680284Y-86913473D01*
X116672791Y-86911798D01*
X116664865Y-86912047D01*
X116664864Y-86912047D01*
X116604701Y-86913938D01*
X116600743Y-86914000D01*
X116572844Y-86914000D01*
X116568854Y-86914504D01*
X116557020Y-86915436D01*
X116512811Y-86916826D01*
X116505197Y-86919038D01*
X116505192Y-86919039D01*
X116493359Y-86922477D01*
X116473996Y-86926488D01*
X116453903Y-86929026D01*
X116446536Y-86931943D01*
X116446531Y-86931944D01*
X116412792Y-86945302D01*
X116401565Y-86949146D01*
X116359107Y-86961482D01*
X116352281Y-86965519D01*
X116341672Y-86971793D01*
X116323924Y-86980488D01*
X116305083Y-86987948D01*
X116298667Y-86992610D01*
X116298666Y-86992610D01*
X116269313Y-87013936D01*
X116259393Y-87020452D01*
X116228165Y-87038920D01*
X116228162Y-87038922D01*
X116221338Y-87042958D01*
X116207017Y-87057279D01*
X116191984Y-87070119D01*
X116175593Y-87082028D01*
X116166917Y-87092516D01*
X116147402Y-87116105D01*
X116139412Y-87124884D01*
X111859700Y-91404595D01*
X111797388Y-91438621D01*
X111770605Y-91441500D01*
X103198856Y-91441500D01*
X103130735Y-91421498D01*
X103084242Y-91367842D01*
X103073529Y-91328504D01*
X103072526Y-91318834D01*
X103060155Y-91281752D01*
X103018868Y-91158002D01*
X103016550Y-91151054D01*
X102923478Y-91000652D01*
X102909402Y-90986600D01*
X102856549Y-90933839D01*
X102798303Y-90875695D01*
X102792072Y-90871854D01*
X102653968Y-90786725D01*
X102653966Y-90786724D01*
X102647738Y-90782885D01*
X102486428Y-90729381D01*
X102486389Y-90729368D01*
X102486387Y-90729368D01*
X102479861Y-90727203D01*
X102473025Y-90726503D01*
X102473022Y-90726502D01*
X102429969Y-90722091D01*
X102375400Y-90716500D01*
X100824600Y-90716500D01*
X100821354Y-90716837D01*
X100821350Y-90716837D01*
X100725692Y-90726762D01*
X100725688Y-90726763D01*
X100718834Y-90727474D01*
X100712298Y-90729655D01*
X100712296Y-90729655D01*
X100586036Y-90771779D01*
X100551054Y-90783450D01*
X100400652Y-90876522D01*
X100275695Y-91001697D01*
X100271855Y-91007927D01*
X100271854Y-91007928D01*
X100195607Y-91131624D01*
X100182885Y-91152262D01*
X100127203Y-91320139D01*
X100126503Y-91326975D01*
X100126502Y-91326978D01*
X100123790Y-91353452D01*
X100116500Y-91424600D01*
X100116500Y-92725400D01*
X100116837Y-92728646D01*
X100116837Y-92728650D01*
X100126487Y-92821651D01*
X100127474Y-92831166D01*
X100129655Y-92837702D01*
X100129655Y-92837704D01*
X100155288Y-92914534D01*
X100183450Y-92998946D01*
X100276522Y-93149348D01*
X100401697Y-93274305D01*
X100547340Y-93364081D01*
X100594832Y-93416852D01*
X100606256Y-93486924D01*
X100577982Y-93552048D01*
X100568195Y-93562510D01*
X100453865Y-93671576D01*
X100316246Y-93856542D01*
X100313830Y-93861293D01*
X100313828Y-93861297D01*
X100285134Y-93917735D01*
X100211760Y-94062051D01*
X100210178Y-94067145D01*
X100210177Y-94067148D01*
X100171302Y-94192347D01*
X100143393Y-94282227D01*
X100142692Y-94287516D01*
X100114873Y-94497415D01*
X100113102Y-94510774D01*
X100113302Y-94516103D01*
X100113302Y-94516105D01*
X100115349Y-94570637D01*
X100121751Y-94741158D01*
X100169093Y-94966791D01*
X100171051Y-94971750D01*
X100171052Y-94971752D01*
X100220054Y-95095831D01*
X100253776Y-95181221D01*
X100256543Y-95185780D01*
X100256544Y-95185783D01*
X100318998Y-95288703D01*
X100373377Y-95378317D01*
X100376874Y-95382347D01*
X100477604Y-95498428D01*
X100524477Y-95552445D01*
X100528608Y-95555832D01*
X100698627Y-95695240D01*
X100698633Y-95695244D01*
X100702755Y-95698624D01*
X100734250Y-95716552D01*
X100783555Y-95767632D01*
X100797417Y-95837262D01*
X100771434Y-95903333D01*
X100742284Y-95930573D01*
X100620681Y-96012441D01*
X100616824Y-96016120D01*
X100616822Y-96016122D01*
X100583211Y-96048186D01*
X100453865Y-96171576D01*
X100316246Y-96356542D01*
X100313830Y-96361293D01*
X100313828Y-96361297D01*
X100283221Y-96421498D01*
X100211760Y-96562051D01*
X100210178Y-96567145D01*
X100210177Y-96567148D01*
X100161438Y-96724114D01*
X100143393Y-96782227D01*
X100142692Y-96787516D01*
X100121917Y-96944268D01*
X100113102Y-97010774D01*
X100121751Y-97241158D01*
X100169093Y-97466791D01*
X100171051Y-97471750D01*
X100171052Y-97471752D01*
X100220191Y-97596178D01*
X100253776Y-97681221D01*
X100256543Y-97685780D01*
X100256544Y-97685783D01*
X100318382Y-97787689D01*
X100373377Y-97878317D01*
X100376874Y-97882347D01*
X100477617Y-97998443D01*
X100524477Y-98052445D01*
X100528608Y-98055832D01*
X100698627Y-98195240D01*
X100698633Y-98195244D01*
X100702755Y-98198624D01*
X100734250Y-98216552D01*
X100783555Y-98267632D01*
X100797417Y-98337262D01*
X100771434Y-98403333D01*
X100742284Y-98430573D01*
X100620681Y-98512441D01*
X100616824Y-98516120D01*
X100616822Y-98516122D01*
X100547464Y-98582287D01*
X100453865Y-98671576D01*
X100316246Y-98856542D01*
X100313830Y-98861293D01*
X100313828Y-98861297D01*
X100283221Y-98921498D01*
X100211760Y-99062051D01*
X100210178Y-99067145D01*
X100210177Y-99067148D01*
X100173969Y-99183757D01*
X100143393Y-99282227D01*
X100142692Y-99287516D01*
X100126730Y-99407952D01*
X100113102Y-99510774D01*
X90508500Y-99510774D01*
X90508500Y-87127703D01*
X105840743Y-87127703D01*
X105841302Y-87131947D01*
X105841302Y-87131951D01*
X105844132Y-87153445D01*
X105878268Y-87412734D01*
X105954129Y-87690036D01*
X105955813Y-87693984D01*
X106059680Y-87937494D01*
X106066923Y-87954476D01*
X106098485Y-88007212D01*
X106192911Y-88164986D01*
X106214561Y-88201161D01*
X106394313Y-88425528D01*
X106479030Y-88505921D01*
X106592442Y-88613545D01*
X106602851Y-88623423D01*
X106836317Y-88791186D01*
X106840112Y-88793195D01*
X106840113Y-88793196D01*
X106861869Y-88804715D01*
X107090392Y-88925712D01*
X107360373Y-89024511D01*
X107641264Y-89085755D01*
X107669841Y-89088004D01*
X107864282Y-89103307D01*
X107864291Y-89103307D01*
X107866739Y-89103500D01*
X108022271Y-89103500D01*
X108024407Y-89103354D01*
X108024418Y-89103354D01*
X108232548Y-89089165D01*
X108232554Y-89089164D01*
X108236825Y-89088873D01*
X108241020Y-89088004D01*
X108241022Y-89088004D01*
X108377584Y-89059723D01*
X108518342Y-89030574D01*
X108789343Y-88934607D01*
X108986822Y-88832681D01*
X109041005Y-88804715D01*
X109041006Y-88804715D01*
X109044812Y-88802750D01*
X109048313Y-88800289D01*
X109048317Y-88800287D01*
X109247694Y-88660162D01*
X109280023Y-88637441D01*
X109437975Y-88490663D01*
X109487479Y-88444661D01*
X109487481Y-88444658D01*
X109490622Y-88441740D01*
X109672713Y-88219268D01*
X109822927Y-87974142D01*
X109840629Y-87933817D01*
X109936757Y-87714830D01*
X109938483Y-87710898D01*
X109948978Y-87674057D01*
X110016068Y-87438534D01*
X110017244Y-87434406D01*
X110057751Y-87149784D01*
X110057829Y-87135057D01*
X110059235Y-86866583D01*
X110059235Y-86866576D01*
X110059257Y-86862297D01*
X110021732Y-86577266D01*
X109945871Y-86299964D01*
X109833077Y-86035524D01*
X109685439Y-85788839D01*
X109505687Y-85564472D01*
X109297149Y-85366577D01*
X109063683Y-85198814D01*
X109041843Y-85187250D01*
X109018654Y-85174972D01*
X108809608Y-85064288D01*
X108539627Y-84965489D01*
X108258736Y-84904245D01*
X108227685Y-84901801D01*
X108035718Y-84886693D01*
X108035709Y-84886693D01*
X108033261Y-84886500D01*
X107877729Y-84886500D01*
X107875593Y-84886646D01*
X107875582Y-84886646D01*
X107667452Y-84900835D01*
X107667446Y-84900836D01*
X107663175Y-84901127D01*
X107658980Y-84901996D01*
X107658978Y-84901996D01*
X107522417Y-84930276D01*
X107381658Y-84959426D01*
X107110657Y-85055393D01*
X106855188Y-85187250D01*
X106851687Y-85189711D01*
X106851683Y-85189713D01*
X106841594Y-85196804D01*
X106619977Y-85352559D01*
X106409378Y-85548260D01*
X106227287Y-85770732D01*
X106077073Y-86015858D01*
X105961517Y-86279102D01*
X105882756Y-86555594D01*
X105842249Y-86840216D01*
X105842227Y-86844505D01*
X105842226Y-86844512D01*
X105840775Y-87121555D01*
X105840743Y-87127703D01*
X90508500Y-87127703D01*
X90508500Y-83819500D01*
X90528502Y-83751379D01*
X90582158Y-83704886D01*
X90634500Y-83693500D01*
X162695500Y-83693500D01*
X162763621Y-83713502D01*
G37*
%TD.AperFunction*%
M02*
