%TF.GenerationSoftware,KiCad,Pcbnew,(6.0.7)*%
%TF.CreationDate,2023-03-01T00:53:14+09:00*%
%TF.ProjectId,joystick,6a6f7973-7469-4636-9b2e-6b696361645f,rev?*%
%TF.SameCoordinates,Original*%
%TF.FileFunction,Legend,Top*%
%TF.FilePolarity,Positive*%
%FSLAX46Y46*%
G04 Gerber Fmt 4.6, Leading zero omitted, Abs format (unit mm)*
G04 Created by KiCad (PCBNEW (6.0.7)) date 2023-03-01 00:53:14*
%MOMM*%
%LPD*%
G01*
G04 APERTURE LIST*
%ADD10C,0.150000*%
%ADD11C,0.101600*%
%ADD12C,0.076200*%
%ADD13C,0.120000*%
%ADD14C,0.127000*%
%ADD15C,0.066040*%
%ADD16C,0.254000*%
G04 APERTURE END LIST*
D10*
%TO.C,OFFSET1*%
X114974761Y-100782380D02*
X114403333Y-100782380D01*
X114689047Y-100782380D02*
X114689047Y-99782380D01*
X114593809Y-99925238D01*
X114498571Y-100020476D01*
X114403333Y-100068095D01*
X115593809Y-99782380D02*
X115689047Y-99782380D01*
X115784285Y-99830000D01*
X115831904Y-99877619D01*
X115879523Y-99972857D01*
X115927142Y-100163333D01*
X115927142Y-100401428D01*
X115879523Y-100591904D01*
X115831904Y-100687142D01*
X115784285Y-100734761D01*
X115689047Y-100782380D01*
X115593809Y-100782380D01*
X115498571Y-100734761D01*
X115450952Y-100687142D01*
X115403333Y-100591904D01*
X115355714Y-100401428D01*
X115355714Y-100163333D01*
X115403333Y-99972857D01*
X115450952Y-99877619D01*
X115498571Y-99830000D01*
X115593809Y-99782380D01*
X116355714Y-100782380D02*
X116355714Y-99782380D01*
X116450952Y-100401428D02*
X116736666Y-100782380D01*
X116736666Y-100115714D02*
X116355714Y-100496666D01*
%TO.C,J1*%
X162342380Y-96861190D02*
X161342380Y-96861190D01*
X162247142Y-95813571D02*
X162294761Y-95861190D01*
X162342380Y-96004047D01*
X162342380Y-96099285D01*
X162294761Y-96242142D01*
X162199523Y-96337380D01*
X162104285Y-96385000D01*
X161913809Y-96432619D01*
X161770952Y-96432619D01*
X161580476Y-96385000D01*
X161485238Y-96337380D01*
X161390000Y-96242142D01*
X161342380Y-96099285D01*
X161342380Y-96004047D01*
X161390000Y-95861190D01*
X161437619Y-95813571D01*
X162294761Y-95432619D02*
X162342380Y-95289761D01*
X162342380Y-95051666D01*
X162294761Y-94956428D01*
X162247142Y-94908809D01*
X162151904Y-94861190D01*
X162056666Y-94861190D01*
X161961428Y-94908809D01*
X161913809Y-94956428D01*
X161866190Y-95051666D01*
X161818571Y-95242142D01*
X161770952Y-95337380D01*
X161723333Y-95385000D01*
X161628095Y-95432619D01*
X161532857Y-95432619D01*
X161437619Y-95385000D01*
X161390000Y-95337380D01*
X161342380Y-95242142D01*
X161342380Y-95004047D01*
X161390000Y-94861190D01*
D11*
%TO.C,U1*%
X129582766Y-84735966D02*
X129582766Y-85455633D01*
X129625100Y-85540300D01*
X129667433Y-85582633D01*
X129752100Y-85624966D01*
X129921433Y-85624966D01*
X130006100Y-85582633D01*
X130048433Y-85540300D01*
X130090766Y-85455633D01*
X130090766Y-84735966D01*
X130979766Y-85624966D02*
X130471766Y-85624966D01*
X130725766Y-85624966D02*
X130725766Y-84735966D01*
X130641100Y-84862966D01*
X130556433Y-84947633D01*
X130471766Y-84989966D01*
D12*
X126593428Y-96455042D02*
X126680514Y-96484071D01*
X126825657Y-96484071D01*
X126883714Y-96455042D01*
X126912742Y-96426014D01*
X126941771Y-96367957D01*
X126941771Y-96309900D01*
X126912742Y-96251842D01*
X126883714Y-96222814D01*
X126825657Y-96193785D01*
X126709542Y-96164757D01*
X126651485Y-96135728D01*
X126622457Y-96106700D01*
X126593428Y-96048642D01*
X126593428Y-95990585D01*
X126622457Y-95932528D01*
X126651485Y-95903500D01*
X126709542Y-95874471D01*
X126854685Y-95874471D01*
X126941771Y-95903500D01*
X127435257Y-96455042D02*
X127377200Y-96484071D01*
X127261085Y-96484071D01*
X127203028Y-96455042D01*
X127174000Y-96396985D01*
X127174000Y-96164757D01*
X127203028Y-96106700D01*
X127261085Y-96077671D01*
X127377200Y-96077671D01*
X127435257Y-96106700D01*
X127464285Y-96164757D01*
X127464285Y-96222814D01*
X127174000Y-96280871D01*
X127957771Y-96455042D02*
X127899714Y-96484071D01*
X127783600Y-96484071D01*
X127725542Y-96455042D01*
X127696514Y-96396985D01*
X127696514Y-96164757D01*
X127725542Y-96106700D01*
X127783600Y-96077671D01*
X127899714Y-96077671D01*
X127957771Y-96106700D01*
X127986800Y-96164757D01*
X127986800Y-96222814D01*
X127696514Y-96280871D01*
X128480285Y-96455042D02*
X128422228Y-96484071D01*
X128306114Y-96484071D01*
X128248057Y-96455042D01*
X128219028Y-96396985D01*
X128219028Y-96164757D01*
X128248057Y-96106700D01*
X128306114Y-96077671D01*
X128422228Y-96077671D01*
X128480285Y-96106700D01*
X128509314Y-96164757D01*
X128509314Y-96222814D01*
X128219028Y-96280871D01*
X129031828Y-96484071D02*
X129031828Y-95874471D01*
X129031828Y-96455042D02*
X128973771Y-96484071D01*
X128857657Y-96484071D01*
X128799600Y-96455042D01*
X128770571Y-96426014D01*
X128741542Y-96367957D01*
X128741542Y-96193785D01*
X128770571Y-96135728D01*
X128799600Y-96106700D01*
X128857657Y-96077671D01*
X128973771Y-96077671D01*
X129031828Y-96106700D01*
X129583371Y-96077671D02*
X129583371Y-96484071D01*
X129322114Y-96077671D02*
X129322114Y-96396985D01*
X129351142Y-96455042D01*
X129409200Y-96484071D01*
X129496285Y-96484071D01*
X129554342Y-96455042D01*
X129583371Y-96426014D01*
X129873657Y-96484071D02*
X129873657Y-96077671D01*
X129873657Y-95874471D02*
X129844628Y-95903500D01*
X129873657Y-95932528D01*
X129902685Y-95903500D01*
X129873657Y-95874471D01*
X129873657Y-95932528D01*
X130163942Y-96077671D02*
X130163942Y-96484071D01*
X130163942Y-96135728D02*
X130192971Y-96106700D01*
X130251028Y-96077671D01*
X130338114Y-96077671D01*
X130396171Y-96106700D01*
X130425200Y-96164757D01*
X130425200Y-96484071D01*
X130802571Y-96484071D02*
X130744514Y-96455042D01*
X130715485Y-96426014D01*
X130686457Y-96367957D01*
X130686457Y-96193785D01*
X130715485Y-96135728D01*
X130744514Y-96106700D01*
X130802571Y-96077671D01*
X130889657Y-96077671D01*
X130947714Y-96106700D01*
X130976742Y-96135728D01*
X131005771Y-96193785D01*
X131005771Y-96367957D01*
X130976742Y-96426014D01*
X130947714Y-96455042D01*
X130889657Y-96484071D01*
X130802571Y-96484071D01*
X131208971Y-95874471D02*
X131615371Y-96484071D01*
X131615371Y-95874471D02*
X131208971Y-96484071D01*
X131847600Y-96484071D02*
X131847600Y-95874471D01*
X132108857Y-96309900D02*
X132399142Y-96309900D01*
X132050800Y-96484071D02*
X132254000Y-95874471D01*
X132457200Y-96484071D01*
X132776514Y-95874471D02*
X132892628Y-95874471D01*
X132950685Y-95903500D01*
X133008742Y-95961557D01*
X133037771Y-96077671D01*
X133037771Y-96280871D01*
X133008742Y-96396985D01*
X132950685Y-96455042D01*
X132892628Y-96484071D01*
X132776514Y-96484071D01*
X132718457Y-96455042D01*
X132660400Y-96396985D01*
X132631371Y-96280871D01*
X132631371Y-96077671D01*
X132660400Y-95961557D01*
X132718457Y-95903500D01*
X132776514Y-95874471D01*
D10*
%TO.C,J2*%
X91747619Y-93372619D02*
X91033333Y-93372619D01*
X90890476Y-93325000D01*
X90795238Y-93229761D01*
X90747619Y-93086904D01*
X90747619Y-92991666D01*
X90747619Y-93991666D02*
X90795238Y-93896428D01*
X90842857Y-93848809D01*
X90938095Y-93801190D01*
X91223809Y-93801190D01*
X91319047Y-93848809D01*
X91366666Y-93896428D01*
X91414285Y-93991666D01*
X91414285Y-94134523D01*
X91366666Y-94229761D01*
X91319047Y-94277380D01*
X91223809Y-94325000D01*
X90938095Y-94325000D01*
X90842857Y-94277380D01*
X90795238Y-94229761D01*
X90747619Y-94134523D01*
X90747619Y-93991666D01*
X91414285Y-94658333D02*
X90747619Y-94896428D01*
X91414285Y-95134523D02*
X90747619Y-94896428D01*
X90509523Y-94801190D01*
X90461904Y-94753571D01*
X90414285Y-94658333D01*
X90795238Y-95467857D02*
X90747619Y-95563095D01*
X90747619Y-95753571D01*
X90795238Y-95848809D01*
X90890476Y-95896428D01*
X90938095Y-95896428D01*
X91033333Y-95848809D01*
X91080952Y-95753571D01*
X91080952Y-95610714D01*
X91128571Y-95515476D01*
X91223809Y-95467857D01*
X91271428Y-95467857D01*
X91366666Y-95515476D01*
X91414285Y-95610714D01*
X91414285Y-95753571D01*
X91366666Y-95848809D01*
X91414285Y-96182142D02*
X91414285Y-96563095D01*
X91747619Y-96325000D02*
X90890476Y-96325000D01*
X90795238Y-96372619D01*
X90747619Y-96467857D01*
X90747619Y-96563095D01*
X90747619Y-96896428D02*
X91414285Y-96896428D01*
X91747619Y-96896428D02*
X91700000Y-96848809D01*
X91652380Y-96896428D01*
X91700000Y-96944047D01*
X91747619Y-96896428D01*
X91652380Y-96896428D01*
X90795238Y-97801190D02*
X90747619Y-97705952D01*
X90747619Y-97515476D01*
X90795238Y-97420238D01*
X90842857Y-97372619D01*
X90938095Y-97325000D01*
X91223809Y-97325000D01*
X91319047Y-97372619D01*
X91366666Y-97420238D01*
X91414285Y-97515476D01*
X91414285Y-97705952D01*
X91366666Y-97801190D01*
X90747619Y-98229761D02*
X91747619Y-98229761D01*
X91128571Y-98325000D02*
X90747619Y-98610714D01*
X91414285Y-98610714D02*
X91033333Y-98229761D01*
D13*
%TO.C,J1*%
X154690000Y-96135000D02*
X160190000Y-96135000D01*
X160190000Y-90635000D02*
X154690000Y-90635000D01*
X160800000Y-103445000D02*
X149080000Y-103445000D01*
X154690000Y-91135000D02*
X160190000Y-91135000D01*
X160190000Y-101135000D02*
X160190000Y-100635000D01*
X154690000Y-100635000D02*
X154690000Y-101135000D01*
X154690000Y-90635000D02*
X154690000Y-91135000D01*
X160800000Y-95885000D02*
X160800000Y-88325000D01*
X149390000Y-100585000D02*
X149990000Y-100885000D01*
X149080000Y-89745000D02*
X153580000Y-89745000D01*
X160190000Y-93135000D02*
X154690000Y-93135000D01*
X149080000Y-88325000D02*
X149080000Y-89745000D01*
X160800000Y-88325000D02*
X149080000Y-88325000D01*
X154690000Y-101135000D02*
X160190000Y-101135000D01*
X149080000Y-103445000D02*
X149080000Y-102025000D01*
X153580000Y-102025000D02*
X153580000Y-95885000D01*
X154690000Y-98135000D02*
X154690000Y-98635000D01*
X160190000Y-95635000D02*
X154690000Y-95635000D01*
X160190000Y-100635000D02*
X154690000Y-100635000D01*
X149080000Y-102025000D02*
X153580000Y-102025000D01*
X154690000Y-93135000D02*
X154690000Y-93635000D01*
X149390000Y-101185000D02*
X149390000Y-100585000D01*
X154690000Y-93635000D02*
X160190000Y-93635000D01*
X160190000Y-98635000D02*
X160190000Y-98135000D01*
X154690000Y-95635000D02*
X154690000Y-96135000D01*
X153580000Y-89745000D02*
X153580000Y-95885000D01*
X160190000Y-96135000D02*
X160190000Y-95635000D01*
X154690000Y-98635000D02*
X160190000Y-98635000D01*
X160190000Y-93635000D02*
X160190000Y-93135000D01*
X160190000Y-98135000D02*
X154690000Y-98135000D01*
X160800000Y-95885000D02*
X160800000Y-103445000D01*
X160190000Y-91135000D02*
X160190000Y-90635000D01*
X149990000Y-100885000D02*
X149390000Y-101185000D01*
D14*
%TO.C,U1*%
X138723380Y-86005120D02*
X121596160Y-86005120D01*
X121596160Y-86005120D02*
X120925600Y-86675680D01*
D15*
X124608600Y-85921300D02*
X126386600Y-85921300D01*
D14*
X125319800Y-91933480D02*
X125319800Y-84580180D01*
D15*
X133244600Y-88588300D02*
X135022600Y-88588300D01*
X124608600Y-92654840D02*
X124608600Y-89985300D01*
D14*
X125324880Y-84580180D02*
X134319020Y-84580180D01*
D15*
X126386600Y-92654840D02*
X126386600Y-89985300D01*
D14*
X134319020Y-91933480D02*
X125319800Y-91933480D01*
D15*
X127275600Y-106368300D02*
X132990600Y-106368300D01*
X127275600Y-106368300D02*
X127275600Y-103828300D01*
X127275600Y-89223300D02*
X127275600Y-86683300D01*
X133244600Y-85921300D02*
X135022600Y-85921300D01*
X132990600Y-106368300D02*
X132990600Y-103828300D01*
D14*
X134319020Y-84580180D02*
X134319020Y-91933480D01*
D15*
X127275600Y-103828300D02*
X132990600Y-103828300D01*
D14*
X120925600Y-107003300D02*
X138723380Y-107003300D01*
D15*
X135022600Y-88588300D02*
X135022600Y-85921300D01*
X124608600Y-88588300D02*
X124608600Y-85921300D01*
X127275600Y-86683300D02*
X132355600Y-86683300D01*
X133244600Y-89985300D02*
X135022600Y-89985300D01*
X124608600Y-89985300D02*
X126386600Y-89985300D01*
D14*
X120925600Y-86675680D02*
X120925600Y-107003300D01*
D15*
X132355600Y-89223300D02*
X132355600Y-86683300D01*
X124608600Y-92654840D02*
X126386600Y-92654840D01*
X133244600Y-92654840D02*
X133244600Y-89985300D01*
X126386600Y-88588300D02*
X126386600Y-85921300D01*
X133244600Y-88588300D02*
X133244600Y-85921300D01*
D14*
X138723380Y-107003300D02*
X138723380Y-86005120D01*
D15*
X133244600Y-92654840D02*
X135022600Y-92654840D01*
X135022600Y-92654840D02*
X135022600Y-89985300D01*
X127275600Y-89223300D02*
X132355600Y-89223300D01*
X124608600Y-88588300D02*
X126386600Y-88588300D01*
D16*
X120163600Y-88842300D02*
G75*
G03*
X120163600Y-88842300I-127000J0D01*
G01*
D13*
%TO.C,J2*%
X98400000Y-97325000D02*
X98400000Y-96825000D01*
X92900000Y-97325000D02*
X98400000Y-97325000D01*
X92290000Y-95825000D02*
X92290000Y-89515000D01*
X92900000Y-96825000D02*
X92900000Y-97325000D01*
X98400000Y-96825000D02*
X92900000Y-96825000D01*
X92900000Y-92325000D02*
X98400000Y-92325000D01*
X104010000Y-100715000D02*
X99510000Y-100715000D01*
X103700000Y-91775000D02*
X103700000Y-92375000D01*
X104010000Y-89515000D02*
X104010000Y-90935000D01*
X92290000Y-89515000D02*
X104010000Y-89515000D01*
X92900000Y-94325000D02*
X92900000Y-94825000D01*
X103700000Y-92375000D02*
X103100000Y-92075000D01*
X98400000Y-94825000D02*
X98400000Y-94325000D01*
X92290000Y-102135000D02*
X104010000Y-102135000D01*
X104010000Y-90935000D02*
X99510000Y-90935000D01*
X99510000Y-100715000D02*
X99510000Y-95825000D01*
X92900000Y-99825000D02*
X98400000Y-99825000D01*
X92900000Y-94825000D02*
X98400000Y-94825000D01*
X98400000Y-99325000D02*
X92900000Y-99325000D01*
X98400000Y-99825000D02*
X98400000Y-99325000D01*
X92290000Y-95825000D02*
X92290000Y-102135000D01*
X104010000Y-102135000D02*
X104010000Y-100715000D01*
X98400000Y-91825000D02*
X92900000Y-91825000D01*
X98400000Y-94325000D02*
X92900000Y-94325000D01*
X98400000Y-92325000D02*
X98400000Y-91825000D01*
X99510000Y-90935000D02*
X99510000Y-95825000D01*
X103100000Y-92075000D02*
X103700000Y-91775000D01*
X92900000Y-91825000D02*
X92900000Y-92325000D01*
X92900000Y-99325000D02*
X92900000Y-99825000D01*
%TD*%
M02*
