%TF.GenerationSoftware,KiCad,Pcbnew,(6.0.7)*%
%TF.CreationDate,2023-03-01T00:53:14+09:00*%
%TF.ProjectId,joystick,6a6f7973-7469-4636-9b2e-6b696361645f,rev?*%
%TF.SameCoordinates,Original*%
%TF.FileFunction,Copper,L2,Bot*%
%TF.FilePolarity,Positive*%
%FSLAX46Y46*%
G04 Gerber Fmt 4.6, Leading zero omitted, Abs format (unit mm)*
G04 Created by KiCad (PCBNEW (6.0.7)) date 2023-03-01 00:53:14*
%MOMM*%
%LPD*%
G01*
G04 APERTURE LIST*
G04 Aperture macros list*
%AMRoundRect*
0 Rectangle with rounded corners*
0 $1 Rounding radius*
0 $2 $3 $4 $5 $6 $7 $8 $9 X,Y pos of 4 corners*
0 Add a 4 corners polygon primitive as box body*
4,1,4,$2,$3,$4,$5,$6,$7,$8,$9,$2,$3,0*
0 Add four circle primitives for the rounded corners*
1,1,$1+$1,$2,$3*
1,1,$1+$1,$4,$5*
1,1,$1+$1,$6,$7*
1,1,$1+$1,$8,$9*
0 Add four rect primitives between the rounded corners*
20,1,$1+$1,$2,$3,$4,$5,0*
20,1,$1+$1,$4,$5,$6,$7,0*
20,1,$1+$1,$6,$7,$8,$9,0*
20,1,$1+$1,$8,$9,$2,$3,0*%
G04 Aperture macros list end*
%TA.AperFunction,ComponentPad*%
%ADD10C,1.524000*%
%TD*%
%TA.AperFunction,ComponentPad*%
%ADD11O,1.950000X1.700000*%
%TD*%
%TA.AperFunction,ComponentPad*%
%ADD12RoundRect,0.250000X0.725000X-0.600000X0.725000X0.600000X-0.725000X0.600000X-0.725000X-0.600000X0*%
%TD*%
%TA.AperFunction,ComponentPad*%
%ADD13RoundRect,0.250000X-0.725000X0.600000X-0.725000X-0.600000X0.725000X-0.600000X0.725000X0.600000X0*%
%TD*%
%TA.AperFunction,ViaPad*%
%ADD14C,0.800000*%
%TD*%
%TA.AperFunction,Conductor*%
%ADD15C,0.250000*%
%TD*%
G04 APERTURE END LIST*
D10*
%TO.P,OFFSET1,1,1*%
%TO.N,+3.3V*%
X116840000Y-94615000D03*
%TO.P,OFFSET1,2,2*%
%TO.N,Net-(OFFSET1-Pad2)*%
X114300000Y-94615000D03*
%TO.P,OFFSET1,3,3*%
%TO.N,GND*%
X114300000Y-97155000D03*
%TD*%
D11*
%TO.P,J1,5,Pin_5*%
%TO.N,/EN*%
X151490000Y-90885000D03*
%TO.P,J1,4,Pin_4*%
%TO.N,/IRXT*%
X151490000Y-93385000D03*
%TO.P,J1,3,Pin_3*%
%TO.N,/ITXR*%
X151490000Y-95885000D03*
%TO.P,J1,2,Pin_2*%
%TO.N,+5V*%
X151490000Y-98385000D03*
D12*
%TO.P,J1,1,Pin_1*%
%TO.N,GND*%
X151490000Y-100885000D03*
%TD*%
D13*
%TO.P,J2,1,Pin_1*%
%TO.N,GND*%
X101600000Y-92075000D03*
D11*
%TO.P,J2,2,Pin_2*%
%TO.N,+3.3V*%
X101600000Y-94575000D03*
%TO.P,J2,3,Pin_3*%
%TO.N,/X*%
X101600000Y-97075000D03*
%TO.P,J2,4,Pin_4*%
%TO.N,/Y*%
X101600000Y-99575000D03*
%TD*%
D14*
%TO.N,/EN*%
X118745000Y-96505500D03*
%TO.N,/IRXT*%
X118745000Y-102870000D03*
%TO.N,/ITXR*%
X139534200Y-104140000D03*
%TD*%
D15*
%TO.N,/ITXR*%
X139534200Y-104140000D02*
X139534200Y-100623600D01*
X144272800Y-95885000D02*
X151490000Y-95885000D01*
X139534200Y-100623600D02*
X144272800Y-95885000D01*
%TO.N,/IRXT*%
X141565000Y-93385000D02*
X151490000Y-93385000D01*
X119769900Y-101845100D02*
X133104900Y-101845100D01*
X133104900Y-101845100D02*
X141565000Y-93385000D01*
X118745000Y-102870000D02*
X119769900Y-101845100D01*
%TO.N,+3.3V*%
X115624900Y-93399900D02*
X116840000Y-94615000D01*
X101600000Y-94575000D02*
X102775100Y-93399900D01*
X102775100Y-93399900D02*
X115624900Y-93399900D01*
%TO.N,/EN*%
X151490000Y-92060100D02*
X151490000Y-90885000D01*
X138767600Y-92060100D02*
X151490000Y-92060100D01*
X134322200Y-96505500D02*
X138767600Y-92060100D01*
X118745000Y-96505500D02*
X134322200Y-96505500D01*
%TO.N,GND*%
X112970000Y-95825000D02*
X114300000Y-97155000D01*
X101046200Y-95825000D02*
X112970000Y-95825000D01*
X100283300Y-95062100D02*
X101046200Y-95825000D01*
X100283300Y-93391700D02*
X100283300Y-95062100D01*
X101600000Y-92075000D02*
X100283300Y-93391700D01*
%TD*%
%TA.AperFunction,NonConductor*%
G36*
X113044435Y-94053402D02*
G01*
X113090928Y-94107058D01*
X113101032Y-94177332D01*
X113098021Y-94192011D01*
X113044022Y-94393537D01*
X113024647Y-94615000D01*
X113044022Y-94836463D01*
X113095648Y-95029132D01*
X113093958Y-95100107D01*
X113054164Y-95158903D01*
X112985798Y-95187183D01*
X112958882Y-95189727D01*
X112946037Y-95190941D01*
X112934181Y-95191500D01*
X103127145Y-95191500D01*
X103059024Y-95171498D01*
X103012531Y-95117842D01*
X103002427Y-95047568D01*
X103006813Y-95028136D01*
X103055023Y-94872875D01*
X103055024Y-94872873D01*
X103056607Y-94867773D01*
X103071058Y-94758738D01*
X103086198Y-94644511D01*
X103086198Y-94644506D01*
X103086898Y-94639226D01*
X103078249Y-94408842D01*
X103031340Y-94185273D01*
X103036928Y-94114497D01*
X103079892Y-94057977D01*
X103146594Y-94033658D01*
X103154655Y-94033400D01*
X112976314Y-94033400D01*
X113044435Y-94053402D01*
G37*
%TD.AperFunction*%
%TA.AperFunction,NonConductor*%
G36*
X162763621Y-83713502D02*
G01*
X162810114Y-83767158D01*
X162821500Y-83819500D01*
X162821500Y-107550500D01*
X162801498Y-107618621D01*
X162747842Y-107665114D01*
X162695500Y-107676500D01*
X90634500Y-107676500D01*
X90566379Y-107656498D01*
X90519886Y-107602842D01*
X90508500Y-107550500D01*
X90508500Y-104272703D01*
X105840743Y-104272703D01*
X105878268Y-104557734D01*
X105954129Y-104835036D01*
X105955813Y-104838984D01*
X106045180Y-105048500D01*
X106066923Y-105099476D01*
X106214561Y-105346161D01*
X106394313Y-105570528D01*
X106602851Y-105768423D01*
X106836317Y-105936186D01*
X106840112Y-105938195D01*
X106840113Y-105938196D01*
X106861869Y-105949715D01*
X107090392Y-106070712D01*
X107360373Y-106169511D01*
X107641264Y-106230755D01*
X107669841Y-106233004D01*
X107864282Y-106248307D01*
X107864291Y-106248307D01*
X107866739Y-106248500D01*
X108022271Y-106248500D01*
X108024407Y-106248354D01*
X108024418Y-106248354D01*
X108232548Y-106234165D01*
X108232554Y-106234164D01*
X108236825Y-106233873D01*
X108241020Y-106233004D01*
X108241022Y-106233004D01*
X108377583Y-106204724D01*
X108518342Y-106175574D01*
X108789343Y-106079607D01*
X109044812Y-105947750D01*
X109048313Y-105945289D01*
X109048317Y-105945287D01*
X109162418Y-105865095D01*
X109280023Y-105782441D01*
X109490622Y-105586740D01*
X109672713Y-105364268D01*
X109822927Y-105119142D01*
X109938483Y-104855898D01*
X110017244Y-104579406D01*
X110057751Y-104294784D01*
X110057845Y-104276951D01*
X110059235Y-104011583D01*
X110059235Y-104011576D01*
X110059257Y-104007297D01*
X110021732Y-103722266D01*
X109945871Y-103444964D01*
X109833077Y-103180524D01*
X109685439Y-102933839D01*
X109634294Y-102870000D01*
X117831496Y-102870000D01*
X117851458Y-103059928D01*
X117910473Y-103241556D01*
X118005960Y-103406944D01*
X118010378Y-103411851D01*
X118010379Y-103411852D01*
X118040193Y-103444964D01*
X118133747Y-103548866D01*
X118288248Y-103661118D01*
X118294276Y-103663802D01*
X118294278Y-103663803D01*
X118456681Y-103736109D01*
X118462712Y-103738794D01*
X118556112Y-103758647D01*
X118643056Y-103777128D01*
X118643061Y-103777128D01*
X118649513Y-103778500D01*
X118840487Y-103778500D01*
X118846939Y-103777128D01*
X118846944Y-103777128D01*
X118933887Y-103758647D01*
X119027288Y-103738794D01*
X119033319Y-103736109D01*
X119195722Y-103663803D01*
X119195724Y-103663802D01*
X119201752Y-103661118D01*
X119356253Y-103548866D01*
X119449807Y-103444964D01*
X119479621Y-103411852D01*
X119479622Y-103411851D01*
X119484040Y-103406944D01*
X119579527Y-103241556D01*
X119638542Y-103059928D01*
X119655907Y-102894706D01*
X119682920Y-102829050D01*
X119692122Y-102818782D01*
X119995399Y-102515505D01*
X120057711Y-102481479D01*
X120084494Y-102478600D01*
X133026133Y-102478600D01*
X133037316Y-102479127D01*
X133044809Y-102480802D01*
X133052735Y-102480553D01*
X133052736Y-102480553D01*
X133112886Y-102478662D01*
X133116845Y-102478600D01*
X133144756Y-102478600D01*
X133148691Y-102478103D01*
X133148756Y-102478095D01*
X133160593Y-102477162D01*
X133192851Y-102476148D01*
X133196870Y-102476022D01*
X133204789Y-102475773D01*
X133224243Y-102470121D01*
X133243600Y-102466113D01*
X133255830Y-102464568D01*
X133255831Y-102464568D01*
X133263697Y-102463574D01*
X133271068Y-102460655D01*
X133271070Y-102460655D01*
X133304812Y-102447296D01*
X133316042Y-102443451D01*
X133350883Y-102433329D01*
X133350884Y-102433329D01*
X133358493Y-102431118D01*
X133365312Y-102427085D01*
X133365317Y-102427083D01*
X133375928Y-102420807D01*
X133393676Y-102412112D01*
X133412517Y-102404652D01*
X133448287Y-102378664D01*
X133458207Y-102372148D01*
X133489435Y-102353680D01*
X133489438Y-102353678D01*
X133496262Y-102349642D01*
X133510583Y-102335321D01*
X133525617Y-102322480D01*
X133535594Y-102315231D01*
X133542007Y-102310572D01*
X133570198Y-102276495D01*
X133578188Y-102267716D01*
X141790499Y-94055405D01*
X141852811Y-94021379D01*
X141879594Y-94018500D01*
X150089404Y-94018500D01*
X150157525Y-94038502D01*
X150197122Y-94079133D01*
X150263377Y-94188317D01*
X150266874Y-94192347D01*
X150353438Y-94292103D01*
X150414477Y-94362445D01*
X150418608Y-94365832D01*
X150588627Y-94505240D01*
X150588633Y-94505244D01*
X150592755Y-94508624D01*
X150624250Y-94526552D01*
X150673555Y-94577632D01*
X150687417Y-94647262D01*
X150661434Y-94713333D01*
X150632284Y-94740573D01*
X150510681Y-94822441D01*
X150506824Y-94826120D01*
X150506822Y-94826122D01*
X150495982Y-94836463D01*
X150343865Y-94981576D01*
X150340682Y-94985854D01*
X150309223Y-95028136D01*
X150206246Y-95166542D01*
X150203830Y-95171294D01*
X150203825Y-95171302D01*
X150198078Y-95182606D01*
X150149375Y-95234263D01*
X150085762Y-95251500D01*
X144351563Y-95251500D01*
X144340379Y-95250973D01*
X144332891Y-95249299D01*
X144324968Y-95249548D01*
X144264833Y-95251438D01*
X144260875Y-95251500D01*
X144232944Y-95251500D01*
X144229029Y-95251995D01*
X144229025Y-95251995D01*
X144228967Y-95252003D01*
X144228938Y-95252006D01*
X144217096Y-95252939D01*
X144172910Y-95254327D01*
X144155544Y-95259372D01*
X144153458Y-95259978D01*
X144134106Y-95263986D01*
X144121868Y-95265532D01*
X144121866Y-95265533D01*
X144114003Y-95266526D01*
X144072886Y-95282806D01*
X144061685Y-95286641D01*
X144019206Y-95298982D01*
X144012387Y-95303015D01*
X144012382Y-95303017D01*
X144001771Y-95309293D01*
X143984021Y-95317990D01*
X143965183Y-95325448D01*
X143930170Y-95350887D01*
X143929425Y-95351428D01*
X143919501Y-95357947D01*
X143888260Y-95376422D01*
X143888255Y-95376426D01*
X143881437Y-95380458D01*
X143867113Y-95394782D01*
X143852081Y-95407621D01*
X143835693Y-95419528D01*
X143823075Y-95434781D01*
X143807512Y-95453593D01*
X143799522Y-95462373D01*
X139141947Y-100119948D01*
X139133661Y-100127488D01*
X139127182Y-100131600D01*
X139121757Y-100137377D01*
X139080557Y-100181251D01*
X139077802Y-100184093D01*
X139058065Y-100203830D01*
X139055585Y-100207027D01*
X139047882Y-100216047D01*
X139017614Y-100248279D01*
X139013795Y-100255225D01*
X139013793Y-100255228D01*
X139007852Y-100266034D01*
X138997001Y-100282553D01*
X138984586Y-100298559D01*
X138981441Y-100305828D01*
X138981438Y-100305832D01*
X138967026Y-100339137D01*
X138961809Y-100349787D01*
X138940505Y-100388540D01*
X138938534Y-100396215D01*
X138938534Y-100396216D01*
X138935467Y-100408162D01*
X138929063Y-100426866D01*
X138921019Y-100445455D01*
X138919780Y-100453278D01*
X138919777Y-100453288D01*
X138914101Y-100489124D01*
X138911695Y-100500744D01*
X138900700Y-100543570D01*
X138900700Y-100563824D01*
X138899149Y-100583534D01*
X138895980Y-100603543D01*
X138899196Y-100637559D01*
X138900141Y-100647561D01*
X138900700Y-100659419D01*
X138900700Y-103437476D01*
X138880698Y-103505597D01*
X138868342Y-103521779D01*
X138795160Y-103603056D01*
X138699673Y-103768444D01*
X138640658Y-103950072D01*
X138620696Y-104140000D01*
X138640658Y-104329928D01*
X138699673Y-104511556D01*
X138795160Y-104676944D01*
X138922947Y-104818866D01*
X139077448Y-104931118D01*
X139083476Y-104933802D01*
X139083478Y-104933803D01*
X139245881Y-105006109D01*
X139251912Y-105008794D01*
X139345313Y-105028647D01*
X139432256Y-105047128D01*
X139432261Y-105047128D01*
X139438713Y-105048500D01*
X139629687Y-105048500D01*
X139636139Y-105047128D01*
X139636144Y-105047128D01*
X139723088Y-105028647D01*
X139816488Y-105008794D01*
X139822519Y-105006109D01*
X139984922Y-104933803D01*
X139984924Y-104933802D01*
X139990952Y-104931118D01*
X140145453Y-104818866D01*
X140273240Y-104676944D01*
X140368727Y-104511556D01*
X140427742Y-104329928D01*
X140433757Y-104272703D01*
X142035743Y-104272703D01*
X142073268Y-104557734D01*
X142149129Y-104835036D01*
X142150813Y-104838984D01*
X142240180Y-105048500D01*
X142261923Y-105099476D01*
X142409561Y-105346161D01*
X142589313Y-105570528D01*
X142797851Y-105768423D01*
X143031317Y-105936186D01*
X143035112Y-105938195D01*
X143035113Y-105938196D01*
X143056869Y-105949715D01*
X143285392Y-106070712D01*
X143555373Y-106169511D01*
X143836264Y-106230755D01*
X143864841Y-106233004D01*
X144059282Y-106248307D01*
X144059291Y-106248307D01*
X144061739Y-106248500D01*
X144217271Y-106248500D01*
X144219407Y-106248354D01*
X144219418Y-106248354D01*
X144427548Y-106234165D01*
X144427554Y-106234164D01*
X144431825Y-106233873D01*
X144436020Y-106233004D01*
X144436022Y-106233004D01*
X144572583Y-106204724D01*
X144713342Y-106175574D01*
X144984343Y-106079607D01*
X145239812Y-105947750D01*
X145243313Y-105945289D01*
X145243317Y-105945287D01*
X145357417Y-105865096D01*
X145475023Y-105782441D01*
X145685622Y-105586740D01*
X145867713Y-105364268D01*
X146017927Y-105119142D01*
X146133483Y-104855898D01*
X146212244Y-104579406D01*
X146252751Y-104294784D01*
X146252845Y-104276951D01*
X146254235Y-104011583D01*
X146254235Y-104011576D01*
X146254257Y-104007297D01*
X146216732Y-103722266D01*
X146140871Y-103444964D01*
X146028077Y-103180524D01*
X145880439Y-102933839D01*
X145700687Y-102709472D01*
X145577289Y-102592372D01*
X145495258Y-102514527D01*
X145495255Y-102514525D01*
X145492149Y-102511577D01*
X145272413Y-102353680D01*
X145262172Y-102346321D01*
X145262171Y-102346320D01*
X145258683Y-102343814D01*
X145236843Y-102332250D01*
X145184368Y-102304466D01*
X145004608Y-102209288D01*
X144734627Y-102110489D01*
X144453736Y-102049245D01*
X144422685Y-102046801D01*
X144230718Y-102031693D01*
X144230709Y-102031693D01*
X144228261Y-102031500D01*
X144072729Y-102031500D01*
X144070593Y-102031646D01*
X144070582Y-102031646D01*
X143862452Y-102045835D01*
X143862446Y-102045836D01*
X143858175Y-102046127D01*
X143853980Y-102046996D01*
X143853978Y-102046996D01*
X143717416Y-102075277D01*
X143576658Y-102104426D01*
X143305657Y-102200393D01*
X143301848Y-102202359D01*
X143058136Y-102328148D01*
X143050188Y-102332250D01*
X143046687Y-102334711D01*
X143046683Y-102334713D01*
X142953804Y-102399990D01*
X142814977Y-102497559D01*
X142604378Y-102693260D01*
X142422287Y-102915732D01*
X142272073Y-103160858D01*
X142156517Y-103424102D01*
X142077756Y-103700594D01*
X142037249Y-103985216D01*
X142037227Y-103989505D01*
X142037226Y-103989512D01*
X142035765Y-104268417D01*
X142035743Y-104272703D01*
X140433757Y-104272703D01*
X140447704Y-104140000D01*
X140427742Y-103950072D01*
X140368727Y-103768444D01*
X140273240Y-103603056D01*
X140200063Y-103521785D01*
X140169347Y-103457779D01*
X140167700Y-103437476D01*
X140167700Y-100938194D01*
X140187702Y-100870073D01*
X140204605Y-100849099D01*
X144498299Y-96555405D01*
X144560611Y-96521379D01*
X144587394Y-96518500D01*
X150089404Y-96518500D01*
X150157525Y-96538502D01*
X150197122Y-96579133D01*
X150263377Y-96688317D01*
X150266874Y-96692347D01*
X150390740Y-96835090D01*
X150414477Y-96862445D01*
X150439276Y-96882779D01*
X150588627Y-97005240D01*
X150588633Y-97005244D01*
X150592755Y-97008624D01*
X150624250Y-97026552D01*
X150673555Y-97077632D01*
X150687417Y-97147262D01*
X150661434Y-97213333D01*
X150632284Y-97240573D01*
X150510681Y-97322441D01*
X150506824Y-97326120D01*
X150506822Y-97326122D01*
X150448482Y-97381776D01*
X150343865Y-97481576D01*
X150206246Y-97666542D01*
X150203830Y-97671293D01*
X150203828Y-97671297D01*
X150196463Y-97685783D01*
X150101760Y-97872051D01*
X150100178Y-97877145D01*
X150100177Y-97877148D01*
X150046998Y-98048412D01*
X150033393Y-98092227D01*
X150032692Y-98097516D01*
X150011225Y-98259488D01*
X150003102Y-98320774D01*
X150011751Y-98551158D01*
X150059093Y-98776791D01*
X150061051Y-98781750D01*
X150061052Y-98781752D01*
X150133112Y-98964217D01*
X150143776Y-98991221D01*
X150263377Y-99188317D01*
X150266874Y-99192347D01*
X150353438Y-99292103D01*
X150414477Y-99362445D01*
X150450120Y-99391670D01*
X150490114Y-99450329D01*
X150492046Y-99521299D01*
X150455302Y-99582048D01*
X150436532Y-99596248D01*
X150375696Y-99633895D01*
X150290652Y-99686522D01*
X150165695Y-99811697D01*
X150161855Y-99817927D01*
X150161854Y-99817928D01*
X150127987Y-99872871D01*
X150072885Y-99962262D01*
X150046436Y-100042005D01*
X150029620Y-100092704D01*
X150017203Y-100130139D01*
X150006500Y-100234600D01*
X150006500Y-101535400D01*
X150017474Y-101641166D01*
X150073450Y-101808946D01*
X150166522Y-101959348D01*
X150291697Y-102084305D01*
X150297927Y-102088145D01*
X150297928Y-102088146D01*
X150435090Y-102172694D01*
X150442262Y-102177115D01*
X150499335Y-102196045D01*
X150603611Y-102230632D01*
X150603613Y-102230632D01*
X150610139Y-102232797D01*
X150616975Y-102233497D01*
X150616978Y-102233498D01*
X150660031Y-102237909D01*
X150714600Y-102243500D01*
X152265400Y-102243500D01*
X152268646Y-102243163D01*
X152268650Y-102243163D01*
X152364308Y-102233238D01*
X152364312Y-102233237D01*
X152371166Y-102232526D01*
X152377702Y-102230345D01*
X152377704Y-102230345D01*
X152509806Y-102186272D01*
X152538946Y-102176550D01*
X152689348Y-102083478D01*
X152814305Y-101958303D01*
X152907115Y-101807738D01*
X152962797Y-101639861D01*
X152973500Y-101535400D01*
X152973500Y-100234600D01*
X152971126Y-100211720D01*
X152963238Y-100135692D01*
X152963237Y-100135688D01*
X152962526Y-100128834D01*
X152959562Y-100119948D01*
X152908868Y-99968002D01*
X152906550Y-99961054D01*
X152813478Y-99810652D01*
X152688303Y-99685695D01*
X152542660Y-99595919D01*
X152495168Y-99543148D01*
X152483744Y-99473076D01*
X152512018Y-99407952D01*
X152521805Y-99397490D01*
X152632278Y-99292103D01*
X152636135Y-99288424D01*
X152773754Y-99103458D01*
X152794807Y-99062051D01*
X152875822Y-98902704D01*
X152878240Y-98897949D01*
X152891098Y-98856542D01*
X152945024Y-98682871D01*
X152946607Y-98677773D01*
X152947916Y-98667897D01*
X152976198Y-98454511D01*
X152976198Y-98454506D01*
X152976898Y-98449226D01*
X152976190Y-98430353D01*
X152969656Y-98256331D01*
X152968249Y-98218842D01*
X152920907Y-97993209D01*
X152916521Y-97982103D01*
X152838185Y-97783744D01*
X152838184Y-97783742D01*
X152836224Y-97778779D01*
X152774012Y-97676256D01*
X152719390Y-97586243D01*
X152716623Y-97581683D01*
X152629755Y-97481576D01*
X152569023Y-97411588D01*
X152569021Y-97411586D01*
X152565523Y-97407555D01*
X152521684Y-97371609D01*
X152391373Y-97264760D01*
X152391367Y-97264756D01*
X152387245Y-97261376D01*
X152355750Y-97243448D01*
X152306445Y-97192368D01*
X152292583Y-97122738D01*
X152318566Y-97056667D01*
X152347716Y-97029427D01*
X152375422Y-97010774D01*
X152469319Y-96947559D01*
X152478275Y-96939016D01*
X152562769Y-96858412D01*
X152636135Y-96788424D01*
X152773754Y-96603458D01*
X152794807Y-96562051D01*
X152842228Y-96468779D01*
X152878240Y-96397949D01*
X152891098Y-96356542D01*
X152945024Y-96182871D01*
X152946607Y-96177773D01*
X152952640Y-96132255D01*
X152976198Y-95954511D01*
X152976198Y-95954506D01*
X152976898Y-95949226D01*
X152968249Y-95718842D01*
X152920907Y-95493209D01*
X152896051Y-95430270D01*
X152838185Y-95283744D01*
X152838184Y-95283742D01*
X152836224Y-95278779D01*
X152830560Y-95269444D01*
X152726520Y-95097992D01*
X152716623Y-95081683D01*
X152671020Y-95029130D01*
X152569023Y-94911588D01*
X152569021Y-94911586D01*
X152565523Y-94907555D01*
X152472138Y-94830984D01*
X152391373Y-94764760D01*
X152391367Y-94764756D01*
X152387245Y-94761376D01*
X152355750Y-94743448D01*
X152306445Y-94692368D01*
X152292583Y-94622738D01*
X152318566Y-94556667D01*
X152347716Y-94529427D01*
X152383642Y-94505240D01*
X152469319Y-94447559D01*
X152504317Y-94414173D01*
X152632278Y-94292103D01*
X152636135Y-94288424D01*
X152773754Y-94103458D01*
X152798186Y-94055405D01*
X152875822Y-93902704D01*
X152878240Y-93897949D01*
X152946607Y-93677773D01*
X152968357Y-93513669D01*
X152976198Y-93454511D01*
X152976198Y-93454506D01*
X152976898Y-93449226D01*
X152973692Y-93363814D01*
X152968449Y-93224173D01*
X152968249Y-93218842D01*
X152920907Y-92993209D01*
X152918948Y-92988248D01*
X152838185Y-92783744D01*
X152838184Y-92783742D01*
X152836224Y-92778779D01*
X152828713Y-92766400D01*
X152719390Y-92586243D01*
X152716623Y-92581683D01*
X152565523Y-92407555D01*
X152523970Y-92373484D01*
X152391373Y-92264760D01*
X152391367Y-92264756D01*
X152387245Y-92261376D01*
X152355750Y-92243448D01*
X152306445Y-92192368D01*
X152292583Y-92122738D01*
X152318566Y-92056667D01*
X152347716Y-92029427D01*
X152363398Y-92018870D01*
X152469319Y-91947559D01*
X152636135Y-91788424D01*
X152773754Y-91603458D01*
X152778244Y-91594628D01*
X152834290Y-91484393D01*
X152878240Y-91397949D01*
X152946607Y-91177773D01*
X152969944Y-91001697D01*
X152976198Y-90954511D01*
X152976198Y-90954506D01*
X152976898Y-90949226D01*
X152968249Y-90718842D01*
X152920907Y-90493209D01*
X152836224Y-90278779D01*
X152716623Y-90081683D01*
X152629755Y-89981576D01*
X152569023Y-89911588D01*
X152569021Y-89911586D01*
X152565523Y-89907555D01*
X152523970Y-89873484D01*
X152391373Y-89764760D01*
X152391367Y-89764756D01*
X152387245Y-89761376D01*
X152382609Y-89758737D01*
X152382606Y-89758735D01*
X152191529Y-89649968D01*
X152186886Y-89647325D01*
X151970175Y-89568663D01*
X151964926Y-89567714D01*
X151964923Y-89567713D01*
X151747392Y-89528377D01*
X151747385Y-89528376D01*
X151743308Y-89527639D01*
X151725586Y-89526803D01*
X151720644Y-89526570D01*
X151720637Y-89526570D01*
X151719156Y-89526500D01*
X151307110Y-89526500D01*
X151240191Y-89532178D01*
X151140591Y-89540629D01*
X151140587Y-89540630D01*
X151135280Y-89541080D01*
X151130125Y-89542418D01*
X151130119Y-89542419D01*
X150917297Y-89597657D01*
X150917293Y-89597658D01*
X150912128Y-89598999D01*
X150907262Y-89601191D01*
X150907259Y-89601192D01*
X150798980Y-89649968D01*
X150701925Y-89693688D01*
X150510681Y-89822441D01*
X150343865Y-89981576D01*
X150206246Y-90166542D01*
X150101760Y-90372051D01*
X150100178Y-90377145D01*
X150100177Y-90377148D01*
X150038115Y-90577020D01*
X150033393Y-90592227D01*
X150032692Y-90597516D01*
X150007538Y-90787306D01*
X150003102Y-90820774D01*
X150011751Y-91051158D01*
X150037208Y-91172484D01*
X150058660Y-91274726D01*
X150053072Y-91345503D01*
X150010108Y-91402023D01*
X149943406Y-91426342D01*
X149935345Y-91426600D01*
X138846367Y-91426600D01*
X138835184Y-91426073D01*
X138827691Y-91424398D01*
X138819765Y-91424647D01*
X138819764Y-91424647D01*
X138759601Y-91426538D01*
X138755643Y-91426600D01*
X138727744Y-91426600D01*
X138723754Y-91427104D01*
X138711920Y-91428036D01*
X138667711Y-91429426D01*
X138660097Y-91431638D01*
X138660092Y-91431639D01*
X138648259Y-91435077D01*
X138628896Y-91439088D01*
X138608803Y-91441626D01*
X138601436Y-91444543D01*
X138601431Y-91444544D01*
X138567692Y-91457902D01*
X138556465Y-91461746D01*
X138514007Y-91474082D01*
X138507181Y-91478119D01*
X138496572Y-91484393D01*
X138478824Y-91493088D01*
X138459983Y-91500548D01*
X138453567Y-91505210D01*
X138453566Y-91505210D01*
X138424213Y-91526536D01*
X138414293Y-91533052D01*
X138383065Y-91551520D01*
X138383062Y-91551522D01*
X138376238Y-91555558D01*
X138361917Y-91569879D01*
X138346884Y-91582719D01*
X138330493Y-91594628D01*
X138325442Y-91600734D01*
X138302302Y-91628705D01*
X138294312Y-91637484D01*
X134096700Y-95835095D01*
X134034388Y-95869121D01*
X134007605Y-95872000D01*
X119453200Y-95872000D01*
X119385079Y-95851998D01*
X119365853Y-95835657D01*
X119365580Y-95835960D01*
X119360668Y-95831537D01*
X119356253Y-95826634D01*
X119215228Y-95724173D01*
X119207094Y-95718263D01*
X119207093Y-95718262D01*
X119201752Y-95714382D01*
X119195724Y-95711698D01*
X119195722Y-95711697D01*
X119033319Y-95639391D01*
X119033318Y-95639391D01*
X119027288Y-95636706D01*
X118933888Y-95616853D01*
X118846944Y-95598372D01*
X118846939Y-95598372D01*
X118840487Y-95597000D01*
X118649513Y-95597000D01*
X118643061Y-95598372D01*
X118643056Y-95598372D01*
X118556113Y-95616853D01*
X118462712Y-95636706D01*
X118456682Y-95639391D01*
X118456681Y-95639391D01*
X118294278Y-95711697D01*
X118294276Y-95711698D01*
X118288248Y-95714382D01*
X118133747Y-95826634D01*
X118129326Y-95831544D01*
X118129325Y-95831545D01*
X118068569Y-95899022D01*
X118005960Y-95968556D01*
X117910473Y-96133944D01*
X117851458Y-96315572D01*
X117850768Y-96322133D01*
X117850768Y-96322135D01*
X117849393Y-96335219D01*
X117831496Y-96505500D01*
X117832186Y-96512065D01*
X117850711Y-96688317D01*
X117851458Y-96695428D01*
X117910473Y-96877056D01*
X117913776Y-96882778D01*
X117913777Y-96882779D01*
X117939953Y-96928116D01*
X118005960Y-97042444D01*
X118010378Y-97047351D01*
X118010379Y-97047352D01*
X118092452Y-97138503D01*
X118133747Y-97184366D01*
X118288248Y-97296618D01*
X118294276Y-97299302D01*
X118294278Y-97299303D01*
X118456681Y-97371609D01*
X118462712Y-97374294D01*
X118556112Y-97394147D01*
X118643056Y-97412628D01*
X118643061Y-97412628D01*
X118649513Y-97414000D01*
X118840487Y-97414000D01*
X118846939Y-97412628D01*
X118846944Y-97412628D01*
X118933888Y-97394147D01*
X119027288Y-97374294D01*
X119033319Y-97371609D01*
X119195722Y-97299303D01*
X119195724Y-97299302D01*
X119201752Y-97296618D01*
X119356253Y-97184366D01*
X119360668Y-97179463D01*
X119365580Y-97175040D01*
X119366705Y-97176289D01*
X119420014Y-97143449D01*
X119453200Y-97139000D01*
X134243433Y-97139000D01*
X134254616Y-97139527D01*
X134262109Y-97141202D01*
X134270035Y-97140953D01*
X134270036Y-97140953D01*
X134330186Y-97139062D01*
X134334145Y-97139000D01*
X134362056Y-97139000D01*
X134365991Y-97138503D01*
X134366056Y-97138495D01*
X134377893Y-97137562D01*
X134410151Y-97136548D01*
X134414170Y-97136422D01*
X134422089Y-97136173D01*
X134441543Y-97130521D01*
X134460900Y-97126513D01*
X134473130Y-97124968D01*
X134473131Y-97124968D01*
X134480997Y-97123974D01*
X134488368Y-97121055D01*
X134488370Y-97121055D01*
X134522112Y-97107696D01*
X134533342Y-97103851D01*
X134568183Y-97093729D01*
X134568184Y-97093729D01*
X134575793Y-97091518D01*
X134582612Y-97087485D01*
X134582617Y-97087483D01*
X134593228Y-97081207D01*
X134610976Y-97072512D01*
X134629817Y-97065052D01*
X134665587Y-97039064D01*
X134675507Y-97032548D01*
X134706735Y-97014080D01*
X134706738Y-97014078D01*
X134713562Y-97010042D01*
X134727883Y-96995721D01*
X134742917Y-96982880D01*
X134752894Y-96975631D01*
X134759307Y-96970972D01*
X134787498Y-96936895D01*
X134795488Y-96928116D01*
X138993100Y-92730505D01*
X139055412Y-92696479D01*
X139082195Y-92693600D01*
X141051694Y-92693600D01*
X141119815Y-92713602D01*
X141166308Y-92767258D01*
X141176412Y-92837532D01*
X141146918Y-92902112D01*
X141137946Y-92911451D01*
X141134308Y-92914867D01*
X141127893Y-92919528D01*
X141122840Y-92925636D01*
X141122839Y-92925637D01*
X141099712Y-92953593D01*
X141091722Y-92962373D01*
X132879400Y-101174695D01*
X132817088Y-101208721D01*
X132790305Y-101211600D01*
X119848663Y-101211600D01*
X119837479Y-101211073D01*
X119829991Y-101209399D01*
X119822068Y-101209648D01*
X119761933Y-101211538D01*
X119757975Y-101211600D01*
X119730044Y-101211600D01*
X119726129Y-101212095D01*
X119726125Y-101212095D01*
X119726067Y-101212103D01*
X119726038Y-101212106D01*
X119714196Y-101213039D01*
X119670010Y-101214427D01*
X119652644Y-101219472D01*
X119650558Y-101220078D01*
X119631206Y-101224086D01*
X119618968Y-101225632D01*
X119618966Y-101225633D01*
X119611103Y-101226626D01*
X119569986Y-101242906D01*
X119558785Y-101246741D01*
X119516306Y-101259082D01*
X119509487Y-101263115D01*
X119509482Y-101263117D01*
X119498871Y-101269393D01*
X119481121Y-101278090D01*
X119462283Y-101285548D01*
X119455867Y-101290209D01*
X119455866Y-101290210D01*
X119426525Y-101311528D01*
X119416601Y-101318047D01*
X119385360Y-101336522D01*
X119385355Y-101336526D01*
X119378537Y-101340558D01*
X119364213Y-101354882D01*
X119349181Y-101367721D01*
X119332793Y-101379628D01*
X119304612Y-101413693D01*
X119296622Y-101422473D01*
X118794500Y-101924595D01*
X118732188Y-101958621D01*
X118705405Y-101961500D01*
X118649513Y-101961500D01*
X118643061Y-101962872D01*
X118643056Y-101962872D01*
X118556112Y-101981353D01*
X118462712Y-102001206D01*
X118456682Y-102003891D01*
X118456681Y-102003891D01*
X118294278Y-102076197D01*
X118294276Y-102076198D01*
X118288248Y-102078882D01*
X118282907Y-102082762D01*
X118282906Y-102082763D01*
X118275497Y-102088146D01*
X118133747Y-102191134D01*
X118129326Y-102196044D01*
X118129325Y-102196045D01*
X118015483Y-102322480D01*
X118005960Y-102333056D01*
X117996384Y-102349642D01*
X117920659Y-102480802D01*
X117910473Y-102498444D01*
X117851458Y-102680072D01*
X117831496Y-102870000D01*
X109634294Y-102870000D01*
X109505687Y-102709472D01*
X109382289Y-102592372D01*
X109300258Y-102514527D01*
X109300255Y-102514525D01*
X109297149Y-102511577D01*
X109077413Y-102353680D01*
X109067172Y-102346321D01*
X109067171Y-102346320D01*
X109063683Y-102343814D01*
X109041843Y-102332250D01*
X108989368Y-102304466D01*
X108809608Y-102209288D01*
X108539627Y-102110489D01*
X108258736Y-102049245D01*
X108227685Y-102046801D01*
X108035718Y-102031693D01*
X108035709Y-102031693D01*
X108033261Y-102031500D01*
X107877729Y-102031500D01*
X107875593Y-102031646D01*
X107875582Y-102031646D01*
X107667452Y-102045835D01*
X107667446Y-102045836D01*
X107663175Y-102046127D01*
X107658980Y-102046996D01*
X107658978Y-102046996D01*
X107522416Y-102075277D01*
X107381658Y-102104426D01*
X107110657Y-102200393D01*
X107106848Y-102202359D01*
X106863136Y-102328148D01*
X106855188Y-102332250D01*
X106851687Y-102334711D01*
X106851683Y-102334713D01*
X106758804Y-102399990D01*
X106619977Y-102497559D01*
X106409378Y-102693260D01*
X106227287Y-102915732D01*
X106077073Y-103160858D01*
X105961517Y-103424102D01*
X105882756Y-103700594D01*
X105842249Y-103985216D01*
X105842227Y-103989505D01*
X105842226Y-103989512D01*
X105840765Y-104268417D01*
X105840743Y-104272703D01*
X90508500Y-104272703D01*
X90508500Y-93371643D01*
X99645080Y-93371643D01*
X99645826Y-93379535D01*
X99649241Y-93415661D01*
X99649800Y-93427519D01*
X99649800Y-94983333D01*
X99649273Y-94994516D01*
X99647598Y-95002009D01*
X99647847Y-95009935D01*
X99647847Y-95009936D01*
X99649738Y-95070086D01*
X99649800Y-95074045D01*
X99649800Y-95101956D01*
X99650297Y-95105890D01*
X99650297Y-95105891D01*
X99650305Y-95105956D01*
X99651238Y-95117793D01*
X99652627Y-95161989D01*
X99655333Y-95171302D01*
X99658278Y-95181439D01*
X99662287Y-95200800D01*
X99664826Y-95220897D01*
X99667745Y-95228268D01*
X99667745Y-95228270D01*
X99681104Y-95262012D01*
X99684949Y-95273242D01*
X99697282Y-95315693D01*
X99701315Y-95322512D01*
X99701317Y-95322517D01*
X99707593Y-95333128D01*
X99716288Y-95350876D01*
X99723748Y-95369717D01*
X99728410Y-95376133D01*
X99728410Y-95376134D01*
X99749736Y-95405487D01*
X99756252Y-95415407D01*
X99770015Y-95438678D01*
X99778758Y-95453462D01*
X99793079Y-95467783D01*
X99805919Y-95482816D01*
X99817828Y-95499207D01*
X99823934Y-95504258D01*
X99851905Y-95527398D01*
X99860684Y-95535388D01*
X100395239Y-96069943D01*
X100429265Y-96132255D01*
X100424200Y-96203070D01*
X100407233Y-96234251D01*
X100316246Y-96356542D01*
X100313830Y-96361293D01*
X100313828Y-96361297D01*
X100292776Y-96402704D01*
X100211760Y-96562051D01*
X100210178Y-96567145D01*
X100210177Y-96567148D01*
X100161438Y-96724114D01*
X100143393Y-96782227D01*
X100142692Y-96787516D01*
X100113943Y-97004431D01*
X100113102Y-97010774D01*
X100113302Y-97016103D01*
X100113302Y-97016105D01*
X100115557Y-97076159D01*
X100121751Y-97241158D01*
X100169093Y-97466791D01*
X100171051Y-97471750D01*
X100171052Y-97471752D01*
X100220191Y-97596178D01*
X100253776Y-97681221D01*
X100256543Y-97685780D01*
X100256544Y-97685783D01*
X100318382Y-97787689D01*
X100373377Y-97878317D01*
X100376874Y-97882347D01*
X100477604Y-97998428D01*
X100524477Y-98052445D01*
X100528608Y-98055832D01*
X100698627Y-98195240D01*
X100698633Y-98195244D01*
X100702755Y-98198624D01*
X100734250Y-98216552D01*
X100783555Y-98267632D01*
X100797417Y-98337262D01*
X100771434Y-98403333D01*
X100742284Y-98430573D01*
X100620681Y-98512441D01*
X100616824Y-98516120D01*
X100616822Y-98516122D01*
X100580095Y-98551158D01*
X100453865Y-98671576D01*
X100316246Y-98856542D01*
X100313830Y-98861293D01*
X100313828Y-98861297D01*
X100292776Y-98902704D01*
X100211760Y-99062051D01*
X100210178Y-99067145D01*
X100210177Y-99067148D01*
X100171302Y-99192347D01*
X100143393Y-99282227D01*
X100142692Y-99287516D01*
X100126730Y-99407952D01*
X100113102Y-99510774D01*
X100113302Y-99516103D01*
X100113302Y-99516105D01*
X100116311Y-99596248D01*
X100121751Y-99741158D01*
X100169093Y-99966791D01*
X100171051Y-99971750D01*
X100171052Y-99971752D01*
X100235796Y-100135692D01*
X100253776Y-100181221D01*
X100256543Y-100185780D01*
X100256544Y-100185783D01*
X100305242Y-100266034D01*
X100373377Y-100378317D01*
X100376874Y-100382347D01*
X100516776Y-100543570D01*
X100524477Y-100552445D01*
X100528608Y-100555832D01*
X100698627Y-100695240D01*
X100698633Y-100695244D01*
X100702755Y-100698624D01*
X100707391Y-100701263D01*
X100707394Y-100701265D01*
X100816422Y-100763327D01*
X100903114Y-100812675D01*
X101119825Y-100891337D01*
X101125074Y-100892286D01*
X101125077Y-100892287D01*
X101342608Y-100931623D01*
X101342615Y-100931624D01*
X101346692Y-100932361D01*
X101364414Y-100933197D01*
X101369356Y-100933430D01*
X101369363Y-100933430D01*
X101370844Y-100933500D01*
X101782890Y-100933500D01*
X101849809Y-100927822D01*
X101949409Y-100919371D01*
X101949413Y-100919370D01*
X101954720Y-100918920D01*
X101959875Y-100917582D01*
X101959881Y-100917581D01*
X102172703Y-100862343D01*
X102172707Y-100862342D01*
X102177872Y-100861001D01*
X102182738Y-100858809D01*
X102182741Y-100858808D01*
X102383202Y-100768507D01*
X102388075Y-100766312D01*
X102579319Y-100637559D01*
X102746135Y-100478424D01*
X102776078Y-100438180D01*
X102880568Y-100297740D01*
X102883754Y-100293458D01*
X102889299Y-100282553D01*
X102943342Y-100176256D01*
X102988240Y-100087949D01*
X103024321Y-99971752D01*
X103055024Y-99872871D01*
X103056607Y-99867773D01*
X103064863Y-99805479D01*
X103086198Y-99644511D01*
X103086198Y-99644506D01*
X103086898Y-99639226D01*
X103085180Y-99593450D01*
X103079806Y-99450329D01*
X103078249Y-99408842D01*
X103030907Y-99183209D01*
X102981181Y-99057296D01*
X102948185Y-98973744D01*
X102948184Y-98973742D01*
X102946224Y-98968779D01*
X102826623Y-98771683D01*
X102749556Y-98682871D01*
X102679023Y-98601588D01*
X102679021Y-98601586D01*
X102675523Y-98597555D01*
X102612436Y-98545827D01*
X102501373Y-98454760D01*
X102501367Y-98454756D01*
X102497245Y-98451376D01*
X102465750Y-98433448D01*
X102416445Y-98382368D01*
X102402583Y-98312738D01*
X102428566Y-98246667D01*
X102457716Y-98219427D01*
X102493642Y-98195240D01*
X102579319Y-98137559D01*
X102585171Y-98131977D01*
X102730636Y-97993209D01*
X102746135Y-97978424D01*
X102883754Y-97793458D01*
X102886688Y-97787689D01*
X102985822Y-97592704D01*
X102988240Y-97587949D01*
X103024321Y-97471752D01*
X103055024Y-97372871D01*
X103056607Y-97367773D01*
X103071058Y-97258738D01*
X103086198Y-97144511D01*
X103086198Y-97144506D01*
X103086898Y-97139226D01*
X103086468Y-97127756D01*
X103081247Y-96988707D01*
X103078249Y-96908842D01*
X103072781Y-96882779D01*
X103032002Y-96688428D01*
X103030907Y-96683209D01*
X103010202Y-96630780D01*
X103003784Y-96560077D01*
X103036611Y-96497125D01*
X103098261Y-96461914D01*
X103127394Y-96458500D01*
X112655406Y-96458500D01*
X112723527Y-96478502D01*
X112744501Y-96495405D01*
X113021874Y-96772778D01*
X113055900Y-96835090D01*
X113054486Y-96894484D01*
X113044022Y-96933537D01*
X113024647Y-97155000D01*
X113044022Y-97376463D01*
X113101560Y-97591196D01*
X113103882Y-97596177D01*
X113103883Y-97596178D01*
X113193186Y-97787689D01*
X113193189Y-97787694D01*
X113195512Y-97792676D01*
X113323023Y-97974781D01*
X113480219Y-98131977D01*
X113484727Y-98135134D01*
X113484730Y-98135136D01*
X113560495Y-98188187D01*
X113662323Y-98259488D01*
X113667305Y-98261811D01*
X113667310Y-98261814D01*
X113829110Y-98337262D01*
X113863804Y-98353440D01*
X113869112Y-98354862D01*
X113869114Y-98354863D01*
X113934949Y-98372503D01*
X114078537Y-98410978D01*
X114300000Y-98430353D01*
X114521463Y-98410978D01*
X114665051Y-98372503D01*
X114730886Y-98354863D01*
X114730888Y-98354862D01*
X114736196Y-98353440D01*
X114770890Y-98337262D01*
X114932690Y-98261814D01*
X114932695Y-98261811D01*
X114937677Y-98259488D01*
X115039505Y-98188187D01*
X115115270Y-98135136D01*
X115115273Y-98135134D01*
X115119781Y-98131977D01*
X115276977Y-97974781D01*
X115404488Y-97792676D01*
X115406811Y-97787694D01*
X115406814Y-97787689D01*
X115496117Y-97596178D01*
X115496118Y-97596177D01*
X115498440Y-97591196D01*
X115555978Y-97376463D01*
X115575353Y-97155000D01*
X115555978Y-96933537D01*
X115498440Y-96718804D01*
X115484479Y-96688865D01*
X115406814Y-96522311D01*
X115406811Y-96522306D01*
X115404488Y-96517324D01*
X115363299Y-96458500D01*
X115280136Y-96339730D01*
X115280134Y-96339727D01*
X115276977Y-96335219D01*
X115119781Y-96178023D01*
X115115273Y-96174866D01*
X115115270Y-96174864D01*
X114965427Y-96069943D01*
X114937677Y-96050512D01*
X114932695Y-96048189D01*
X114932690Y-96048186D01*
X114827627Y-95999195D01*
X114774342Y-95952278D01*
X114754881Y-95884001D01*
X114775423Y-95816041D01*
X114827627Y-95770805D01*
X114932690Y-95721814D01*
X114932695Y-95721811D01*
X114937677Y-95719488D01*
X115110648Y-95598372D01*
X115115270Y-95595136D01*
X115115273Y-95595134D01*
X115119781Y-95591977D01*
X115276977Y-95434781D01*
X115287658Y-95419528D01*
X115401331Y-95257185D01*
X115401332Y-95257183D01*
X115404488Y-95252676D01*
X115406811Y-95247694D01*
X115406814Y-95247689D01*
X115455805Y-95142627D01*
X115502723Y-95089342D01*
X115571000Y-95069881D01*
X115638960Y-95090423D01*
X115684195Y-95142627D01*
X115733186Y-95247689D01*
X115733189Y-95247694D01*
X115735512Y-95252676D01*
X115738668Y-95257183D01*
X115738669Y-95257185D01*
X115852343Y-95419528D01*
X115863023Y-95434781D01*
X116020219Y-95591977D01*
X116024727Y-95595134D01*
X116024730Y-95595136D01*
X116029352Y-95598372D01*
X116202323Y-95719488D01*
X116207305Y-95721811D01*
X116207310Y-95721814D01*
X116398822Y-95811117D01*
X116403804Y-95813440D01*
X116409112Y-95814862D01*
X116409114Y-95814863D01*
X116453044Y-95826634D01*
X116618537Y-95870978D01*
X116840000Y-95890353D01*
X117061463Y-95870978D01*
X117226956Y-95826634D01*
X117270886Y-95814863D01*
X117270888Y-95814862D01*
X117276196Y-95813440D01*
X117281178Y-95811117D01*
X117472690Y-95721814D01*
X117472695Y-95721811D01*
X117477677Y-95719488D01*
X117650648Y-95598372D01*
X117655270Y-95595136D01*
X117655273Y-95595134D01*
X117659781Y-95591977D01*
X117816977Y-95434781D01*
X117827658Y-95419528D01*
X117941331Y-95257185D01*
X117941332Y-95257183D01*
X117944488Y-95252676D01*
X117946811Y-95247694D01*
X117946814Y-95247689D01*
X118036117Y-95056178D01*
X118036118Y-95056177D01*
X118038440Y-95051196D01*
X118095978Y-94836463D01*
X118115353Y-94615000D01*
X118095978Y-94393537D01*
X118038440Y-94178804D01*
X118004984Y-94107058D01*
X117946814Y-93982311D01*
X117946811Y-93982306D01*
X117944488Y-93977324D01*
X117816977Y-93795219D01*
X117659781Y-93638023D01*
X117655273Y-93634866D01*
X117655270Y-93634864D01*
X117579505Y-93581813D01*
X117477677Y-93510512D01*
X117472695Y-93508189D01*
X117472690Y-93508186D01*
X117281178Y-93418883D01*
X117281177Y-93418882D01*
X117276196Y-93416560D01*
X117270888Y-93415138D01*
X117270886Y-93415137D01*
X117170781Y-93388314D01*
X117061463Y-93359022D01*
X116840000Y-93339647D01*
X116618537Y-93359022D01*
X116613223Y-93360446D01*
X116613217Y-93360447D01*
X116579486Y-93369485D01*
X116508510Y-93367796D01*
X116457779Y-93336874D01*
X116128552Y-93007647D01*
X116121012Y-92999361D01*
X116116900Y-92992882D01*
X116067248Y-92946256D01*
X116064407Y-92943502D01*
X116044670Y-92923765D01*
X116041473Y-92921285D01*
X116032451Y-92913580D01*
X116017670Y-92899700D01*
X116000221Y-92883314D01*
X115993275Y-92879495D01*
X115993272Y-92879493D01*
X115982466Y-92873552D01*
X115965947Y-92862701D01*
X115965483Y-92862341D01*
X115949941Y-92850286D01*
X115942672Y-92847141D01*
X115942668Y-92847138D01*
X115909363Y-92832726D01*
X115898713Y-92827509D01*
X115859960Y-92806205D01*
X115840337Y-92801167D01*
X115821634Y-92794763D01*
X115810320Y-92789867D01*
X115810319Y-92789867D01*
X115803045Y-92786719D01*
X115795222Y-92785480D01*
X115795212Y-92785477D01*
X115759376Y-92779801D01*
X115747756Y-92777395D01*
X115712611Y-92768372D01*
X115712610Y-92768372D01*
X115704930Y-92766400D01*
X115684676Y-92766400D01*
X115664965Y-92764849D01*
X115652786Y-92762920D01*
X115644957Y-92761680D01*
X115637065Y-92762426D01*
X115600939Y-92765841D01*
X115589081Y-92766400D01*
X103209500Y-92766400D01*
X103141379Y-92746398D01*
X103094886Y-92692742D01*
X103083500Y-92640400D01*
X103083500Y-91424600D01*
X103081228Y-91402704D01*
X103073238Y-91325692D01*
X103073237Y-91325688D01*
X103072526Y-91318834D01*
X103057811Y-91274726D01*
X103018868Y-91158002D01*
X103016550Y-91151054D01*
X102923478Y-91000652D01*
X102798303Y-90875695D01*
X102792072Y-90871854D01*
X102653968Y-90786725D01*
X102653966Y-90786724D01*
X102647738Y-90782885D01*
X102487254Y-90729655D01*
X102486389Y-90729368D01*
X102486387Y-90729368D01*
X102479861Y-90727203D01*
X102473025Y-90726503D01*
X102473022Y-90726502D01*
X102429969Y-90722091D01*
X102375400Y-90716500D01*
X100824600Y-90716500D01*
X100821354Y-90716837D01*
X100821350Y-90716837D01*
X100725692Y-90726762D01*
X100725688Y-90726763D01*
X100718834Y-90727474D01*
X100712298Y-90729655D01*
X100712296Y-90729655D01*
X100580194Y-90773728D01*
X100551054Y-90783450D01*
X100400652Y-90876522D01*
X100275695Y-91001697D01*
X100271855Y-91007927D01*
X100271854Y-91007928D01*
X100245207Y-91051158D01*
X100182885Y-91152262D01*
X100127203Y-91320139D01*
X100116500Y-91424600D01*
X100116500Y-92610405D01*
X100096498Y-92678526D01*
X100079595Y-92699500D01*
X99891047Y-92888048D01*
X99882761Y-92895588D01*
X99876282Y-92899700D01*
X99870857Y-92905477D01*
X99829657Y-92949351D01*
X99826902Y-92952193D01*
X99807165Y-92971930D01*
X99804685Y-92975127D01*
X99796982Y-92984147D01*
X99766714Y-93016379D01*
X99762895Y-93023325D01*
X99762893Y-93023328D01*
X99756952Y-93034134D01*
X99746101Y-93050653D01*
X99733686Y-93066659D01*
X99730541Y-93073928D01*
X99730538Y-93073932D01*
X99716126Y-93107237D01*
X99710909Y-93117887D01*
X99689605Y-93156640D01*
X99687634Y-93164315D01*
X99687634Y-93164316D01*
X99684567Y-93176262D01*
X99678163Y-93194966D01*
X99670119Y-93213555D01*
X99668880Y-93221378D01*
X99668877Y-93221388D01*
X99663201Y-93257224D01*
X99660795Y-93268844D01*
X99649800Y-93311670D01*
X99649800Y-93331924D01*
X99648249Y-93351634D01*
X99645080Y-93371643D01*
X90508500Y-93371643D01*
X90508500Y-87127703D01*
X105840743Y-87127703D01*
X105878268Y-87412734D01*
X105954129Y-87690036D01*
X106066923Y-87954476D01*
X106214561Y-88201161D01*
X106394313Y-88425528D01*
X106602851Y-88623423D01*
X106836317Y-88791186D01*
X106840112Y-88793195D01*
X106840113Y-88793196D01*
X106861869Y-88804715D01*
X107090392Y-88925712D01*
X107360373Y-89024511D01*
X107641264Y-89085755D01*
X107669841Y-89088004D01*
X107864282Y-89103307D01*
X107864291Y-89103307D01*
X107866739Y-89103500D01*
X108022271Y-89103500D01*
X108024407Y-89103354D01*
X108024418Y-89103354D01*
X108232548Y-89089165D01*
X108232554Y-89089164D01*
X108236825Y-89088873D01*
X108241020Y-89088004D01*
X108241022Y-89088004D01*
X108377584Y-89059723D01*
X108518342Y-89030574D01*
X108789343Y-88934607D01*
X109044812Y-88802750D01*
X109048313Y-88800289D01*
X109048317Y-88800287D01*
X109162418Y-88720095D01*
X109280023Y-88637441D01*
X109490622Y-88441740D01*
X109672713Y-88219268D01*
X109822927Y-87974142D01*
X109938483Y-87710898D01*
X110017244Y-87434406D01*
X110057751Y-87149784D01*
X110057845Y-87131951D01*
X110057867Y-87127703D01*
X142035743Y-87127703D01*
X142073268Y-87412734D01*
X142149129Y-87690036D01*
X142261923Y-87954476D01*
X142409561Y-88201161D01*
X142589313Y-88425528D01*
X142797851Y-88623423D01*
X143031317Y-88791186D01*
X143035112Y-88793195D01*
X143035113Y-88793196D01*
X143056869Y-88804715D01*
X143285392Y-88925712D01*
X143555373Y-89024511D01*
X143836264Y-89085755D01*
X143864841Y-89088004D01*
X144059282Y-89103307D01*
X144059291Y-89103307D01*
X144061739Y-89103500D01*
X144217271Y-89103500D01*
X144219407Y-89103354D01*
X144219418Y-89103354D01*
X144427548Y-89089165D01*
X144427554Y-89089164D01*
X144431825Y-89088873D01*
X144436020Y-89088004D01*
X144436022Y-89088004D01*
X144572584Y-89059723D01*
X144713342Y-89030574D01*
X144984343Y-88934607D01*
X145239812Y-88802750D01*
X145243313Y-88800289D01*
X145243317Y-88800287D01*
X145357417Y-88720096D01*
X145475023Y-88637441D01*
X145685622Y-88441740D01*
X145867713Y-88219268D01*
X146017927Y-87974142D01*
X146133483Y-87710898D01*
X146212244Y-87434406D01*
X146252751Y-87149784D01*
X146252845Y-87131951D01*
X146254235Y-86866583D01*
X146254235Y-86866576D01*
X146254257Y-86862297D01*
X146216732Y-86577266D01*
X146140871Y-86299964D01*
X146028077Y-86035524D01*
X145880439Y-85788839D01*
X145700687Y-85564472D01*
X145492149Y-85366577D01*
X145258683Y-85198814D01*
X145236843Y-85187250D01*
X145213654Y-85174972D01*
X145004608Y-85064288D01*
X144734627Y-84965489D01*
X144453736Y-84904245D01*
X144422685Y-84901801D01*
X144230718Y-84886693D01*
X144230709Y-84886693D01*
X144228261Y-84886500D01*
X144072729Y-84886500D01*
X144070593Y-84886646D01*
X144070582Y-84886646D01*
X143862452Y-84900835D01*
X143862446Y-84900836D01*
X143858175Y-84901127D01*
X143853980Y-84901996D01*
X143853978Y-84901996D01*
X143717416Y-84930277D01*
X143576658Y-84959426D01*
X143305657Y-85055393D01*
X143050188Y-85187250D01*
X143046687Y-85189711D01*
X143046683Y-85189713D01*
X143036594Y-85196804D01*
X142814977Y-85352559D01*
X142604378Y-85548260D01*
X142422287Y-85770732D01*
X142272073Y-86015858D01*
X142156517Y-86279102D01*
X142077756Y-86555594D01*
X142037249Y-86840216D01*
X142037227Y-86844505D01*
X142037226Y-86844512D01*
X142035765Y-87123417D01*
X142035743Y-87127703D01*
X110057867Y-87127703D01*
X110059235Y-86866583D01*
X110059235Y-86866576D01*
X110059257Y-86862297D01*
X110021732Y-86577266D01*
X109945871Y-86299964D01*
X109833077Y-86035524D01*
X109685439Y-85788839D01*
X109505687Y-85564472D01*
X109297149Y-85366577D01*
X109063683Y-85198814D01*
X109041843Y-85187250D01*
X109018654Y-85174972D01*
X108809608Y-85064288D01*
X108539627Y-84965489D01*
X108258736Y-84904245D01*
X108227685Y-84901801D01*
X108035718Y-84886693D01*
X108035709Y-84886693D01*
X108033261Y-84886500D01*
X107877729Y-84886500D01*
X107875593Y-84886646D01*
X107875582Y-84886646D01*
X107667452Y-84900835D01*
X107667446Y-84900836D01*
X107663175Y-84901127D01*
X107658980Y-84901996D01*
X107658978Y-84901996D01*
X107522417Y-84930276D01*
X107381658Y-84959426D01*
X107110657Y-85055393D01*
X106855188Y-85187250D01*
X106851687Y-85189711D01*
X106851683Y-85189713D01*
X106841594Y-85196804D01*
X106619977Y-85352559D01*
X106409378Y-85548260D01*
X106227287Y-85770732D01*
X106077073Y-86015858D01*
X105961517Y-86279102D01*
X105882756Y-86555594D01*
X105842249Y-86840216D01*
X105842227Y-86844505D01*
X105842226Y-86844512D01*
X105840765Y-87123417D01*
X105840743Y-87127703D01*
X90508500Y-87127703D01*
X90508500Y-83819500D01*
X90528502Y-83751379D01*
X90582158Y-83704886D01*
X90634500Y-83693500D01*
X162695500Y-83693500D01*
X162763621Y-83713502D01*
G37*
%TD.AperFunction*%
M02*
